<?xml version="1.0" standalone="no"?>
<!DOCTYPE svg PUBLIC "-//W3C//DTD SVG 1.1//EN" "http://www.w3.org/Graphics/SVG/1.1/DTD/svg11.dtd" >
<svg xmlns="http://www.w3.org/2000/svg" xmlns:xlink="http://www.w3.org/1999/xlink" version="1.1">
<metadata>
Created by FontForge 20201107 at Wed Sep 10 15:27:17 2025
 By 
Copyright \(c\) 2014, Ek Type. All rights reserved.
</metadata>
<defs>
<font id="DFVN-Modak-Regular" horiz-adv-x="0" >
  <font-face 
    font-family="DFVN Modak Regular"
    font-weight="400"
    font-stretch="normal"
    units-per-em="2048"
    panose-1="0 0 0 0 0 0 0 0 0 0"
    ascent="1638"
    descent="-410"
    x-height="1093"
    cap-height="1308"
    bbox="-1059 -1049 4258.05 2081"
    underline-thickness="102"
    underline-position="-205"
    unicode-range="U+000D-F04CB"
  />
<missing-glyph horiz-adv-x="1278" 
d="M554 349q-12 -13 -12 -30t12 -29t29 -12q18 0 30 12q13 12 13 29t-13 30q-12 13 -30 13q-17 0 -29 -13zM345 -1q-111 0 -173 58t-62 161v1004q0 103 62 161t173 58h588q111 0 173 -58t62 -161v-1004q0 -103 -62 -161t-173 -58h-588zM600 483q6 0 8 1q-2 10 -2 12v12
q0 55 81 136q18 19 64 61q125 116 125 217q0 98 -67 156.5t-166 58.5q-96 0 -165 -57.5t-69 -152.5q0 -42 34 -42h8q1 0 9 2v30q0 78 52.5 124t131.5 46q74 0 126.5 -43t52.5 -116q0 -56 -30.5 -101.5t-84.5 -90.5q-76 -68 -126 -135q-28 -37 -28 -78q0 -40 39 -40h7z" />
    <glyph glyph-name="fi" unicode="fi" horiz-adv-x="1517" 
d="M426 -13q-47 0 -90.5 8t-85.5 26.5t-67.5 55t-25.5 86.5v469h31q50 0 50 33q0 2 -2 12h-166q-58 82 -58 205t58 211h87q23 167 129 254.5t283 87.5q120 0 215 -35t147 -89q30 83 102.5 132.5t166.5 49.5q123 0 203 -81.5t80 -204.5q0 -96 -60 -171.5t-153 -95.5
q0 -38 29 -38q52 0 104 40q39 -30 49 -42v-396q0 -149 72 -194q1 -3 1 -19v-18q0 -135 -71.5 -213t-205.5 -78q-146 0 -225.5 90.5t-79.5 239.5v650q14 10 44 23.5t39 17.5q-71 38 -99 119q-7 -46 -23 -85q-69 -27 -193 -27q-120 0 -201 21q-7 -7 -7 -20q0 -12 20.5 -22
t67 -17t111.5 -7q103 0 188 15v-303h-206v-621q-110 -69 -258 -69z" />
    <glyph glyph-name="fl" unicode="fl" horiz-adv-x="1530" 
d="M426 -13q-47 0 -90.5 8t-85.5 26.5t-67.5 55t-25.5 86.5v469h31q50 0 50 33q0 2 -2 12h-166q-58 82 -58 205t58 211h87q24 166 130 254t282 88q109 0 195.5 -27.5t138.5 -70.5v-300q-69 -27 -192 -27q-120 0 -201 21q-7 -7 -7 -20q0 -12 20 -22t67.5 -17t116.5 -7
q107 0 176 12q20 -44 20 -148q0 -93 -34 -152h-185v-621q-110 -69 -258 -69zM1465 504q0 -149 72 -194q1 -3 1 -19v-18q0 -142 -72 -216.5t-206 -74.5q-152 0 -228 91.5t-76 248.5v1039q104 64 241 64q121 0 194.5 -51.5t73.5 -166.5v-703z" />
    <glyph glyph-name="f_f_i" unicode="ffi" horiz-adv-x="2263" 
d="M1172 -13q-47 0 -90.5 8t-85.5 26.5t-67.5 55t-25.5 86.5v469h31q50 0 50 33q0 2 -2 12h-298v-621q-110 -69 -258 -69q-47 0 -90.5 8t-85.5 26.5t-67.5 55t-25.5 86.5v469h31q50 0 50 33q0 2 -2 12h-166q-58 82 -58 205t58 211h87q23 167 129 254.5t283 87.5
q115 0 209 -32t146 -86q-79 -130 -82 -298q-64 -9 -121 -9q-122 0 -209 21q-7 -7 -7 -20q0 -12 21.5 -22t70.5 -17t119 -7q110 0 179 12v32q0 205 108 315.5t312 110.5q120 0 215 -35t147 -89q30 83 102.5 132.5t166.5 49.5q123 0 203 -81.5t80 -204.5q0 -96 -60 -171.5
t-153 -95.5q0 -38 29 -38q52 0 104 40q39 -30 49 -42v-396q0 -149 72 -194q1 -3 1 -19v-18q0 -135 -71.5 -213t-205.5 -78q-146 0 -225.5 90.5t-79.5 239.5v650q14 10 44 23.5t39 17.5q-71 38 -99 119q-7 -46 -23 -85q-69 -27 -193 -27q-120 0 -201 21q-7 -7 -7 -20
q0 -12 20.5 -22t67 -17t111.5 -7q102 0 188 15v-303h-206v-621q-110 -69 -258 -69z" />
    <glyph glyph-name=".notdef" horiz-adv-x="1278" 
d="M554 349q-12 -13 -12 -30t12 -29t29 -12q18 0 30 12q13 12 13 29t-13 30q-12 13 -30 13q-17 0 -29 -13zM345 -1q-111 0 -173 58t-62 161v1004q0 103 62 161t173 58h588q111 0 173 -58t62 -161v-1004q0 -103 -62 -161t-173 -58h-588zM600 483q6 0 8 1q-2 10 -2 12v12
q0 55 81 136q18 19 64 61q125 116 125 217q0 98 -67 156.5t-166 58.5q-96 0 -165 -57.5t-69 -152.5q0 -42 34 -42h8q1 0 9 2v30q0 78 52.5 124t131.5 46q74 0 126.5 -43t52.5 -116q0 -56 -30.5 -101.5t-84.5 -90.5q-76 -68 -126 -135q-28 -37 -28 -78q0 -40 39 -40h7z" />
    <glyph glyph-name="uni0000" 
 />
    <glyph glyph-name="uni000D" unicode="&#xd;" horiz-adv-x="512" 
 />
    <glyph glyph-name="space" unicode=" " horiz-adv-x="480" 
 />
    <glyph glyph-name="exclam" unicode="!" horiz-adv-x="578" 
d="M438 585q-54 23 -92 23q-40 0 -40 -37v-4q115 -7 193.5 -91t78.5 -200q0 -119 -85 -202.5t-205 -83.5q-119 0 -203.5 84t-84.5 203q0 79 40 146.5t108 107.5q-61 107 -96.5 242t-35.5 277v326q42 30 109.5 49t135.5 19q83 0 139 -21.5t87 -66t44 -102.5t13 -140v-64
q0 -232 -106 -465z" />
    <glyph glyph-name="quotedbl" unicode="&#x22;" horiz-adv-x="931" 
d="M493 1338q71 33 190 33q173 0 228 -55l-34 -483q-60 -57 -193 -57q-134 0 -191 57v505zM242 1371q128 0 197 -34v-504q-60 -57 -198 -57q-134 0 -185 57l-36 483q26 30 93.5 42.5t128.5 12.5z" />
    <glyph glyph-name="numbersign" unicode="#" horiz-adv-x="1354" 
d="M672 161q45 0 45 26q0 9 -2 19h-91l-20 -146q-98 -70 -234 -70q-46 0 -84.5 8.5t-71 27.5t-51 54t-18.5 83h7q50 0 50 31q0 2 -2 12h-113q-67 94 -67 199q0 58 15.5 103t51.5 100h97q46 0 46 26q0 9 -2 19h-97q-57 91 -57 199q0 58 15.5 103t51.5 100h117q50 0 50 31
q0 2 -2 12h-40l18 125q71 33 122.5 47.5t117.5 14.5q101 0 156 -49.5t55 -135.5q0 -22 -3 -45h58q43 0 43 25q0 8 -2 18h-39q1 3 1 13v11q0 46 -34 98q113 65 248 65q101 0 156 -49.5t55 -135.5q0 -22 -3 -45h51q37 -54 52.5 -100t15.5 -103q0 -104 -68 -199h-102
q-46 0 -46 -25q0 -10 2 -20h106q59 -98 58 -203.5t-68 -198.5h-109l-20 -146q-83 -70 -226 -70q-144 0 -202 90zM649 591q0 -28 35 -28h14q19 120 19 135q0 21 -36 21h-13z" />
    <glyph glyph-name="dollar" unicode="$" horiz-adv-x="1131" 
d="M568 364q66 0 21 91q-41 76 -120 113t-173 37q-72 0 -126 -18q-86 31 -133 111.5t-47 176.5t37 172.5t102 126t143.5 80t171.5 43.5q1 2 1 11q0 28 -30 28q-17 0 -58 -12v108q91 64 215 64q123 0 229 -64v-142q164 -30 252 -80q23 -69 23 -149q0 -155 -72 -235
q-44 32 -127.5 52t-147.5 20q-124 0 -124 -37q0 -9 3 -17q34 9 90 9q135 0 238 -46t164 -142.5t61 -233.5q0 -155 -111 -274q-113 -119 -314 -159q-1 -2 -1 -11q0 -28 30 -28q17 0 58 12v-108q-91 -64 -214 -64q-124 0 -230 64v131q-164 23 -292 94q-75 102 -75 213
q0 112 77 185.5t190 73.5q114 0 185 -46.5t104 -149.5z" />
    <glyph glyph-name="percent" unicode="%" horiz-adv-x="1407" 
d="M440 800q0 -47 27 -47q26 0 26 47q0 99 -6 129q-7 30 -32 30q-11 0 -15 -4v-155zM960 356q0 -47 27 -47q26 0 26 47q0 99 -6 129q-7 30 -32 30q-11 0 -15 -4v-155zM20 855q0 202 115.5 328.5t314.5 126.5q107 0 194 -43.5t142 -123.5l102 149q44 18 101 18
q117 0 221 -78.5t132 -190.5l-127 -190q-82 39 -146 39q-37 0 -37 -30q0 -9 1 -10q169 -21 261.5 -136.5t92.5 -288.5q0 -201 -114.5 -318t-315.5 -117q-218 0 -337 166l-101 -148q-43 -18 -101 -18q-114 0 -220 79.5t-133 189.5l127 190q82 -39 146 -39q37 0 37 30v5
q-1 1 -1 4q-170 19 -262 126.5t-92 279.5z" />
    <glyph glyph-name="ampersand" unicode="&#x26;" horiz-adv-x="1291" 
d="M273 793q-40 33 -63 94t-23 117q0 81 31.5 143t86.5 98t122.5 54t145.5 18q161 0 256 -96q82 -82 82 -205q0 -83 -62 -100l-195 -55q-242 -68 -242 -271q0 -101 69 -175t169 -74q38 0 64 14.5t26 39.5q0 30 -34 30q-36 0 -55 -39q-81 6 -134 64.5t-53 139.5
q0 170 207 230l195 56q90 26 90 119q56 21 109 21q94 0 155 -65.5t61 -160.5q0 -96 -54 -152q-53 -56 -128 -79l-16 -5v-5q0 -28 31 -28q13 0 28 9q44 -50 44 -133t-36 -162q-35 -73 -93 -127.5t-130 -85t-148 -45t-159 -14.5q-266 0 -433 126q-172 127 -172 336
q0 279 258 368z" />
    <glyph glyph-name="quotesingle" unicode="'" horiz-adv-x="492" 
d="M242 776q-135 0 -186 57l-36 483q26 30 94 42.5t129 12.5q174 0 229 -55l-34 -483q-60 -57 -196 -57z" />
    <glyph glyph-name="parenleft" unicode="(" horiz-adv-x="587" 
d="M482 675q0 -157 33.5 -329.5t91.5 -318.5q-47 -55 -127.5 -91.5t-157.5 -42.5q-114 99 -205 284q-117 239 -117 497q0 259 112 486q87 178 210 281q75 -6 157 -43t128 -91q-125 -318 -125 -628v-4z" />
    <glyph glyph-name="parenright" unicode=")" horiz-adv-x="587" 
d="M-20 1307q45 53 128 90.5t157 43.5q123 -103 210 -281q112 -227 112 -487q0 -259 -116 -496q-87 -179 -206 -284q-73 5 -155.5 43t-129.5 91q60 148 92.5 318t32.5 330v4q0 310 -125 628z" />
    <glyph glyph-name="asterisk" unicode="*" horiz-adv-x="726" 
d="M641 863q0 -53 -50 -94.5t-104 -41.5q-47 0 -124 57q-76 -57 -122 -57t-86 28q-70 47 -70 113q0 32 19 101q-99 71 -99 148q0 17 8 46q12 35 30 56.5t44 32.5t51.5 14.5t65.5 4.5q24 80 60.5 114t98.5 34t98.5 -34t60.5 -114q82 -1 127 -23q31 -16 51.5 -55t20.5 -76
q0 -42 -24 -76.5t-75 -71.5q19 -69 19 -106z" />
    <glyph glyph-name="plus" unicode="+" horiz-adv-x="1071" 
d="M531 1196q271 0 271 -216v-130h175q45 -65 64.5 -122t19.5 -127t-20 -126.5t-64 -118.5h-255q-2 -8 -2 -16q0 -26 30 -30h52v-168q-92 -102 -259 -102q-122 0 -196.5 50.5t-74.5 165.5v100h-179q-83 115 -83 244q0 128 83 250h208q50 0 50 27q0 9 -2 19h-77v198
q93 102 259 102z" />
    <glyph glyph-name="comma" unicode="," horiz-adv-x="617" 
d="M365 75q0 11 -13 24q-43 -23 -109 -23q-96 0 -159.5 66.5t-63.5 163.5q0 122 79 193t203 71q145 0 225 -97.5t80 -245.5q0 -187 -105 -293q-95 -98 -229 -98q-93 0 -146.5 37.5t-53.5 108.5q0 48 30 83q62 -34 139 -34q123 0 123 44z" />
    <glyph glyph-name="hyphen" unicode="-" horiz-adv-x="721" 
d="M93 366q-83 115 -83 244q0 128 83 250h534q45 -65 64.5 -122t19.5 -127t-20 -126.5t-64 -118.5h-534z" />
    <glyph glyph-name="period" unicode="." horiz-adv-x="608" 
d="M20 278q0 120 84 205t204 85q121 0 205.5 -84.5t84.5 -205.5q0 -120 -85 -204t-205 -84q-119 0 -203.5 84.5t-84.5 203.5z" />
    <glyph glyph-name="slash" unicode="/" horiz-adv-x="714" 
d="M460 1309q162 0 254 -113l-156 -1115q-78 -91 -251 -91q-88 0 -159 31.5t-108 84.5l153 1098q85 105 267 105z" />
    <glyph glyph-name="zero" unicode="0" horiz-adv-x="1194" 
d="M797 414q-30 22 -82 76q-111 111 -195 265q-45 84 -49 101q-31 0 -31 -36q0 -43 64 -147.5t145.5 -193.5t122.5 -89q22 0 25 24zM1172 645q0 -142 -34.5 -260t-103 -208.5t-180.5 -141.5t-257 -51t-256.5 51t-180.5 141.5t-103.5 208.5t-34.5 259q0 316 162 497
q161 182 413 182t414 -182q161 -182 161 -496z" />
    <glyph glyph-name="one" unicode="1" horiz-adv-x="737" 
d="M175 628q16 0 36 1.5t49 5t47.5 13.5t18.5 24t-9 23q-60 -22 -133 -22q-97 0 -165 68q-67 67 -67 194q0 82 35 163q132 16 214.5 60.5t149.5 150.5h179q92 0 133.5 -38.5t41.5 -130.5v-1062q-104 -96 -257 -96q-121 0 -197 61t-76 179v406z" />
    <glyph glyph-name="two" unicode="2" horiz-adv-x="1132" 
d="M1107 844q0 -92 -31 -166t-87 -125.5t-128.5 -85.5t-161.5 -52q0 -38 34 -38q65 0 151 39.5t131 88.5q95 -95 95 -250q0 -156 -89 -245h-899q-77 116 -77 255t54 234q194 37 357 139q160 100 160 214q0 30 -13.5 49t-37.5 19q-49 0 -49 -51q0 -52 35 -76
q-50 -74 -151 -134.5t-200 -87.5q-178 118 -178 319q0 200 159 319q149 110 380 110q110 0 207.5 -31t173.5 -88.5t120.5 -149.5t44.5 -206z" />
    <glyph glyph-name="three" unicode="3" horiz-adv-x="1170" 
d="M313 639q2 -1 16 -1q17 -107 89.5 -175.5t178.5 -68.5q78 0 78 30q0 14 -5 22q-28 -5 -65 -5q-98 0 -161.5 61t-63.5 159q0 101 62.5 160t163.5 59h18q4 0 22 -2q3 6 3 13q0 32 -53 32q-95 0 -166 -54.5t-96 -146.5q-58 0 -109 12.5t-95 38t-70 71.5t-26 106
q0 162 149 269q148 106 387 106q238 0 393 -119q154 -118 154 -308q0 -125 -90 -206q-44 21 -75 21q-35 0 -35 -27q0 -12 6 -17q80 0 144 -58q81 -72 81 -205q0 -202 -171 -318q-157 -106 -399 -106q-244 0 -399 109q-157 109 -157 290q0 111 72 185q70 73 202 73h17z" />
    <glyph glyph-name="four" unicode="4" horiz-adv-x="1190" 
d="M496 611h107v134h-22q-39 -73 -85 -115v-19zM587 165q60 0 60 25q0 14 -4 22h-303q-163 0 -250.5 97t-87.5 262q0 81 14 145q144 124 247.5 255.5t234.5 336.5h255q123 0 203 -65.5t80 -186.5v-382h-21q-43 0 -43 -34v-13h161q35 -90 35 -201q0 -81 -34 -138t-99 -72
v-153q-113 -81 -270 -81q-159 0 -259 75v108h81z" />
    <glyph glyph-name="five" unicode="5" horiz-adv-x="1158" 
d="M131 633q-32 12 -51.5 43.5t-19.5 70.5q0 10 4 43q15 210 45 405q10 70 33 88.5t94 18.5h766q52 -86 52 -228q0 -141 -60 -225q-139 85 -310 85h-112l-6 -45h93q213 0 345 -114.5t132 -324.5q0 -213 -158 -341q-157 -127 -433 -127q-245 0 -384 106q-139 105 -139 265
q0 127 85 199q84 72 198 72q121 0 200.5 -72.5t85.5 -192.5q46 0 46 43q0 106 -87 187q-88 80 -244 80q-96 0 -175 -36z" />
    <glyph glyph-name="six" unicode="6" horiz-adv-x="1181" 
d="M604 516q-38 0 -60 -12q0 -34 19.5 -55t52.5 -21q51 0 51 41q0 47 -63 47zM1057 1142q0 -80 -20.5 -153t-58.5 -121q-110 51 -248 51q-90 0 -161 -24q-71 -26 -71 -54q0 -12 7 -22q122 55 225 55q203 0 316 -112t113 -314q0 -108 -43.5 -197.5t-117 -147t-168 -89
t-199.5 -31.5q-259 0 -425 160q-184 175 -184 490q0 144 42 269t120.5 219t200 148t271.5 54q266 0 400 -123q1 -5 1 -29v-29z" />
    <glyph glyph-name="seven" unicode="7" horiz-adv-x="987" 
d="M975 1022q0 -78 -27 -179l-281 -490q-67 -118 -67 -223q0 -46 8 -80q-83 -68 -230 -68q-148 0 -230 85q-83 86 -83 208q0 94 59 204l160 306h158q45 0 45 32v7q0 6 -1 8h-442q-42 37 -67 101.5t-25 135.5t27 134.5t72 98.5h569q355 0 355 -280z" />
    <glyph glyph-name="eight" unicode="8" horiz-adv-x="1198" 
d="M534 872q0 -14 23 -22.5t74 -18.5q17 17 17 38t-15 31q-16 10 -43 10q-56 0 -56 -38zM571 482q-31 -32 -18.5 -54.5t54.5 -22.5q56 0 56 38q0 21 -92 39zM255 586q29 0 29 34q-103 40 -164.5 111t-61.5 174q0 183 144 301q142 118 377 118q233 0 387 -115t154 -291
q0 -52 -16.5 -97t-45.5 -68q-8 5 -22 15q-68 41 -103 41q-31 0 -31 -34q135 -45 204.5 -130.5t69.5 -223.5q0 -203 -168 -325q-160 -113 -410 -113q-252 0 -412 120q-164 120 -164 328q0 156 89 230q20 -23 68.5 -49t75.5 -26z" />
    <glyph glyph-name="nine" unicode="9" horiz-adv-x="1186" 
d="M581 770q32 0 59 8q0 36 -19 58t-52 22q-51 0 -51 -41q0 -47 63 -47zM612 364q0 12 -4 16q-35 -7 -99 -7q-118 0 -232 50q-123 54 -189 159t-66 241q0 223 151 362q149 139 409 139q137 0 248.5 -51.5t183.5 -140t111 -205.5t39 -251q0 -307 -179 -501
q-178 -193 -492 -193q-71 0 -175 16t-154 41q-49 79 -49 183q0 112 63 199q59 -44 153.5 -68.5t179.5 -24.5q101 0 101 36z" />
    <glyph glyph-name="colon" unicode=":" horiz-adv-x="608" 
d="M361 504q0 -36 35 -36q48 0 95 32q50 -40 78.5 -98.5t28.5 -124.5q0 -119 -84.5 -203t-203.5 -84q-120 0 -205 83.5t-85 203.5q0 75 38 143.5t106 107.5q-67 39 -105.5 104.5t-38.5 143.5q0 120 85 205.5t205 85.5q117 0 202.5 -84t85.5 -201q0 -110 -64.5 -187
t-172.5 -91z" />
    <glyph glyph-name="semicolon" unicode=";" horiz-adv-x="618" 
d="M366 75q0 11 -13 24q-43 -23 -109 -23q-96 0 -159.5 66.5t-63.5 163.5q0 161 131 229q-61 39 -96.5 103t-35.5 138q0 120 85 205.5t205 85.5q117 0 202.5 -84t85.5 -201q0 -110 -64.5 -187t-172.5 -91q0 -36 35 -36q24 0 53 10.5t46 23.5q54 -42 83.5 -114.5t29.5 -160.5
q0 -187 -105 -293q-95 -98 -229 -98q-52 0 -94.5 12t-74 46.5t-31.5 87.5q0 48 30 83q62 -34 139 -34q123 0 123 44z" />
    <glyph glyph-name="less" unicode="&#x3c;" horiz-adv-x="924" 
d="M821 505q98 -68 98 -174q0 -48 -16 -91t-48 -79.5t-61.5 -62.5t-74.5 -59l-638 343q-76 119 -76 242q0 151 77 258l637 319q85 -64 132.5 -141t47.5 -154q0 -114 -72 -182q-90 -84 -317 -139q0 -32 40 -32t148 36z" />
    <glyph glyph-name="equal" unicode="=" horiz-adv-x="954" 
d="M949 353q0 -117 -76 -220h-793q-75 101 -75 220q0 65 17 115t58 111h793q41 -61 58.5 -111.5t17.5 -114.5zM80 636q-75 103 -75 221q0 64 17 114t58 111h793q41 -61 58.5 -111t17.5 -113q0 -64 -18 -115.5t-58 -106.5h-793z" />
    <glyph glyph-name="greater" unicode="&#x3e;" horiz-adv-x="902" 
d="M217 628q-106 47 -159 116.5t-53 152.5q0 80 47 157t132 140l637 -319q76 -110 76 -258q0 -125 -75 -243l-612 -332q-103 74 -152 142.5t-49 150.5q0 144 172 222q71 31 213 94q-3 26 -27 26h-15q-10 -2 -135 -49z" />
    <glyph glyph-name="question" unicode="?" horiz-adv-x="1077" 
d="M563 969q0 49 -39 49q-41 0 -41 -43q0 -8 1.5 -16t4 -13.5t2.5 -6.5q-9 -8 -57 -28q-184 -75 -237 -164q-84 25 -146 107q-61 79 -61 184q0 183 151 303t376 120q277 0 426 -141q134 -128 134 -331q0 -122 -53 -217q-92 -168 -281 -262q-26 26 -59 42t-54 16
q-20 0 -28 -7t-8 -25q93 -27 148.5 -100t55.5 -169q0 -117 -86.5 -197t-203.5 -80t-202.5 80.5t-85.5 196.5q0 96 54 169q-64 65 -64 153q0 105 57 168q49 52 190 115q57 24 81.5 46.5t24.5 50.5z" />
    <glyph glyph-name="at" unicode="@" horiz-adv-x="1737" 
d="M881 548q-33 0 -33 -30q0 -28 38 -28q27 0 39.5 13t12.5 45h-57zM840 203q87 0 126 12t39 38q0 7 -3 14q-77 -21 -166 -21q-83 0 -151.5 26t-114 85.5t-45.5 144.5q0 121 76.5 186.5t199.5 65.5q90 0 166 -21q0 3 0.5 6t1 4.5t0.5 2.5q0 23 -48 37.5t-120 14.5
q-147 0 -237 -76t-90 -220q0 -77 30 -136t82 -93.5t116 -52t138 -17.5zM860 -213q-234 0 -425.5 104t-303 293t-111.5 427q0 250 104.5 441t295 295t440.5 104q258 0 451 -103q200 -107 303 -293t103 -420q0 -408 -224 -628t-633 -220zM615 971q128 43 251 43
q181 0 276.5 -84.5t95.5 -238.5v-158q0 -57 27 -86t69 -29q24 0 24 28q-36 7 -52.5 26.5t-16.5 58.5v192q0 134 -97 227q-116 112 -326 112q-85 0 -172 -21q-85 -24 -85 -47q0 -13 6 -23z" />
    <glyph glyph-name="A" unicode="A" horiz-adv-x="1349" 
d="M653 657q10 -8 25 -8t29 7q-25 148 -35 180q-11 29 -33 29q-11 0 -24 -6zM455 357q-10 -13 -10 -26q0 -19 23 -33.5t57.5 -22.5t61 -12t45.5 -5q14 -145 28 -164q-19 -36 -105 -74q-83 -38 -194 -38q-142 0 -245 62q-102 62 -102 158q0 24 5 46l213 952q81 51 192 80
t230 29q71 0 140 -12t137.5 -38t118.5 -77.5t67 -121.5l228 -943q-103 -135 -339 -135q-44 0 -87 7.5t-86.5 24t-73.5 49t-38 77.5l-22 122q63 2 116 23q56 23 56 46q0 16 -13 26q-37 -26 -91 -40.5t-104 -14.5q-135 0 -208 55z" />
    <glyph glyph-name="B" unicode="B" horiz-adv-x="1226" 
d="M575 391q3 -3 17 -3q28 0 36.5 14.5t8.5 44.5v19q0 37 -8.5 53t-27.5 16q-20 0 -27 -4q1 -3 1 -17v-123zM575 768q3 -3 17 -3q27 0 36 17t9 47v6q0 36 -8.5 51.5t-27.5 15.5q-20 0 -27 -4q1 -3 1 -17v-113zM32 1153q0 23 38 52q52 40 151.5 67t189 36t172.5 9
q299 0 454 -116q135 -102 135 -268q0 -62 -21.5 -119t-59.5 -85q-53 27 -102 27q-24 0 -35.5 -9.5t-11.5 -32.5q142 -6 222 -97.5t80 -234.5q0 -210 -175 -304q-164 -89 -494 -89q-231 0 -339 15q-108 13 -156 68t-48 164v917z" />
    <glyph glyph-name="C" unicode="C" horiz-adv-x="1268" 
d="M680 398q10 0 18 5v91q72 50 197 77t232 27q54 -56 89 -162t37 -194q-21 -41 -69 -87t-113 -84q-167 -98 -381 -98q-313 0 -490.5 183.5t-177.5 497.5q0 320 200 503q87 81 203.5 123t247.5 42q252 0 413 -122t161 -301q0 -132 -81 -198t-227 -66q-77 0 -157 39
q-79 37 -94 72q0 82 3 129q-1 1 -7 1h-7q-16 0 -24 -9t-14 -35q-7 -25 -7 -147q0 -287 48 -287z" />
    <glyph glyph-name="D" unicode="D" horiz-adv-x="1264" 
d="M637 690q0 100 -9 137.5t-33 37.5q-16 0 -27 -10q2 -18 6 -48q4 -27 4 -128v-65q0 -68 -3 -99q-5 -51 -5 -53q0 -4 -1 -12t-1 -12q11 -10 27 -10q24 0 33 37.5t9 137.5v87zM264 -1q-112 0 -172 59.5t-60 177.5v900q0 76 153 129q150 52 340 52q338 0 527.5 -169
t189.5 -504q0 -162 -54.5 -287t-153 -202.5t-229 -116.5t-288.5 -39h-253z" />
    <glyph glyph-name="E" unicode="E" horiz-adv-x="1112" 
d="M1059 1290q57 -94 57 -206q0 -100 -39 -151.5t-111 -51.5h-403q-37 0 -37 -29v-8q0 -6 2 -8h478q43 -76 43 -169q0 -118 -44 -186h-217q-149 0 -206 -11q-52 -11 -67 -20q-13 -9 -13 -23t14 -22q99 31 272 31h281q61 -85 61 -207q0 -153 -68 -230h-749q-125 0 -203 63
t-78 185v951q0 48 109.5 70t340.5 22h577z" />
    <glyph glyph-name="F" unicode="F" horiz-adv-x="1093" 
d="M615 76q-108 -94 -308 -94q-49 0 -95.5 11t-88 33.5t-67 63t-25.5 92.5v1016q0 92 451 92h587q57 -104 57 -236q0 -229 -201 -229h-346q-38 0 -38 -32v-7q0 -6 2 -8h442q51 -87 51 -196q0 -136 -61 -212h-490q-8 -8 -8 -18q0 -22 80 -22q40 0 58 -1v-253z" />
    <glyph glyph-name="G" unicode="G" horiz-adv-x="1344" 
d="M1285 833q57 -83 57 -201q0 -120 -49 -193h-41v-300q-196 -171 -520 -171q-156 0 -286 44.5t-224.5 128.5t-147 213t-52.5 291q0 322 188 499.5t512 177.5q139 0 281.5 -41.5t235.5 -122.5q0 -63 -14 -148t-37 -132h-527q-37 -38 -63 -103t-26 -142q0 -96 47 -167
t138 -71q32 0 32 22v23h-11q-68 0 -110.5 52.5t-42.5 146.5q0 121 67 194h593z" />
    <glyph glyph-name="H" unicode="H" horiz-adv-x="1285" 
d="M1253 66q-113 -84 -287 -84q-56 0 -106 11t-94.5 35t-70.5 68t-26 103v198h71q39 0 50.5 9.5t11.5 35.5h-314q0 -26 10 -35.5t42 -9.5h76v-331q-129 -84 -287 -84q-56 0 -106 11t-94.5 35t-70.5 68t-26 103v995q51 54 127.5 84t160.5 30q80 0 145.5 -25.5t108 -83.5
t42.5 -139v-178h127q0 26 -9 35.5t-31 9.5h-34v267q51 54 127.5 84t160.5 30q80 0 145.5 -25.5t108 -83.5t42.5 -139v-994z" />
    <glyph glyph-name="I" unicode="I" horiz-adv-x="648" 
d="M616 76q-108 -94 -310 -94q-66 0 -125.5 18.5t-104 65.5t-44.5 115v1033q108 94 309 94q49 0 95.5 -11t88 -33.5t66.5 -62.5t25 -92v-1033z" />
    <glyph glyph-name="J" unicode="J" horiz-adv-x="1010" 
d="M978 457q0 -211 -134 -343q-142 -142 -392 -142q-117 0 -236.5 55.5t-183.5 147.5q-10 59 -10 111q0 141 79 230.5t217 89.5q93 0 165 -49.5t106 -135.5q32 0 32 33q0 43 -56 101q-71 73 -171 90v576q119 87 299 87q47 0 93.5 -9.5t91 -29t72.5 -57.5t28 -88v-667z" />
    <glyph glyph-name="K" unicode="K" horiz-adv-x="1273" 
d="M616 1055q-76 -160 -81 -185q-1 -5 -1 -8q0 -29 33 -29l197 432q69 45 189 45q126 0 212.5 -72t86.5 -196q0 -113 -77 -216t-187 -174q-55 31 -99 31t-44 -43q57 -11 91 -29t81 -60l266 -245q-29 -324 -324 -324q-231 0 -331 254l-93 232h-5q-33 0 -33 -28t112 -287v-77
q-104 -94 -305 -94q-48 0 -94.5 11.5t-87 34t-65.5 62.5t-25 92v1032q103 94 313 94q41 0 79 -6.5t73.5 -22.5t61.5 -39t41.5 -59t15.5 -81v-45z" />
    <glyph glyph-name="L" unicode="L" horiz-adv-x="1068" 
d="M264 -1q-112 0 -172 59.5t-60 177.5v978q53 45 129.5 69.5t158.5 24.5q80 0 145.5 -25.5t108 -83.5t42.5 -139v-547q-44 -3 -104 -28t-60 -58q0 -17 19 -29q100 83 294 83h237q66 -115 66 -237q0 -61 -21 -133t-56 -112h-727z" />
    <glyph glyph-name="M" unicode="M" horiz-adv-x="1459" 
d="M1132 -18q-39 0 -76.5 4t-78.5 16.5t-72 31.5t-53 51.5t-26 74.5l-9 94q92 23 155 114q17 26 17 45q0 26 -26 26h-3q-1 -1 -4 -1q-70 -147 -227 -147q-82 0 -137.5 35.5t-102.5 120.5h-6q-27 0 -27 -23q0 -16 12 -36q34 -56 86.5 -96t112.5 -47l-8 -189q-71 -46 -141 -60
t-174 -14q-52 0 -107 11t-108.5 34.5t-87.5 66.5t-34 100q0 136 52 647q29 272 45 376q104 92 304 92q146 0 242 -54l55 -184l-35 -147q-4 -13 -4 -29q0 -35 40 -36l95 395q104 55 251 55t217 -50t83 -166q4 -26 9 -73q91 -777 91 -921q-111 -117 -320 -117z" />
    <glyph glyph-name="N" unicode="N" horiz-adv-x="1246" 
d="M32 1187q0 53 84 87q81 34 196 34q63 0 120 -15.5t87 -39.5q42 -55 75 -106q34 -54 153 -252q12 0 20.5 7.5t8.5 21.5q0 15 -25 56l-108 186v55q51 42 123.5 65t151.5 23q46 0 86.5 -6t80 -21.5t67.5 -39.5t45 -62.5t17 -88.5v-947q0 -48 -26 -82t-70 -50t-85.5 -22
t-87.5 -6q-64 0 -125.5 14t-97.5 36q-70 92 -141 204l-102 170q-29 -5 -29 -31q0 -16 29 -65l125 -202v-53q-116 -75 -261 -75q-55 0 -105 9t-99 30.5t-78 63.5t-29 100v1002z" />
    <glyph glyph-name="O" unicode="O" horiz-adv-x="1347" 
d="M719 690q0 100 -9 137.5t-33 37.5q-16 0 -27 -10q2 -18 6 -48q4 -27 4 -128v-65q0 -68 -3 -99q-5 -51 -5 -53q0 -4 -1 -12t-1 -12q11 -10 27 -10q24 0 33 37.5t9 137.5v87zM679 -32q-181 0 -328.5 75t-237.5 224q-91 151 -91 378q0 306 174 491.5t477 185.5t477.5 -186
t174.5 -491q0 -314 -167.5 -495.5t-478.5 -181.5z" />
    <glyph glyph-name="P" unicode="P" horiz-adv-x="1199" 
d="M591 671q3 -3 17 -3q27 0 36 17t9 47v76q0 36 -8.5 51.5t-27.5 15.5q-20 0 -27 -4q1 -3 1 -17v-183zM616 66q-48 -41 -132 -62.5t-159 -21.5q-53 0 -102 10.5t-93.5 33t-71 64.5t-26.5 99v950q0 32 43 64t121 58q166 56 377 56q292 0 467 -146q174 -146 174 -392
q0 -130 -43 -229.5t-121 -161t-181.5 -92.5t-230.5 -31q-47 0 -116.5 12t-107.5 28q-8 -8 -8 -22q0 -51 210 -64v-153z" />
    <glyph glyph-name="Q" unicode="Q" horiz-adv-x="1439" 
d="M573 473q0 -17 16 -23q26 29 70.5 48.5t96.5 19.5q104 0 174 -62q2 -2 7 -6q13 7 13 25q0 31 -49 59q-56 31 -146 31q-27 0 -44 -4v261q0 43 -29 43q-30 0 -30 -44v-274q-79 -31 -79 -74zM655 -1q-305 0 -469 176t-164 478q0 231 96 389q56 94 145.5 158t191 93t214.5 29
q310 0 487 -181q176 -182 176 -475q0 -180 -76 -314h145q36 -108 36 -204q0 -146 -81 -235t-226 -89t-240.5 95.5t-155.5 301.5h-5q-32 0 -32 -32q0 -60 67 -184q-52 -6 -109 -6z" />
    <glyph glyph-name="R" unicode="R" horiz-adv-x="1260" 
d="M591 711q3 -3 17 -3q27 0 36 17t9 47v36q0 36 -8.5 51.5t-27.5 15.5q-20 0 -27 -4q1 -3 1 -17v-143zM1280 306q-18 -157 -99.5 -240.5t-221.5 -83.5q-123 0 -208.5 67t-128.5 188l-36 98q-49 2 -106 11q-8 -8 -8 -22q0 -28 81 -32l57 -144v-85q-115 -81 -295 -81
q-131 0 -207 53.5t-76 153.5v950q0 44 81 86q93 46 222.5 69t251.5 23q300 0 469 -123q178 -129 178 -363q0 -128 -72 -225t-194 -137q0 -32 35 -32q41 0 104 46z" />
    <glyph glyph-name="S" unicode="S" horiz-adv-x="1175" 
d="M570 364q30 6 33 34t-17 63t-52 64q-89 80 -241 80q-77 0 -140 -25q-72 36 -111.5 113t-39.5 162q0 96 35 175t93 131.5t136.5 88t162 51.5t172.5 16q326 0 504 -137q34 -102 18.5 -204.5t-69.5 -154.5q-42 31 -133 54t-152 23q-70 0 -96 -8.5t-26 -28.5q0 -9 3 -17
q34 9 90 9q211 0 337 -107t126 -315q0 -195 -157 -322q-170 -137 -457 -137q-151 0 -268 22.5t-232 83.5q-75 110 -75 222q0 113 76.5 186.5t190.5 73.5t185 -46.5t104 -149.5z" />
    <glyph glyph-name="T" unicode="T" horiz-adv-x="1207" 
d="M896 76q-108 -94 -310 -94q-66 0 -125.5 18.5t-104 65.5t-44.5 115v644h-233q-72 103 -72 225q0 80 25.5 142t66.5 98h1034q30 -46 48.5 -110t18.5 -126q0 -115 -50.5 -172t-141.5 -57h-293q-3 -7 -3 -15q0 -18 21 -24q21 -7 94 -7h69v-703z" />
    <glyph glyph-name="U" unicode="U" horiz-adv-x="1228" 
d="M900 1308q119 0 208 -65q88 -64 88 -185v-556q0 -260 -158.5 -394.5t-424.5 -134.5q-131 0 -236.5 32t-183 96t-119.5 166t-42 235v713q118 94 273 94q133 0 207.5 -70t74.5 -206v-583q11 -8 25 -8t22 8q6 8 6 28v556q0 64 -6 101t-24 73q119 100 290 100z" />
    <glyph glyph-name="V" unicode="V" horiz-adv-x="1266" 
d="M599 467q12 -3 21 -3q32 0 37 50l44 728q35 31 115.5 48.5t141.5 17.5q151 0 226 -69t75 -178q0 -100 -192 -848q-19 -71 -63 -119t-106 -71t-123 -32t-136 -9q-110 0 -205.5 24.5t-152.5 68.5q-79 173 -159 479q-80 305 -120 616q94 139 299 139q264 0 330 -207z" />
    <glyph glyph-name="W" unicode="W" horiz-adv-x="1797" 
d="M587 -17q-218 0 -294 74q-221 465 -291 1113q45 66 123 102.5t174 36.5q145 0 227 -55.5t82 -156.5q-8 -77 -12 -223q-6 -147 -6 -266q0 -36 7 -53t27 -17q8 0 20 3q-1 6 -1 30v35q0 154 10 335q11 189 24 282q92 56 214 56q46 0 89.5 -6t91.5 -21t78.5 -48.5t33.5 -81.5
q-5 -99 -18 -193q-14 -95 -33 -219q-20 -127 -24 -164q10 -4 18 -4q16 0 27 10q10 10 18 48q61 307 77 647q92 62 254 62q126 0 206.5 -66.5t80.5 -189.5q0 -75 -74 -409q-76 -347 -130 -471q-45 -100 -136 -145t-235 -45q-53 0 -128 16t-117 39q-21 34 -45 93t-31 96
q-39 -1 -39 -42q0 -34 31 -118q-105 -84 -299 -84z" />
    <glyph glyph-name="X" unicode="X" horiz-adv-x="1286" 
d="M536 9q-74 -28 -163 -28q-154 0 -253.5 86.5t-99.5 238.5q0 130 88 233.5t253 174.5q-12 33 -41 33t-106 -53q-76 39 -131 129q-57 90 -57 208t87 202t240 84q132 0 217 -49l106 -211l86 216q87 38 190 38q152 0 243.5 -83t91.5 -234q0 -131 -93 -238.5t-226 -169.5
q11 -29 37 -29q31 0 95 44l206 -258q0 -160 -83.5 -261.5t-239.5 -101.5q-237 0 -331 255z" />
    <glyph glyph-name="Y" unicode="Y" horiz-adv-x="1274" 
d="M442 304q28 0 28 31q-218 145 -336 358t-132 475q46 69 136 104t183 35q126 0 215 -49q57 -156 92 -288l-49 -216q-4 -13 -4 -28q0 -34 36 -34q13 42 56 230q0 1 27 124.5t50 218.5q93 44 210 44q139 0 226 -67.5t87 -202.5q0 -180 -91 -344.5t-242 -298.5v-330
q-74 -45 -139 -64.5t-149 -19.5q-140 0 -218 53t-78 154v176q61 -61 92 -61z" />
    <glyph glyph-name="Z" unicode="Z" horiz-adv-x="1142" 
d="M27 1058q0 77 25 138t64 94h915q40 -43 67 -119t27 -179q0 -51 -7 -84.5t-27 -85.5q-108 -152 -267 -302q-141 -5 -213.5 -24t-72.5 -48q0 -13 10 -23q57 24 141.5 37t158.5 13h225q67 -118 67 -225q0 -133 -75.5 -191.5t-215.5 -58.5h-733q-104 109 -104 338q0 54 10 95
q191 230 432 460q-4 22 -27 22q-15 0 -39 -19.5t-73 -72.5h-215q-73 115 -73 235z" />
    <glyph glyph-name="bracketleft" unicode="[" horiz-adv-x="617" 
d="M463 310q0 -1 0.5 -2.5t1 -4.5t0.5 -6h140q33 -30 52.5 -85t19.5 -120q0 -62 -23.5 -113.5t-55.5 -77.5h-350q-119 0 -168.5 52t-49.5 167v1024q0 115 49.5 167t168.5 52h345q33 -30 52.5 -85t19.5 -120q0 -62 -23.5 -113.5t-55.5 -77.5h-44v-625h-29q-50 0 -50 -32z" />
    <glyph glyph-name="backslash" unicode="\" horiz-adv-x="756" 
d="M307 1309q162 0 254 -113l155 -1115q-78 -91 -252 -91q-89 0 -160 31.5t-108 84.5l-156 1098q86 105 267 105z" />
    <glyph glyph-name="bracketright" unicode="]" horiz-adv-x="617" 
d="M75 342v625h-44q-32 26 -55.5 77.5t-23.5 113.5q0 65 19.5 120t52.5 85h345q119 0 168.5 -52t49.5 -167v-1024q0 -115 -49.5 -167t-168.5 -52h-350q-32 26 -55.5 77.5t-23.5 113.5q0 65 19.5 120t52.5 85h140q0 3 0.5 6t1 4.5t0.5 2.5q0 32 -50 32h-29z" />
    <glyph glyph-name="asciicircum" unicode="^" horiz-adv-x="938" 
d="M461 874q-21 0 -29 -7.5t-8 -26.5q0 -20 30 -169l-40 -149q-66 -29 -147 -29q-71 0 -144 21t-103 67l186 682q39 22 115.5 34t137.5 12q59 0 134.5 -10t113.5 -29l211 -716q-25 -25 -81.5 -43t-117.5 -18q-92 0 -171 26q-7 23 -17 65q-4 19 -14 59q-2 6 -22 89
q-24 101 -34 142z" />
    <glyph glyph-name="underscore" unicode="_" horiz-adv-x="844" 
d="M103 0q-83 115 -83 244q0 128 83 250h637q45 -65 64.5 -122t19.5 -127t-20 -126.5t-64 -118.5h-637z" />
    <glyph glyph-name="grave" unicode="`" horiz-adv-x="612" 
d="M201 1706q74 0 123 -34t103 -104l175 -233q-8 -34 -31.5 -62.5t-52.5 -39.5l-508 171v105q0 91 49.5 144t141.5 53z" />
    <glyph glyph-name="a" unicode="a" horiz-adv-x="1110" 
d="M1043 495q0 -73 16.5 -117t55.5 -68q1 -3 1 -19v-18q0 -128 -74 -209.5t-200 -81.5q-78 0 -140.5 36.5t-88.5 103.5q-34 0 -34 -33q0 -28 35 -63q-65 -44 -196 -44q-184 0 -295 100.5t-111 281.5q0 176 108 272t286 96q54 0 112 -8l20 -4t14 -3t5 -1q3 10 3 17
q0 44 -159 44q-152 0 -258 -61q-49 82 -49 210q0 72 18 107q185 84 417 84q252 0 383 -110t131 -316v-196zM524 446q-42 0 -42 -38q0 -36 49 -36q35 0 50.5 17t15.5 57h-73z" />
    <glyph glyph-name="b" unicode="b" horiz-adv-x="1110" 
d="M524 409q10 -10 24 -10q22 0 30 32q8 34 8 127v102q0 49 -30 49q-16 0 -23 -7v-134q0 -60 -9 -159zM564 1139q-31 -2 -76 -8t-96.5 -24t-51.5 -41q0 -16 16 -26q110 54 233 54q116 0 211.5 -42.5t158.5 -117t97 -173.5t34 -213q0 -280 -155 -429.5t-436 -149.5
q-55 0 -109.5 5t-121 21.5t-115.5 42.5t-82.5 73t-33.5 109v1141q111 64 252 64q51 0 97 -10t87.5 -31.5t66 -61.5t24.5 -94v-89z" />
    <glyph glyph-name="c" unicode="c" horiz-adv-x="1074" 
d="M589 -31q-264 0 -416.5 162.5t-152.5 428.5q0 270 175 427q157 140 390 140q72 0 140.5 -13.5t131 -44t109 -74t74 -107.5t27.5 -142q0 -123 -75.5 -199t-198.5 -76q-94 0 -163 51t-82 142q-44 0 -44 -32q0 -72 72 -134q82 -72 207 -72q122 0 204 53q50 -77 50 -187
q0 -127 -110 -219q-127 -104 -338 -104z" />
    <glyph glyph-name="d" unicode="d" horiz-adv-x="1147" 
d="M602 709q-10 10 -24 10q-23 0 -30 -31q-8 -34 -8 -128v-102q0 -49 30 -49q16 0 23 7v134q0 98 9 159zM530 1300q55 65 119.5 95t160.5 30q123 0 197.5 -69.5t74.5 -191.5v-660q0 -149 72 -194q1 -3 1 -19v-18q0 -128 -74 -209.5t-200 -81.5q-77 0 -139.5 35t-89.5 102
q-34 0 -34 -33q0 -37 43 -69q-59 -35 -153 -35q-127 0 -237 59q-67 36 -117 91.5t-78.5 123t-42 139t-13.5 149.5q0 256 144 402q143 146 366 146q132 0 230 -50q11 11 11 23q0 35 -80 53.5t-134 18.5q0 101 -27 163z" />
    <glyph glyph-name="e" unicode="e" horiz-adv-x="1132" 
d="M621 -31q-274 0 -437.5 153.5t-163.5 425.5q0 270 169 427q156 147 395 147q238 0 384 -131q144 -132 144 -324q0 -73 -22.5 -131t-61 -96.5t-92.5 -64.5t-114 -37t-129 -11q-142 0 -240 59q-8 -6 -8 -22q0 -30 79 -55q80 -27 180 -27q83 0 168.5 21.5t146.5 64.5
q26 -22 39.5 -78t13.5 -102q0 -47 -9 -83q-91 -77 -198 -106.5t-244 -29.5zM608 646q50 0 50 38q0 36 -53 36t-61 -57q29 -17 64 -17z" />
    <glyph glyph-name="f" unicode="f" horiz-adv-x="936" 
d="M426 -13q-47 0 -90.5 8t-85.5 26.5t-67.5 55t-25.5 86.5v469h31q50 0 50 33q0 2 -2 12h-166q-58 82 -58 205t58 211h87q24 166 130 254t282 88q126 0 219 -36t136 -82q10 -31 10 -80v-19q0 -103 -30 -181q-69 -27 -193 -27q-120 0 -201 21q-7 -7 -7 -20q0 -12 20 -22
t67.5 -17t116.5 -7q107 0 176 12q20 -44 20 -148q0 -93 -34 -152h-185v-621q-110 -69 -258 -69z" />
    <glyph glyph-name="g" unicode="g" horiz-adv-x="1129" 
d="M597 717q0 36 -27 36q-25 0 -25 -30v-103q9 -7 22 -7q18 0 24 12t6 44v48zM634 312q-64 0 -109 9q-3 -9 -3 -17q0 -37 112 -37q158 0 266 46q104 -28 160.5 -110.5t56.5 -192.5q0 -86 -35 -155t-91 -112t-131 -72t-150.5 -40.5t-153.5 -11.5q-249 0 -383 88
q-125 80 -125 208q0 44 21 91t55 66q56 -47 156.5 -70.5t191.5 -23.5q101 0 133 8q29 8 29 28q0 10 -6 20q-52 -11 -125 -11q-57 0 -110 5t-115 21.5t-107 43t-75 74t-30 110.5q0 54 21.5 98t61.5 65q-59 36 -95.5 106.5t-36.5 166.5q0 105 44 187t118.5 130t164.5 72.5
t191 24.5q112 0 214 -37v70q60 23 157 23q101 0 155.5 -38.5t54.5 -135.5q0 -53 -10.5 -86.5t-34.5 -74.5q26 -67 26 -164q0 -78 -25.5 -141.5t-68.5 -106t-103 -71t-126 -41t-140 -12.5z" />
    <glyph glyph-name="h" unicode="h" horiz-adv-x="1146" 
d="M1081 495q0 -73 16.5 -117t55.5 -68q1 -3 1 -19v-18q0 -132 -76.5 -211.5t-207.5 -79.5q-143 0 -219 85.5t-76 231.5q0 76 16 200q8 83 8 102q0 73 -39 73q-19 0 -33 -8l13 -163q-18 -101 -18 -214t51 -206q-98 -101 -275 -101q-102 0 -181.5 57t-79.5 155v1167
q111 64 252 64q51 0 97 -10t87.5 -31.5t66 -61.5t24.5 -94v-95q-87 -4 -167 -50q-69 -41 -69 -73q0 -11 7.5 -19.5t19.5 -10.5q45 52 122.5 83.5t177.5 31.5q193 0 311 -105t118 -300z" />
    <glyph glyph-name="i" unicode="i" horiz-adv-x="611" 
d="M546 504q0 -149 72 -194q1 -3 1 -19v-18q0 -135 -71.5 -213t-205.5 -78q-146 0 -225.5 90.5t-79.5 239.5v650q14 10 44 23.5t39 17.5q-53 27 -83 84.5t-30 119.5q0 124 81.5 205t205.5 81q123 0 203 -81.5t80 -204.5q0 -96 -60 -171.5t-153 -95.5q0 -38 29 -38
q52 0 104 40q39 -30 49 -42v-396z" />
    <glyph glyph-name="j" unicode="j" horiz-adv-x="621" 
d="M573 67q0 -222 -109 -335q-98 -101 -251 -101q-141 0 -229.5 65.5t-88.5 200.5q0 42 11.5 83.5t25.5 64.5q58 13 124 13q87 0 186 -24q8 -3 23 -3q26 0 26 34q-123 35 -203 35q-42 75 -42 198v664q14 10 44 23.5t39 17.5q-53 27 -83 84.5t-30 119.5q0 124 81.5 205
t205.5 81q123 0 203 -81.5t80 -204.5q0 -96 -60 -171.5t-153 -95.5q0 -38 29 -38q52 0 104 40q6 0 31.5 -20.5t35.5 -30.5v-824z" />
    <glyph glyph-name="k" unicode="k" horiz-adv-x="1134" 
d="M486 355q0 -64 25 -141t62 -130q-99 -102 -275 -102q-102 0 -181.5 57t-79.5 155v1167q111 64 252 64q51 0 97 -10t87.5 -31.5t66 -61.5t24.5 -94v-106q0 -131 -47 -260q-4 -5 -31.5 -37t-36.5 -45q-15 -20 -14 -35t24 -26q83 78 126 166t78 221q34 6 87 15q39 6 55 6
q153 0 239.5 -70.5t86.5 -193.5q0 -121 -72 -204.5t-193 -125.5q92 -54 232 -77q54 -97 54 -208q0 -124 -79.5 -195t-205.5 -71q-63 0 -116.5 23t-90 60.5t-64 89.5t-42 106.5t-20.5 114.5z" />
    <glyph glyph-name="l" unicode="l" horiz-adv-x="611" 
d="M546 504q0 -149 72 -194q1 -3 1 -19v-18q0 -142 -72 -216.5t-206 -74.5q-152 0 -228 91.5t-76 248.5v1039q104 64 241 64q121 0 194.5 -51.5t73.5 -166.5v-703z" />
    <glyph glyph-name="m" unicode="m" horiz-adv-x="1716" 
d="M1651 495q0 -75 16.5 -120.5t55.5 -69.5q1 -3 1 -17v-15q0 -132 -77 -211.5t-209 -79.5q-144 0 -219.5 83.5t-75.5 230.5v316q0 67 -44 67q-16 0 -27 -8l18 -149v-226q0 -136 45 -206q-48 -51 -119 -79.5t-146 -28.5q-266 0 -266 279v351q0 67 -44 67q-16 0 -27 -8
l18 -149v-265q0 -111 30 -173q-98 -101 -275 -101q-106 0 -183 57t-77 160v478q-59 83 -59 205q0 121 59 210h241q71 0 121 -53q-44 -41 -44 -68q0 -31 35 -31q50 87 137.5 129.5t194.5 42.5q79 0 151 -33.5t114 -95.5q46 62 121 95.5t159 33.5q187 0 283 -114t96 -305z" />
    <glyph glyph-name="n" unicode="n" horiz-adv-x="1155" 
d="M1090 495q0 -73 16.5 -117t55.5 -68q1 -3 1 -19v-18q0 -132 -76.5 -211.5t-207.5 -79.5q-143 0 -219 85.5t-76 231.5q0 76 16 200q8 83 8 102q0 73 -39 73q-19 0 -33 -8l13 -163q-18 -101 -18 -214t51 -206q-98 -101 -275 -101q-102 0 -181.5 57t-79.5 155v484
q-59 83 -59 205q0 121 59 210h178q71 0 121 -53q-44 -41 -44 -68q0 -31 35 -31q48 84 142.5 130t197.5 46q199 0 308 -108.5t109 -308.5z" />
    <glyph glyph-name="o" unicode="o" horiz-adv-x="1160" 
d="M558 382q7 -7 22 -7q17 0 24 11q7 10 7 38v143q0 94 -8 128q-7 31 -30 31q-14 0 -24 -10q9 -99 9 -159v-175zM588 -31q-263 0 -415.5 155t-152.5 419q0 262 150 422.5t410 160.5q171 0 299 -76t194.5 -208.5t66.5 -302.5q0 -260 -146.5 -415t-405.5 -155z" />
    <glyph glyph-name="p" unicode="p" horiz-adv-x="1136" 
d="M558 406q7 -7 22 -7q17 0 24 11q7 10 7 38v102q0 94 -8 128q-7 31 -30 31q-14 0 -24 -10q9 -99 9 -159v-134zM239 971q0 -30 35 -30q61 95 142 140t194 45q127 0 224.5 -42t158.5 -119.5t92 -181.5t31 -232q0 -256 -136 -403t-390 -147q-140 0 -215 34q-7 -4 -7 -17
q0 -30 45.5 -43t161.5 -19v-266q-102 -46 -226 -46q-62 0 -113 11t-95.5 35.5t-69.5 70.5t-25 111v805q-59 83 -59 206q0 51 16 110t43 100h142q86 0 133 -24q-82 -61 -82 -98z" />
    <glyph glyph-name="q" unicode="q" horiz-adv-x="1138" 
d="M609 709q-10 10 -24 10q-23 0 -30 -31q-8 -34 -8 -128v-102q0 -49 30 -49q16 0 23 7v134q0 98 9 159zM1092 224q-15 4 -56 4q-99 0 -160 -46q-53 -38 -53 -78q0 -26 34 -26q57 100 181 100q47 0 85.5 -18t67 -52t48 -68.5t37.5 -79.5l-192 -191q-74 -74 -138 -109
t-154 -35q-78 0 -132 21t-78 51q-10 101 -30 302q-246 14 -389 159t-143 391q0 268 158.5 422.5t431.5 154.5q182 0 334 -72q70 -33 109 -74t39 -82v-674z" />
    <glyph glyph-name="r" unicode="r" horiz-adv-x="949" 
d="M315 -13q-47 0 -90.5 8t-85.5 26.5t-67.5 55t-25.5 86.5v515q-59 83 -59 205q0 121 59 210h153q118 0 169 -76q-20 -22 -41.5 -65t-21.5 -67q0 -37 37 -37q31 127 117 193t216 66q148 0 232 -63q30 -80 30 -195q0 -117 -46 -210q-34 -18 -94.5 -30.5t-120.5 -12.5
q-103 0 -180 24q-10 -8 -8 -23t20 -22q23 -9 65 -17v-502q-109 -69 -258 -69z" />
    <glyph glyph-name="s" unicode="s" horiz-adv-x="1043" 
d="M567 784q-26 -8 -26 -31v-5q0 -5 1 -6q7 1 29 1h24q72 0 136.5 -12.5t121.5 -41t98.5 -70t65.5 -102.5t24 -136q0 -89 -28 -160t-76 -117.5t-115 -77t-141 -44t-158 -13.5q-55 0 -107.5 5t-112 17t-108 35t-89 55t-63.5 82.5t-23 112.5q0 54 23 101t55 67q65 -55 174 -84
t207 -29q47 0 47 26q0 13 -3 20q-5 -1 -17 -1h-11q-71 0 -137 10.5t-130 36.5t-111 65t-76 101t-29 139q0 173 129 280q142 118 393 118q244 0 412 -95q19 -39 19 -121q0 -123 -67 -187q-52 29 -124 47t-133 18t-74 -4z" />
    <glyph glyph-name="t" unicode="t" horiz-adv-x="887" 
d="M210 632q50 0 50 33q0 2 -2 12h-224q-22 69 -22 157t13 140q48 31 157 110q27 63 73 216q4 13 14 39q80 20 176 20q102 0 199 -21v-245h173q58 -88 58 -207q0 -55 -15.5 -112t-42.5 -96h-143v-151q0 -128 107 -128h43q21 -77 21 -132q0 -138 -86.5 -211.5t-250.5 -73.5
q-171 0 -265.5 95t-94.5 266v289h62z" />
    <glyph glyph-name="u" unicode="u" horiz-adv-x="1149" 
d="M568 436q13 0 26 10q-10 31 -10 103v494q106 64 255 64q82 0 146 -22t99 -60v-521q0 -149 72 -194q1 -3 1 -19v-18q0 -135 -69 -213t-201 -78q-79 0 -141 35.5t-92 101.5q-34 0 -34 -33q0 -23 23 -46q-43 -35 -92.5 -46.5t-116.5 -11.5q-88 0 -171 36q-81 34 -133 100
t-72 142t-20 167v251q-51 88 -51 196q0 131 59 219h220q126 0 195.5 -59.5t69.5 -176.5v-324q0 -97 37 -97z" />
    <glyph glyph-name="v" unicode="v" horiz-adv-x="1046" 
d="M488 465q0 -19 1 -24q13 -5 23 -5q29 0 29 39q0 102 24 384q15 175 16 180q94 63 226 63q118 0 192.5 -60.5t74.5 -175.5q0 -71 -19 -143q-93 -358 -185 -565q-26 -56 -63.5 -92.5t-87 -54t-97 -23.5t-112.5 -6q-61 0 -135.5 10.5t-118.5 29.5q-143 290 -239 655
q-32 32 -53.5 88.5t-21.5 114.5q0 124 60 213h249q119 0 180.5 -59t76.5 -178q-20 -191 -20 -367v-24z" />
    <glyph glyph-name="w" unicode="w" horiz-adv-x="1565" 
d="M509 557q0 -56 5 -78q6 -32 33 -32h9q1 0 9 2q-3 27 -3 78q0 39 5 167t5 338q100 68 227 68q99 0 165 -39t91 -111q0 -41 -7 -139q-21 -253 -61 -380q11 -6 23 -6q13 0 20 8q31 36 53.5 226.5t27.5 318.5q2 40 3 58q38 29 101.5 46.5t132.5 17.5q115 0 190 -62.5
t75 -174.5q0 -98 -36.5 -242t-82.5 -272q-57 -162 -89 -219q-22 -40 -49 -67.5t-53.5 -43.5t-64 -24t-70.5 -10.5t-83 -2.5q-39 0 -106 8.5t-95 19.5q-52 85 -90 202q-38 -6 -38 -33q0 -8 12.5 -44t19.5 -50q-32 -64 -41 -76q-77 -27 -222 -27q-144 0 -249 41
q-95 131 -149 293t-88 362q-66 86 -66 207t60 210h242q130 0 185.5 -54t55.5 -181z" />
    <glyph glyph-name="x" unicode="x" horiz-adv-x="1129" 
d="M328 1126q58 0 138 -26q2 -4 12 -23t18 -34q3 -6 15.5 -30t24.5 -45q10 -20 17.5 -35.5t11.5 -22.5l9 -18l64 209q74 25 176 25q144 0 220 -79q77 -80 77 -200q0 -119 -81 -205t-204 -125q0 -34 34 -34q29 0 100 38q14 -21 169 -230q-4 -131 -77 -220t-201 -89
q-115 0 -190.5 61.5t-108.5 170.5l-80 -193q-68 -40 -174 -40q-129 0 -213.5 83t-84.5 212q0 165 174 276q25 16 104 52q-8 26 -34 26q-40 0 -92 -40q-62 38 -102.5 109.5t-40.5 144.5q0 139 88.5 210.5t230.5 71.5z" />
    <glyph glyph-name="y" unicode="y" horiz-adv-x="1094" 
d="M520 482q0 -18 1 -23q12 -5 22 -5q29 0 29 44q0 142 17 306q18 167 35 244q82 59 216 59q136 0 209 -52t73 -127q0 -34 -37 -256q-40 -226 -105 -482q-26 -96 -57 -173.5t-79.5 -150t-108.5 -121t-145 -77.5t-187 -29q-160 0 -249 80q-81 72 -81 178q0 107 63 201
q18 4 46 4q45 0 109 -10q164 -31 169 -31q36 -4 38 -4q34 0 34 40l-236 45q-63 26 -112 89t-77.5 146.5t-44 154t-24.5 146.5q-66 86 -66 206t60 209h257q118 0 178 -59t75 -176q-22 -170 -22 -353v-23z" />
    <glyph glyph-name="z" unicode="z" horiz-adv-x="993" 
d="M968 837q0 -82 -27 -161q-93 -128 -223 -216q-122 -6 -184.5 -25.5t-62.5 -45.5q0 -16 11 -24q93 50 258 50h193q26 -44 42 -99.5t16 -98.5q0 -102 -50.5 -159.5t-149.5 -57.5h-713q-89 94 -89 290q0 70 26 171q95 104 258 229q26 20 74 61q-6 23 -27 23l-14 -2
q-29 -9 -121 -95h-124q-59 98 -59 208q0 67 21 122t55 86h825q65 -95 65 -256z" />
    <glyph glyph-name="braceleft" unicode="{" horiz-adv-x="646" 
d="M611 -1q-107 -72 -246 -72q-119 0 -190 65.5t-71 182.5v140q0 73 -19.5 106.5t-64.5 34.5q-30 57 -30 183t28 191q101 2 101 137v147q0 117 71 182.5t190 65.5q140 0 246 -72q-25 -69 -25 -250v-195q0 -148 -113 -195q-36 21 -72 21t-41 -32q105 -21 159.5 -74.5
t54.5 -156.5v-151q0 -193 22 -258z" />
    <glyph glyph-name="bar" unicode="|" horiz-adv-x="520" 
d="M272 -193q-119 0 -178 47t-59 133l1 1469q34 24 91 42t121 18q237 0 237 -170v-1469q-35 -28 -93 -49t-120 -21z" />
    <glyph glyph-name="braceright" unicode="}" horiz-adv-x="646" 
d="M20 1290q106 72 246 72q119 0 190 -65.5t71 -182.5v-147q0 -135 101 -137q28 -65 28 -191t-30 -183q-45 -1 -64.5 -34.5t-19.5 -106.5v-140q0 -117 -71 -182.5t-190 -65.5q-139 0 -246 72q22 65 22 258v151q0 103 54.5 156.5t159.5 74.5q-5 32 -40 32q-37 0 -73 -21
q-113 44 -113 195v195q0 178 -25 250z" />
    <glyph glyph-name="asciitilde" unicode="~" horiz-adv-x="1001" 
d="M413 346q-42 14 -73 23h-283q-27 95 -27 206q0 120 81.5 182.5t205.5 62.5q129 0 263 -44q5 -2 34 -11t47 -14h283q27 -95 27 -206q0 -120 -81.5 -182.5t-205.5 -62.5q-134 0 -271 46z" />
    <glyph glyph-name="uni00A0" unicode="&#xa0;" horiz-adv-x="480" 
 />
    <glyph glyph-name="exclamdown" unicode="&#xa1;" horiz-adv-x="678" 
d="M190 849q54 -23 90 -23q42 0 42 40q-116 7 -194 91.5t-78 201.5q0 119 85.5 202t204.5 83q120 0 204 -83.5t84 -203.5q0 -79 -40 -146.5t-108 -107.5q63 -109 97.5 -248t34.5 -271v-326q-41 -30 -106.5 -49t-138.5 -19q-159 0 -221 82t-62 248v64q0 235 106 465z" />
    <glyph glyph-name="cent" unicode="&#xa2;" horiz-adv-x="1086" 
d="M2 559q0 207 107 354t305 196q0 35 -28 35q-38 0 -102 -32v102q36 48 110 71.5t146 23.5q130 0 203.5 -53t73.5 -155v-22q230 -105 230 -336q0 -121 -76 -196.5t-198 -75.5q-94 0 -163 51t-82 142q-44 0 -44 -32q0 -72 72 -134q82 -72 207 -72q63 0 121.5 19.5t94.5 48.5
q58 -88 58 -203q0 -114 -98 -206q-97 -91 -257 -96v-8q0 -34 41 -34q40 0 94 18v-74q-84 -95 -260 -95q-114 0 -193.5 50.5t-79.5 157.5v48q-137 73 -209.5 209t-72.5 298z" />
    <glyph glyph-name="sterling" unicode="&#xa3;" horiz-adv-x="1077" 
d="M156 839q23 -78 64 -78q13 0 21 8q-59 80 -59 192q0 71 23.5 130t64 98.5t95.5 67t116 40t128 12.5q177 0 275 -79q98 -80 98 -197q0 -69 -40.5 -113.5t-112.5 -44.5h-33q-15 50 -69 50q-28 0 -45.5 -11t-22 -25.5t-3 -28t6.5 -21.5h370q26 -70 28 -148t-10.5 -132.5
t-32.5 -93.5q-71 44 -208 44q-96 0 -189 -44q-38 -20 -60 -41t-22.5 -38.5t17.5 -29.5q57 57 120 82.5t146 25.5q143 0 228 -79q75 -70 75 -173q0 -173 -140 -247q-88 32 -244 32h-630q-54 81 -54 221q0 75 15 149q59 3 88.5 20.5t29.5 38.5h-122q-46 88 -46 206
q0 117 34 207h100z" />
    <glyph glyph-name="currency" unicode="&#xa4;" horiz-adv-x="1151" 
d="M543 563q0 -49 6.5 -65.5t22.5 -16.5q15 0 21 16q5 20 5 66v163q0 46 -5 64q-6 15 -22 15q-15 0 -21 -14q-7 -14 -7 -66v-162zM270 76q-94 36 -166 112.5t-94 171.5l46 44q-43 104 -43 240q0 133 41 242l-44 42q24 99 95 177t168 117l60 -49q111 44 234 44q132 0 242 -50
l69 55q97 -39 168 -117t95 -177l-60 -57q40 -104 40 -230t-37 -227l57 -54q-22 -96 -93 -172t-167 -112l-71 52q-108 -43 -237 -43q-127 0 -236 41z" />
    <glyph glyph-name="yen" unicode="&#xa5;" horiz-adv-x="1125" 
d="M833 71q-92 -92 -259 -92q-122 0 -196.5 50.5t-74.5 165.5v77h-203q-39 74 -39 174q0 99 29 178h123q7 20 -8 34q-12 11 -50 11h-40q-163 197 -163 520q115 110 309 110q133 0 219 -53q13 -32 28 -86q14 -58 38 -179q-30 -138 -40 -183q-1 -6 -4.5 -20.5t-5.5 -27.5
t-2 -26q0 -32 33 -32q25 86 93 402q10 46 33 139q37 37 102.5 56.5t126.5 19.5q125 0 208 -64.5t83 -185.5q0 -151 -129 -333l-75 -102h60q29 -79 29 -178q0 -100 -39 -174h-284v-9q0 -21 12.5 -28.5t45.5 -7.5h40v-156z" />
    <glyph glyph-name="brokenbar" unicode="&#xa6;" horiz-adv-x="530" 
d="M277 -193q-119 0 -178 47t-59 133l1 624q48 35 128 52q-129 35 -129 167v626q85 60 213 60q237 0 237 -170v-626q-50 -41 -131 -61q131 -35 131 -158v-624q-35 -28 -93 -49t-120 -21z" />
    <glyph glyph-name="section" unicode="&#xa7;" horiz-adv-x="1055" 
d="M1053 583q0 -55 -26 -111.5t-68 -87.5q-83 74 -251 131q-54 17 -151 46q-188 51 -291 95q-222 91 -222 270q0 160 114 260q137 122 402 122q234 0 398 -91q19 -39 19 -107q0 -130 -63 -178q-110 67 -278 67q-83 0 -83 -37q0 -9 1 -11q9 1 33 1h34q90 0 166.5 -22
t137 -65.5t94.5 -116t34 -165.5zM2 508q0 75 31 127q30 53 63 66q108 -99 401 -179q171 -45 292 -95q222 -94 222 -272q0 -159 -114 -260q-137 -122 -402 -122q-233 0 -398 91q-19 39 -19 107q0 52 15 102t48 76q110 -67 278 -67q40 0 61.5 10t21.5 23t-1 15q-9 -1 -33 -1
h-34q-124 0 -219.5 39.5t-154 126.5t-58.5 213z" />
    <glyph glyph-name="dieresis" unicode="&#xa8;" horiz-adv-x="714" 
d="M198 1700q100 0 159 -86q59 86 157 86q79 0 134.5 -55.5t55.5 -134.5q0 -82 -53 -135t-135 -53q-103 0 -157 79q-53 -81 -159 -81q-82 0 -136 53.5t-54 135.5q0 79 54.5 135t133.5 56z" />
    <glyph glyph-name="copyright" unicode="&#xa9;" horiz-adv-x="1309" 
d="M664 -15q-174 0 -324 71q-114 54 -189.5 149t-108 206t-32.5 241q0 225 91 385q81 143 226.5 216t318.5 73q300 0 476.5 -184.5t176.5 -485.5q0 -313 -163.5 -492t-471.5 -179zM432 653q0 -114 67 -186.5t180 -72.5q80 0 127 25q48 25 48 48q0 22 -23 30
q-61 -58 -146 -58q-92 0 -145 62.5t-53 156.5q0 96 52 155t146 59q87 0 142 -46q14 12 14 24q0 26 -45.5 46.5t-114.5 20.5q-118 0 -183.5 -72.5t-65.5 -191.5z" />
    <glyph glyph-name="ordfeminine" unicode="&#xaa;" horiz-adv-x="696" 
d="M676 858q0 -98 49 -128q1 -2 1 -9v-9q0 -97 -46 -148.5t-138 -51.5q-50 0 -88 22.5t-52 63.5q-29 0 -29 -25q0 -15 14 -41q-46 -20 -109 -20q-120 0 -195 66.5t-75 184.5q0 113 78 172.5t195 59.5q61 0 90 -10q4 4 4 15q0 21 -22 30.5t-75 9.5q-100 0 -171 -37
q-47 50 -47 131q0 51 11 78q127 56 269 56q166 0 251 -74.5t85 -215.5v-120zM342 814q-28 0 -28 -24q0 -25 32 -25q45 0 45 49h-49z" />
    <glyph glyph-name="guillemotleft" unicode="&#xab;" horiz-adv-x="1261" 
d="M994 1153q105 -31 164.5 -112.5t59.5 -190.5q0 -59 -13 -115l-205 -134v-7q0 -10 7.5 -17t21.5 -7q25 0 96 46q58 -27 89.5 -91.5t31.5 -134.5q0 -96 -73.5 -176.5t-172.5 -113.5l-205 162q21 51 21 112q0 160 -203 276l155 112q16 74 16 159q0 43 -8 77zM15 650
q0 118 36 215l454 351q105 -31 164.5 -112.5t59.5 -190.5q0 -70 -13 -125l-255 -177v-7q0 -23 30 -23q16 0 77 35l39 -21q71 -39 113 -100t42 -122q0 -96 -67.5 -175t-164.5 -125l-464 352q-23 38 -37 100t-14 125z" />
    <glyph glyph-name="logicalnot" unicode="&#xac;" horiz-adv-x="1300" 
d="M1037 912q112 0 166.5 -53t54.5 -148l2 -485q-69 -43 -128.5 -60t-131.5 -17q-128 0 -200 48.5t-72 141.5v105h78q31 0 31 27q0 18 -7 25h-752q-58 82 -58 205t58 211h959z" />
    <glyph glyph-name="uni00AD" unicode="&#xad;" horiz-adv-x="741" 
d="M103 366q-83 115 -83 244q0 128 83 250h534q45 -65 64.5 -122t19.5 -127t-20 -126.5t-64 -118.5h-534z" />
    <glyph glyph-name="registered" unicode="&#xae;" horiz-adv-x="744" 
d="M370 1064q96 0 96 -72q0 -65 -95 -65q-51 0 -67 3v127q31 7 66 7zM507 991q0 106 -135 106q-32 0 -67 -7q-38 -8 -38 -13v-277q0 -15 18 -15q11 0 19 6v107q50 -2 67 -2h9q6 0 8 1l60 -80q26 -33 44 -33q7 0 16 7q7 4 7 13l-91 97q83 17 83 90zM380 556
q-172 0 -271 100.5t-99 273.5q0 175 95.5 277t268.5 102q165 0 262.5 -105t97.5 -271q0 -174 -91.5 -275.5t-262.5 -101.5z" />
    <glyph glyph-name="macron" unicode="&#xaf;" horiz-adv-x="738" 
d="M657 1626q120 -188 0 -376h-576q-61 91 -61 188t61 188h576z" />
    <glyph glyph-name="degree" unicode="&#xb0;" horiz-adv-x="654" 
d="M349 1057q-6 16 -22 16q-17 0 -21 -15q-7 -15 -7 -67t7 -66q8 -16 22 -16q15 0 21 16q5 20 5 66t-5 66zM332 673q-147 0 -234.5 85t-87.5 233q0 149 87 233.5t236 84.5q145 0 228 -89t83 -236q0 -152 -87 -231q-89 -80 -225 -80z" />
    <glyph glyph-name="plusminus" unicode="&#xb1;" horiz-adv-x="1030" 
d="M929 472q81 -116 81 -242t-81 -230h-829q-80 107 -80 233q0 70 18.5 122t61.5 117h153q7 -82 77 -138q69 -57 193 -57q185 0 259 128v67h147zM511 1308q118 0 184 -56t66 -161v-58h178q43 -65 62 -117t19 -122q0 -68 -19 -122t-62 -113h-207v-139q-31 -48 -88.5 -73
t-121.5 -25q-105 0 -163.5 49.5t-58.5 148.5v39h-210q-42 58 -61 112.5t-19 122.5q0 67 18 120.5t62 118.5h209q27 0 37 7.5t10 26.5v10h-74v133q83 98 239 98z" />
    <glyph glyph-name="twosuperior" unicode="&#xb2;" horiz-adv-x="719" 
d="M54 795q47 7 100 23.5t110 43.5t94 69t37 91q0 21 -12.5 33t-29.5 12q-15 0 -28 -10q-14 -8 -12.5 -32t23.5 -46q-25 -34 -64.5 -60t-69 -38t-83.5 -31q-115 72 -115 207q0 117 94 189q95 72 259 72q166 0 260 -88t94 -223q0 -106 -75 -174t-186 -87q-1 -1 -1 -9
q0 -26 29 -26q34 0 92.5 29t84.5 56q58 -58 58 -157t-57 -156h-587q-50 74 -50 163q0 88 35 149z" />
    <glyph glyph-name="threesuperior" unicode="&#xb3;" horiz-adv-x="760" 
d="M177 874q7 -1 23 -1q6 -68 56.5 -112t119.5 -44q42 0 42 28q0 1 -2 15l-14 -2h-11q-63 0 -103.5 38.5t-40.5 98.5t40.5 98.5t103.5 38.5h11q1 0 3 -0.5t5 -1t6 -0.5q2 14 2 15q0 28 -42 28q-64 0 -114.5 -39t-60.5 -102q-81 0 -137 40t-56 118q0 100 98 165
q100 64 270 64q168 0 266 -74q98 -75 98 -196q0 -73 -47 -120q-33 17 -56 17q-15 0 -21 -6q-12 -12 -2 -36q54 0 97 -43q49 -50 49 -136q0 -74 -34 -128.5t-91 -83t-120 -41.5t-133 -13q-172 0 -277 72q-105 71 -105 191q0 69 40 110.5t114 41.5h23z" />
    <glyph glyph-name="acute" unicode="&#xb4;" horiz-adv-x="625" 
d="M605 1527q0 -70 -40 -110.5t-113 -67.5l-348 -127q-29 11 -52.5 39.5t-31.5 62.5l226 328q79 54 170 54q79 0 134 -51t55 -128z" />
    <glyph glyph-name="uni00B5" unicode="&#xb5;" horiz-adv-x="1164" 
d="M339 -326q-286 0 -286 228q0 42 9 116t21 104q34 -37 64 -37q26 0 26 26q0 2 -2 12q-118 57 -118 278v291q-51 88 -51 196q0 131 59 219h220q126 0 195.5 -59.5t69.5 -176.5v-338q0 -97 37 -97q13 0 26 10q-10 31 -10 103v508q106 64 255 64q82 0 146 -22t99 -60v-535
q0 -149 72 -194q1 -3 1 -19v-18q0 -142 -69 -216.5t-191 -74.5q-63 0 -94 22q33 15 36 35t-17 31q-88 -70 -244 -70q-80 0 -125 14q-8 -14 -8 -24q0 -35 122 -35v-205q-101 -76 -243 -76z" />
    <glyph glyph-name="paragraph" unicode="&#xb6;" horiz-adv-x="1144" 
d="M519 1307v-825h-69q-193 0 -312.5 107.5t-119.5 298.5q0 184 112 302q113 117 314 117h75zM574 1309h528v-1340q0 -55 -24 -96t-64.5 -63t-86.5 -32.5t-98 -10.5q-155 0 -255 86v1456z" />
    <glyph glyph-name="periodcentered" unicode="&#xb7;" horiz-adv-x="573" 
d="M50 657q0 99 68.5 168t167.5 69t168 -69t69 -168t-69 -167.5t-168 -68.5q-98 0 -167 69t-69 167z" />
    <glyph glyph-name="cedilla" unicode="&#xb8;" horiz-adv-x="615" 
d="M225 -34q0 17 -10 26.5t-37 15.5l-45 9v62q0 69 42 109.5t114 40.5q70 0 110.5 -39.5t40.5 -102.5v-24q155 -64 155 -215q0 -119 -86.5 -180t-211.5 -61q-52 0 -98.5 10.5t-88 32.5t-66 63t-24.5 96q0 95 75 139q31 -15 73 -15q57 0 57 33z" />
    <glyph glyph-name="onesuperior" unicode="&#xb9;" horiz-adv-x="550" 
d="M126 764q49 0 80.5 11t31.5 29q0 19 -7 29q-46 -17 -99 -17q-82 0 -127 55.5t-45 139.5q0 66 26 121q50 13 77 20q127 30 194 138h153q68 0 99 -27.5t31 -98.5v-612q-72 -76 -203 -76q-101 0 -156 40.5t-55 120.5v127z" />
    <glyph glyph-name="ordmasculine" unicode="&#xba;" horiz-adv-x="773" 
d="M372 794q4 -4 15 -4q23 0 30.5 22.5t7.5 84.5q0 58 -11 85q-5 14 -21 14q-21 0 -21 -23v-179zM393 514q-175 0 -279 101t-104 277q0 178 103.5 277.5t281.5 99.5q171 0 269.5 -105.5t98.5 -278.5q0 -181 -104 -276q-106 -95 -266 -95z" />
    <glyph glyph-name="guillemotright" unicode="&#xbb;" horiz-adv-x="1249" 
d="M788 698q-16 0 -41 -16l-40 -22l-180 128q-13 56 -13 125q0 108 60.5 190t163.5 113l460 -356q36 -98 36 -215q0 -63 -14 -125t-37 -100l-426 -337q-99 33 -172.5 113.5t-73.5 176.5q0 118 168 211l140 78q0 36 -31 36zM62 1022q55 97 164 129l243 -167q-10 -16 -9 -81
t18 -137l181 -131q-45 -27 -75.5 -49.5t-61.5 -54.5t-46.5 -71.5t-15.5 -86.5t18 -98l-223 -174q-76 24 -145 90q-84 79 -84 182q0 102 156 189l99 54q0 36 -30 36q-11 0 -21 -6l-36 -17l-166 106q-13 43 -13 126q0 81 47 161z" />
    <glyph glyph-name="onequarter" unicode="&#xbc;" horiz-adv-x="1486" 
d="M1048 486q-16 -26 -60 -70l1 -16h76v86h-17zM1379 25q-83 -54 -204 -54q-128 0 -208 50v44h26q34 0 34 29q0 7 -5 19h-175q-149 0 -185 131q-34 -1 -34 -38q0 -38 39 -72l-93 -202q-61 -38 -163 -38q-103 0 -188 46q-86 47 -98 112l190 413q43 -8 80 -8q69 0 69 36
q0 9 -3 16q-32 -5 -66 -5q-110 0 -170 44.5t-60 131.5v140q55 0 89 11t34 32q0 25 -8 33q-45 -19 -108 -19q-91 0 -140.5 60.5t-49.5 153.5q0 69 29 132q7 2 84 22q136 31 213 151h167q77 0 111 -30t34 -106v-134l-81 -171q-6 -11 -6 -23q0 -28 36 -33l228 480q65 39 165 39
q99 0 187 -47q87 -49 97 -111l-159 -337h-47q-39 0 -39 -35v-7q0 -7 1 -9h180q81 0 139 -35.5t58 -110.5v-264q-50 0 -50 -29v-8q0 -1 0.5 -2.5t1 -4.5t0.5 -6h107q26 -72 26 -160q0 -127 -85 -146v-81z" />
    <glyph glyph-name="onehalf" unicode="&#xbd;" horiz-adv-x="1521" 
d="M1202 273q0 -23 28 -23q48 0 107.5 24t97.5 56q27 -24 45.5 -70t18.5 -84q0 -124 -62 -186h-644q-43 86 -51 183l106 233q32 -8 70 -8q109 0 171 58q52 46 52 102q0 28 -28 28q-6 0 -15 -3q-32 -140 -192 -140q-47 0 -85 20l-247 -531q-61 -38 -163 -38q-103 0 -188 46
q-86 47 -98 112l190 413q43 -8 80 -8q69 0 69 36q0 9 -3 16q-32 -5 -66 -5q-110 0 -170 44.5t-60 131.5v140q55 0 89 11t34 32q0 25 -8 33q-45 -19 -108 -19q-91 0 -140.5 60.5t-49.5 153.5q0 69 29 132q7 2 84 22q136 31 213 151h167q77 0 111 -30t34 -106v-134l-81 -171
q-6 -11 -6 -23q0 -28 36 -33l228 480q65 39 165 39q99 0 187 -47q87 -49 97 -111l-155 -308q-95 0 -95 -32q0 -13 3 -19q45 9 97 9q184 0 293 -100q107 -101 107 -255q0 -117 -85.5 -188.5t-205.5 -78.5z" />
    <glyph glyph-name="threequarters" unicode="&#xbe;" horiz-adv-x="1577" 
d="M1139 496q-16 -26 -60 -70l1 -16h76v86h-17zM459 1119q0 28 -37 28q-75 0 -127.5 -49.5t-64.5 -125.5q-5 -1 -28 -1h-27q-71 0 -112 47t-41 119q0 119 108 195q106 76 290 76q65 0 131.5 -16t128 -57t83.5 -100l-87 -180q-7 -14 -7 -25q0 -30 39 -31l180 380
q64 39 165 39q99 0 187 -47q87 -49 97 -111l-159 -337h-47q-39 0 -39 -35v-7q0 -7 1 -9h180q81 0 139 -35.5t58 -110.5v-264q-50 0 -50 -29v-8q0 -1 0.5 -2.5t1 -4.5t0.5 -6h107q26 -72 26 -160q0 -127 -85 -146v-81q-82 -54 -204 -54q-128 0 -208 50v44h26q34 0 34 29
q0 7 -5 19h-195q-146 0 -182 131q-37 0 -37 -36q0 -21 14.5 -48.5t32.5 -41.5l-81 -186q-61 -38 -163 -38q-103 0 -188 46q-86 47 -98 112l177 376q18 -2 27 -2q121 0 121 46q0 8 -3 15q-61 -16 -118 -16q-71 0 -139 15t-130.5 47t-100.5 90t-38 134q0 77 43 121.5t126 44.5
h24q7 -1 25 -1q12 -68 65 -117t121 -49q26 0 26 26q0 7 -3 16q-70 5 -114 44.5t-44 105.5q0 71 51.5 113.5t123.5 42.5z" />
    <glyph glyph-name="questiondown" unicode="&#xbf;" horiz-adv-x="1003" 
d="M474 153q0 -49 39 -49q41 0 41 43q0 9 -1.5 16.5t-4 13t-2.5 6.5q9 8 57 28q180 73 237 164q92 -28 147.5 -117t55.5 -189q0 -183 -153 -295q-154 -113 -380 -113q-270 0 -416 141q-134 131 -134 331q0 155 93 281.5t241 197.5q26 -26 59.5 -42t54.5 -16q20 0 27 6.5
t8 25.5q-93 25 -148.5 98.5t-55.5 170.5q0 118 85.5 197.5t204.5 79.5q118 0 203 -79.5t85 -197.5q0 -99 -55 -169q65 -65 65 -153q0 -107 -55 -165q-55 -59 -192 -118q-59 -26 -82.5 -48t-23.5 -49z" />
    <glyph glyph-name="Agrave" unicode="&#xc0;" horiz-adv-x="1349" 
d="M653 657q10 -8 25 -8t29 7q-25 148 -35 180q-11 29 -33 29q-11 0 -24 -6zM455 357q-10 -13 -10 -26q0 -19 23 -33.5t57.5 -22.5t61 -12t45.5 -5q14 -145 28 -164q-19 -36 -105 -74q-83 -38 -194 -38q-142 0 -245 62q-102 62 -102 158q0 24 5 46l213 952q81 51 192 80
t230 29q71 0 140 -12t137.5 -38t118.5 -77.5t67 -121.5l228 -943q-103 -135 -339 -135q-44 0 -87 7.5t-86.5 24t-73.5 49t-38 77.5l-22 122q63 2 116 23q56 23 56 46q0 16 -13 26q-37 -26 -91 -40.5t-104 -14.5q-135 0 -208 55zM517 1706q74 0 123 -34t103 -104l201 -267
q-129 53 -295 53q-64 0 -138 -11l-185 61v105q0 91 49.5 144t141.5 53z" />
    <glyph glyph-name="Aacute" unicode="&#xc1;" horiz-adv-x="1349" 
d="M653 657q10 -8 25 -8t29 7q-25 148 -35 180q-11 29 -33 29q-11 0 -24 -6zM455 357q-10 -13 -10 -26q0 -19 23 -33.5t57.5 -22.5t61 -12t45.5 -5q14 -145 28 -164q-19 -36 -105 -74q-83 -38 -194 -38q-142 0 -245 62q-102 62 -102 158q0 24 5 46l213 952q81 51 192 80
t230 29q71 0 140 -12t137.5 -38t118.5 -77.5t67 -121.5l228 -943q-103 -135 -339 -135q-44 0 -87 7.5t-86.5 24t-73.5 49t-38 77.5l-22 122q63 2 116 23q56 23 56 46q0 16 -13 26q-37 -26 -91 -40.5t-104 -14.5q-135 0 -208 55zM655 1354q-145 0 -274 -40l232 338
q77 54 166 54q80 0 136.5 -49.5t56.5 -129.5q0 -69 -40 -110.5t-130 -73.5q-64 11 -147 11z" />
    <glyph glyph-name="Acircumflex" unicode="&#xc2;" horiz-adv-x="1349" 
d="M653 657q10 -8 25 -8t29 7q-25 148 -35 180q-11 29 -33 29q-11 0 -24 -6zM455 357q-10 -13 -10 -26q0 -19 23 -33.5t57.5 -22.5t61 -12t45.5 -5q14 -145 28 -164q-19 -36 -105 -74q-83 -38 -194 -38q-142 0 -245 62q-102 62 -102 158q0 24 5 46l213 952q81 51 192 80
t230 29q71 0 140 -12t137.5 -38t118.5 -77.5t67 -121.5l228 -943q-103 -135 -339 -135q-44 0 -87 7.5t-86.5 24t-73.5 49t-38 77.5l-22 122q63 2 116 23q56 23 56 46q0 16 -13 26q-37 -26 -91 -40.5t-104 -14.5q-135 0 -208 55zM614 1353q-168 -6 -306 -65l114 349
q39 22 100 34t114 12q140 0 217 -39l125 -360q-120 66 -312 70q-11 32 -25 84q-21 0 -29 -7.5t-8 -24.5t10 -53z" />
    <glyph glyph-name="Atilde" unicode="&#xc3;" horiz-adv-x="1349" 
d="M455 357q-10 -13 -10 -26q0 -19 23 -33.5t57.5 -22.5t61 -12t45.5 -5q14 -145 28 -164q-19 -36 -105 -74q-83 -38 -194 -38q-142 0 -245 62q-102 62 -102 158q0 24 5 46l213 952q131 86 322 105q138 -47 233 -47q64 0 95 19q199 -67 235 -217l228 -943
q-103 -135 -339 -135q-44 0 -87 7.5t-86.5 24t-73.5 49t-38 77.5l-22 122q63 2 116 23q56 23 56 46q0 16 -13 26q-37 -26 -91 -40.5t-104 -14.5q-135 0 -208 55zM653 657q10 -8 25 -8t29 7q-25 148 -35 180q-11 29 -33 29q-11 0 -24 -6zM972 1509q0 -92 -46.5 -147
t-136.5 -55q-92 0 -231 47q-135 -22 -170 -34l-6 65q-6 63 -6 116q0 96 45.5 151.5t139.5 55.5q58 0 130 -18q12 -4 17 -5q29 -12 54 -19h200q10 -67 10 -157z" />
    <glyph glyph-name="Adieresis" unicode="&#xc4;" horiz-adv-x="1349" 
d="M653 657q10 -8 25 -8t29 7q-25 148 -35 180q-11 29 -33 29q-11 0 -24 -6zM455 357q-10 -13 -10 -26q0 -19 23 -33.5t57.5 -22.5t61 -12t45.5 -5q14 -145 28 -164q-19 -36 -105 -74q-83 -38 -194 -38q-142 0 -245 62q-102 62 -102 158q0 24 5 46l213 952q81 51 192 80
t230 29q71 0 140 -12t137.5 -38t118.5 -77.5t67 -121.5l228 -943q-103 -135 -339 -135q-44 0 -87 7.5t-86.5 24t-73.5 49t-38 77.5l-22 122q63 2 116 23q56 23 56 46q0 16 -13 26q-37 -26 -91 -40.5t-104 -14.5q-135 0 -208 55zM474 1700q100 0 159 -86q59 86 157 86
q76 0 133 -54.5t57 -129.5q0 -71 -35 -119.5t-96 -66.5q-88 20 -166 23q-29 19 -48 48q-20 -30 -50 -50q-88 -6 -159 -25q-64 15 -102 65.5t-38 122.5q0 76 55.5 131t132.5 55z" />
    <glyph glyph-name="Aring" unicode="&#xc5;" horiz-adv-x="1349" 
d="M455 357q-10 -13 -10 -26q0 -19 23 -33.5t57.5 -22.5t61 -12t45.5 -5q14 -145 28 -164q-19 -36 -105 -74q-83 -38 -194 -38q-142 0 -245 62q-102 62 -102 158q0 24 5 46l213 952q70 41 166 72q21 -32 59 -64t68 -32q25 0 28 31q-70 30 -113 95t-43 142q0 108 74.5 182.5
t182.5 74.5t182.5 -74.5t74.5 -182.5q0 -89 -56 -160q220 -58 262 -224l228 -943q-103 -135 -339 -135q-44 0 -87 7.5t-86.5 24t-73.5 49t-38 77.5l-22 122q63 2 116 23q56 23 56 46q0 16 -13 26q-37 -26 -91 -40.5t-104 -14.5q-135 0 -208 55zM653 657q10 -8 25 -8t29 7
q-25 148 -35 180q-11 29 -33 29q-11 0 -24 -6z" />
    <glyph glyph-name="AE" unicode="&#xc6;" horiz-adv-x="1791" 
d="M455 357q-10 -13 -10 -26q0 -19 23 -33.5t57.5 -22.5t61 -12t45.5 -5q14 -145 28 -164q-19 -36 -105 -74q-83 -38 -194 -38q-142 0 -245 62q-102 62 -102 158q0 24 5 46l213 952q81 51 192 80t230 29q157 0 248 -52q63 33 125 33h711q57 -94 57 -206q0 -100 -39 -151.5
t-111 -51.5h-403q-37 0 -37 -29v-8q0 -6 2 -8h478q43 -76 43 -169q0 -118 -44 -186h-217q-150 0 -205 -11q-53 -12 -68 -20q-13 -9 -13 -23t14 -22q99 31 272 31h281q61 -85 61 -207q0 -153 -68 -230h-787q-98 0 -162 46t-80 139l-13 78q63 2 116 23q56 23 56 46
q0 16 -13 26q-37 -26 -91 -40.5t-104 -14.5q-135 0 -208 55zM663 657q10 -8 25 -8t29 7q-25 148 -35 180q-11 29 -33 29q-11 0 -24 -6z" />
    <glyph glyph-name="Ccedilla" unicode="&#xc7;" horiz-adv-x="1258" 
d="M670 398q10 0 18 5v91q72 50 197 77t232 27q54 -56 89 -162t37 -194q-38 -73 -122 -132.5t-174 -91.5q-30 39 -66.5 63t-61.5 24q-35 0 -37 -32q155 -60 155 -225q0 -119 -86.5 -180t-211.5 -61q-52 0 -98.5 10.5t-88 32.5t-66 63t-24.5 96q0 95 75 139q31 -15 73 -15
q57 0 57 27q0 10 -7 15.5t-27 9.5q-257 46 -389 225.5t-132 446.5q0 317 200 500q87 81 203.5 123t247.5 42q252 0 413 -122t161 -301q0 -132 -81 -198t-227 -66q-77 0 -157 39q-79 37 -94 72q0 82 3 129q-1 1 -7 1h-7q-16 0 -24 -9t-14 -35q-7 -25 -7 -147q0 -287 48 -287z
" />
    <glyph glyph-name="Egrave" unicode="&#xc8;" horiz-adv-x="1112" 
d="M1059 1290q57 -94 57 -206q0 -100 -39 -151.5t-111 -51.5h-403q-37 0 -37 -29v-8q0 -6 2 -8h478q43 -76 43 -169q0 -118 -44 -186h-217q-149 0 -206 -11q-52 -11 -67 -20q-13 -9 -13 -23t14 -22q99 31 272 31h281q61 -85 61 -207q0 -153 -68 -230h-749q-125 0 -203 63
t-78 185v951q0 48 109.5 70t340.5 22h577zM434 1706q68 0 121 -32.5t105 -105.5l4 -6q5 -5 14.5 -18.5t20.5 -27.5q36 -51 51 -69q3 -4 32 -43q14 -19 32 -43.5t19 -25.5h-385l-205 69v105q0 91 49.5 144t141.5 53z" />
    <glyph glyph-name="Eacute" unicode="&#xc9;" horiz-adv-x="1112" 
d="M1059 1290q57 -94 57 -206q0 -100 -39 -151.5t-111 -51.5h-403q-37 0 -37 -29v-8q0 -6 2 -8h478q43 -76 43 -169q0 -118 -44 -186h-217q-149 0 -206 -11q-52 -11 -67 -20q-13 -9 -13 -23t14 -22q99 31 272 31h281q61 -85 61 -207q0 -153 -68 -230h-749q-125 0 -203 63
t-78 185v951q0 48 109.5 70t340.5 22h577zM563 1652q77 54 166 54q80 0 136.5 -49.5t56.5 -129.5q0 -70 -40 -110.5t-113 -67.5l-39 -14h-271l-91 -3q-17 0 -27 -2z" />
    <glyph glyph-name="Ecircumflex" unicode="&#xca;" horiz-adv-x="1112" 
d="M352 1637q38 22 99.5 34t114.5 12q140 0 217 -39l108 -309h-279q-15 43 -26 86q-3 5 -5 17q-21 1 -29 -7t-8 -25q0 -20 16 -71h-90q-159 0 -220 -11zM1059 1290q57 -94 57 -206q0 -100 -39 -151.5t-111 -51.5h-403q-37 0 -37 -29v-8q0 -6 2 -8h478q43 -76 43 -169
q0 -118 -44 -186h-217q-150 1 -206 -11q-52 -11 -67 -20q-13 -9 -13 -23t14 -22q99 31 272 31h281q61 -85 61 -207q0 -153 -68 -230h-749q-125 0 -203 63t-78 185v951q0 48 109.5 70t340.5 22h577z" />
    <glyph glyph-name="Edieresis" unicode="&#xcb;" horiz-adv-x="1112" 
d="M1059 1290q57 -94 57 -206q0 -100 -39 -151.5t-111 -51.5h-403q-37 0 -37 -29v-8q0 -6 2 -8h478q43 -76 43 -169q0 -118 -44 -186h-217q-149 0 -206 -11q-52 -11 -67 -20q-13 -9 -13 -23t14 -22q99 31 272 31h281q61 -85 61 -207q0 -153 -68 -230h-749q-125 0 -203 63
t-78 185v951q0 48 109.5 70t340.5 22h577zM439 1335q-3 0 -8.5 -0.5t-15.5 -1t-17 -0.5q-9 0 -26 -0.5t-24 -1.5q-56 20 -89 68t-33 109q0 79 54 135.5t134 56.5q100 0 159 -86q59 86 157 86q79 0 134.5 -56t55.5 -135q0 -60 -31 -107t-85 -67h-146q-50 20 -83 66
q-30 -45 -80 -66h-56z" />
    <glyph glyph-name="Igrave" unicode="&#xcc;" horiz-adv-x="648" 
d="M616 76q-108 -94 -310 -94q-66 0 -125.5 18.5t-104 65.5t-44.5 115v1033q108 94 309 94q49 0 95.5 -11t88 -33.5t66.5 -62.5t25 -92v-1033zM170 1706q68 0 121 -32.5t105 -105.5l4 -6q5 -5 14.5 -18.5t20.5 -27.5q36 -51 51 -69q3 -4 32 -43q14 -19 32 -43.5t19 -25.5
q-5 -17 -21 -30q-86 48 -216 48q-76 0 -150 -18l-203 69v105q0 91 49.5 144t141.5 53z" />
    <glyph glyph-name="Iacute" unicode="&#xcd;" horiz-adv-x="648" 
d="M616 76q-108 -94 -310 -94q-66 0 -125.5 18.5t-104 65.5t-44.5 115v1033q108 94 309 94q49 0 95.5 -11t88 -33.5t66.5 -62.5t25 -92v-1033zM297 1652q77 54 166 54q80 0 136.5 -49.5t56.5 -129.5q0 -70 -40 -110.5t-113 -67.5l-34 -12q-81 16 -152 16q-131 0 -238 -55
q-2 5 -3 10t-5 16z" />
    <glyph glyph-name="Icircumflex" unicode="&#xce;" horiz-adv-x="648" 
d="M616 76q-108 -94 -310 -94q-66 0 -125.5 18.5t-104 65.5t-44.5 115v1033q108 94 309 94q49 0 95.5 -11t88 -33.5t66.5 -62.5t25 -92v-1033zM313 1683q127 0 197 -39l107 -307q-4 -12 -18 -28.5t-26 -22.5q-84 63 -230 67q-17 58 -25 85q-21 0 -29 -7t-8 -24q0 -19 10 -55
q-138 -10 -234 -66q-25 20 -36 51l98 300q84 46 194 46z" />
    <glyph glyph-name="Idieresis" unicode="&#xcf;" horiz-adv-x="648" 
d="M616 76q-108 -94 -310 -94q-66 0 -125.5 18.5t-104 65.5t-44.5 115v1033q108 94 309 94q49 0 95.5 -11t88 -33.5t66.5 -62.5t25 -92v-1033zM152 1700q100 0 159 -86q59 86 157 86q77 0 133.5 -55t56.5 -132q0 -74 -41.5 -125t-111.5 -63q-63 24 -143 27q-29 20 -49 49
q-21 -32 -53 -52q-61 -6 -126 -28q-74 6 -122 60.5t-48 129.5q0 78 55 133.5t133 55.5z" />
    <glyph glyph-name="Eth" unicode="&#xd0;" horiz-adv-x="1395" 
d="M709 387q29 0 57 49q44 83 44 200t-44 211q-20 42 -51 42q-16 0 -30 -20q50 -60 65 -164t-25 -223q-26 -58 -45 -77q10 -18 29 -18zM164 1136q0 48 74 89q79 43 192.5 63t225.5 20q342 0 529.5 -170.5t187.5 -509.5q0 -159 -56 -281.5t-155.5 -197.5t-229 -112.5
t-284.5 -37.5h-253q-112 0 -171.5 59.5t-59.5 177.5v165h-63q-33 33 -56 95t-23 135q0 158 72 246h176q0 23 -9 34t-32 11h-65v214z" />
    <glyph glyph-name="Ntilde" unicode="&#xd1;" horiz-adv-x="1246" 
d="M331 -10q-120 0 -198.5 24.5t-100.5 62.5v1120q0 32 30.5 56t76 35t84 15.5t68.5 4.5q145 0 233 -60q51 -64 223 -353q12 0 20.5 8.5t8.5 23.5q0 17 -25 55l-108 186v53q11 11 51 34q14 -3 48 -3q58 0 92.5 12t83.5 45q46 0 86.5 -6t80 -21.5t67.5 -39.5t45 -62.5
t17 -88.5v-939q0 -43 -27 -76.5t-69.5 -51t-85.5 -26t-83 -8.5q-71 0 -112.5 5t-97.5 24q-116 148 -260 389q-29 -5 -29 -31q0 -18 29 -65l104 -164v-100q-91 -58 -252 -58zM337 1354q-6 54 -6 145q0 95 45.5 150t139.5 55q58 0 130 -18q12 -4 17 -5q29 -12 54 -19h200
q10 -67 10 -157q0 -96 -48 -149t-143 -53q-104 0 -195 51h-204z" />
    <glyph glyph-name="Ograve" unicode="&#xd2;" horiz-adv-x="1347" 
d="M719 690q0 100 -9 137.5t-33 37.5q-16 0 -27 -10q2 -18 6 -48q4 -27 4 -128v-65q0 -68 -3 -99q-5 -51 -5 -53q0 -4 -1 -12t-1 -12q11 -10 27 -10q24 0 33 37.5t9 137.5v87zM679 -32q-181 0 -328.5 75t-237.5 224q-91 151 -91 378q0 306 174 491.5t477 185.5t477.5 -186
t174.5 -491q0 -314 -167.5 -495.5t-478.5 -181.5zM353 1509q0 91 49.5 144t141.5 53q68 0 121 -32.5t105 -105.5q20 -29 35 -47q20 -28 51 -71t54.5 -75t46.5 -60q-10 3 -33.5 11.5t-32.5 11.5q-88 29 -215 29q-82 0 -165 -15l-158 52v105z" />
    <glyph glyph-name="Oacute" unicode="&#xd3;" horiz-adv-x="1347" 
d="M719 690q0 100 -9 137.5t-33 37.5q-16 0 -27 -10q2 -18 6 -48q4 -27 4 -128v-65q0 -68 -3 -99q-5 -51 -5 -53q0 -4 -1 -12t-1 -12q11 -10 27 -10q24 0 33 37.5t9 137.5v87zM679 -32q-181 0 -328.5 75t-237.5 224q-91 151 -91 378q0 306 174 491.5t477 185.5t477.5 -186
t174.5 -491q0 -314 -167.5 -495.5t-478.5 -181.5zM658 1652q76 54 166 54q80 0 136.5 -49.5t56.5 -129.5q0 -71 -41.5 -112.5t-116.5 -68.5q-103 21 -196 21q-120 0 -225 -34z" />
    <glyph glyph-name="Ocircumflex" unicode="&#xd4;" horiz-adv-x="1347" 
d="M719 690q0 100 -9 137.5t-33 37.5q-16 0 -27 -10q2 -18 6 -48q4 -27 4 -128v-65q0 -68 -3 -99q-5 -51 -5 -53q0 -4 -1 -12t-1 -12q11 -10 27 -10q24 0 33 37.5t9 137.5v87zM679 -32q-181 0 -328.5 75t-237.5 224q-91 151 -91 378q0 306 174 491.5t477 185.5t477.5 -186
t174.5 -491q0 -314 -167.5 -495.5t-478.5 -181.5zM641 1368q-178 -14 -300 -71l112 340q39 22 100 34t114 12q141 0 217 -39l120 -345q-141 59 -312 68l-20 71q-21 0 -29 -7.5t-8 -25.5q0 -19 6 -37z" />
    <glyph glyph-name="Otilde" unicode="&#xd5;" horiz-adv-x="1347" 
d="M22 645q0 174 57 312t175.5 232t289.5 123q114 -54 241 -54q72 0 120 30q141 -46 237 -143.5t139.5 -223t43.5 -276.5q0 -314 -167.5 -495.5t-478.5 -181.5q-181 0 -328.5 75t-237.5 224q-91 151 -91 378zM719 690q0 100 -9 137.5t-33 37.5q-16 0 -27 -10q2 -18 6 -48
q4 -27 4 -128v-65q0 -68 -3 -99q-5 -51 -5 -53q0 -4 -1 -12t-1 -12q11 -10 27 -10q24 0 33 37.5t9 137.5v87zM540 1358q-83 -13 -155 -42q-11 96 -11 181q0 96 45.5 151.5t139.5 55.5q58 0 130 -18q12 -4 17 -5q29 -12 54 -19h200q10 -67 10 -157q0 -96 -48.5 -149
t-143.5 -53q-97 0 -238 55z" />
    <glyph glyph-name="Odieresis" unicode="&#xd6;" horiz-adv-x="1347" 
d="M719 690q0 100 -9 137.5t-33 37.5q-16 0 -27 -10q2 -18 6 -48q4 -27 4 -128v-65q0 -68 -3 -99q-5 -51 -5 -53q0 -4 -1 -12t-1 -12q11 -10 27 -10q24 0 33 37.5t9 137.5v87zM679 -32q-181 0 -328.5 75t-237.5 224q-91 151 -91 378q0 306 174 491.5t477 185.5t477.5 -186
t174.5 -491q0 -314 -167.5 -495.5t-478.5 -181.5zM502 1707q110 0 156 -88q50 89 163 89q83 0 134 -51t51 -142q0 -68 -32 -113.5t-90 -64.5q-86 23 -167 28q-41 29 -53 71q-12 -41 -51 -73q-83 -4 -160 -27q-67 18 -104.5 66t-37.5 120q0 81 55 133t136 52z" />
    <glyph glyph-name="multiply" unicode="&#xd7;" horiz-adv-x="1065" 
d="M5 800q14 119 126.5 230.5t233.5 137.5q57 -57 171 -170l168 171q120 -27 231 -140.5t125 -233.5l-4 -5l-143 -135q-37 31 -45 37q-17 15 -37 15q-22 0 -28 -21l257 -229q-9 -79 -64.5 -160.5t-134.5 -139.5t-157 -75l-168 172l-171 -171q-122 28 -234 138.5t-126 230.5
l148 150q5 -5 25 -21q8 -9 21 -16q15 -15 39 -15q18 0 26 21z" />
    <glyph glyph-name="Oslash" unicode="&#xd8;" horiz-adv-x="1332" 
d="M587 409q19 0 29 24l178 443q-15 12 -28 12q-12 0 -25 -11q-12 -9 -26 -48l-147 -372q-5 -18 -5 -24q0 -24 24 -24zM676 -18q-63 0 -135 11l-33 -57q-2 -1 -11 -1h-11q-94 0 -185 42t-144 116l32 76q-169 176 -169 485q0 331 193 511q173 161 444 161q63 0 121 -9l37 67
h22q95 0 189 -46.5t145 -123.5l-35 -76q176 -185 176 -484q0 -314 -163.5 -493t-472.5 -179z" />
    <glyph glyph-name="Ugrave" unicode="&#xd9;" horiz-adv-x="1228" 
d="M900 1308q119 0 208 -65q88 -64 88 -185v-556q0 -260 -158.5 -394.5t-424.5 -134.5q-131 0 -236.5 32t-183 96t-119.5 166t-42 235v713q118 94 273 94q133 0 207.5 -70t74.5 -206v-583q11 -8 25 -8t22 8q6 8 6 28v556q0 64 -6 101t-24 73q119 100 290 100zM487 1706
q74 0 123 -34t103 -104l159 -214q-138 -8 -235 -64l-341 114v105q0 91 49.5 144t141.5 53z" />
    <glyph glyph-name="Uacute" unicode="&#xda;" horiz-adv-x="1228" 
d="M900 1308q119 0 208 -65q88 -64 88 -185v-556q0 -260 -158.5 -394.5t-424.5 -134.5q-131 0 -236.5 32t-183 96t-119.5 166t-42 235v713q118 94 273 94q133 0 207.5 -70t74.5 -206v-583q11 -8 25 -8t22 8q6 8 6 28v556q0 64 -6 101t-24 73q119 100 290 100zM936 1527
q0 -70 -39.5 -109.5t-113.5 -68.5l-45 -17q-24 -6 -67 -25l-107 -39q-67 69 -194 84l207 300q76 54 166 54q80 0 136.5 -49.5t56.5 -129.5z" />
    <glyph glyph-name="Ucircumflex" unicode="&#xdb;" horiz-adv-x="1228" 
d="M900 1308q119 0 208 -65q88 -64 88 -185v-556q0 -260 -158.5 -394.5t-424.5 -134.5q-131 0 -236.5 32t-183 96t-119.5 166t-42 235v713q118 94 273 94q133 0 207.5 -70t74.5 -206v-583q11 -8 25 -8t22 8q6 8 6 28v556q0 64 -6 101t-24 73q119 100 290 100zM579 1251
q-82 105 -275 105h-11q-9 0 -11 -1l91 282q38 21 95 33.5t109 12.5q147 0 227 -39l101 -289h-5q-144 0 -263 -65l-45 148q-29 0 -35 -17.5t5 -55.5q2 -9 16 -58q10 -39 13 -46z" />
    <glyph glyph-name="Udieresis" unicode="&#xdc;" horiz-adv-x="1228" 
d="M900 1308q119 0 208 -65q88 -64 88 -185v-556q0 -260 -158.5 -394.5t-424.5 -134.5q-131 0 -236.5 32t-183 96t-119.5 166t-42 235v713q118 94 273 94q133 0 207.5 -70t74.5 -206v-583q11 -8 25 -8t22 8q6 8 6 28v556q0 64 -6 101t-24 73q119 100 290 100zM262 1508
q0 79 54 135.5t134 56.5q100 0 159 -86q59 86 157 86q79 0 134.5 -56t55.5 -135q0 -105 -82 -157q-84 -4 -149 -26q-77 16 -114 75q-39 -62 -128 -80q-63 28 -143 32q-78 55 -78 155z" />
    <glyph glyph-name="Yacute" unicode="&#xdd;" horiz-adv-x="1274" 
d="M442 304q28 0 28 31q-218 145 -336 358t-132 475q46 69 136 104t183 35q126 0 215 -49q57 -156 92 -288l-49 -216q-4 -13 -4 -28q0 -34 36 -34q13 42 56 230q0 1 27 124.5t50 218.5q93 44 210 44q139 0 226 -67.5t87 -202.5q0 -180 -91 -344.5t-242 -298.5v-330
q-74 -45 -139 -64.5t-149 -19.5q-140 0 -218 53t-78 154v176q61 -61 92 -61zM971 1527q0 -70 -40 -110.5t-113 -67.5l-232 -85l-16 28q-73 38 -171 53l213 307q76 54 166 54q80 0 136.5 -49.5t56.5 -129.5z" />
    <glyph glyph-name="Thorn" unicode="&#xde;" horiz-adv-x="1196" 
d="M581 584q3 -3 17 -3q27 0 36 17t9 47v36q0 36 -8.5 51.5t-27.5 15.5q-20 0 -27 -4q1 -3 1 -17v-143zM315 -18q-52 0 -99 10t-90 32t-68.5 63.5t-25.5 96.5v920q0 56 25.5 97.5t68.5 64t90.5 32.5t100.5 10q157 0 267 -67v-65q-85 0 -116.5 -9t-31.5 -31v-11q94 6 141 6
q286 0 447 -137q160 -136 160 -363q0 -99 -31 -178.5t-84 -132t-127.5 -87.5t-157 -50t-176.5 -15q-100 0 -134 10q-10 -8 -8 -21t21 -21q21 -8 93 -12v-76q-106 -66 -265 -66z" />
    <glyph glyph-name="germandbls" unicode="&#xdf;" horiz-adv-x="1274" 
d="M1025 555q56 0 119 45q60 -24 95 -95t35 -169q0 -74 -24.5 -135t-65.5 -101.5t-98 -68.5t-120 -40.5t-133 -12.5q-69 0 -137.5 13t-110.5 34q-49 73 -49 185q0 110 71 179q59 -35 145 -35q52 0 52 34q0 6 -3 11h-34q-102 0 -167 56.5t-65 156.5q0 92 55.5 156.5
t146.5 79.5q1 1 1 6v5q0 27 -24 27q-73 0 -144 -65q-88 -79 -88 -204q0 -53 22.5 -116t59.5 -89q-81 -87 -81 -200t54 -203q-95 -27 -195 -27q-138 0 -224 69.5t-86 203.5v482q0 280 170.5 430t455.5 150q250 0 408 -120t158 -317q0 -110 -61 -190t-168 -95q-3 -9 -3 -15
q0 -25 33 -25z" />
    <glyph glyph-name="agrave" unicode="&#xe0;" horiz-adv-x="1110" 
d="M1043 495q0 -73 16.5 -117t55.5 -68q1 -3 1 -19v-18q0 -128 -74 -209.5t-200 -81.5q-78 0 -140.5 36.5t-88.5 103.5q-34 0 -34 -33q0 -28 35 -63q-65 -44 -196 -44q-184 0 -295 100.5t-111 281.5q0 176 108 272t286 96q54 0 112 -8l20 -4t14 -3t5 -1q3 10 3 17
q0 44 -159 44q-152 0 -258 -61q-49 82 -49 210q0 72 18 107q185 84 417 84q252 0 383 -110t131 -316v-196zM524 446q-42 0 -42 -38q0 -36 49 -36q35 0 50.5 17t15.5 57h-73zM399 1524q70 0 122 -32t104 -106q8 -12 41 -58t58 -81q61 -88 101 -138q-118 53 -292 53
q-67 0 -120 -8l-205 68v105q0 91 49.5 144t141.5 53z" />
    <glyph glyph-name="aacute" unicode="&#xe1;" horiz-adv-x="1110" 
d="M1043 495q0 -73 16.5 -117t55.5 -68q1 -3 1 -19v-18q0 -128 -74 -209.5t-200 -81.5q-78 0 -140.5 36.5t-88.5 103.5q-34 0 -34 -33q0 -28 35 -63q-65 -44 -196 -44q-184 0 -295 100.5t-111 281.5q0 176 108 272t286 96q54 0 112 -8l20 -4t14 -3t5 -1q3 10 3 17
q0 44 -159 44q-152 0 -258 -61q-49 82 -49 210q0 72 18 107q185 84 417 84q252 0 383 -110t131 -316v-196zM524 446q-42 0 -42 -38q0 -36 49 -36q35 0 50.5 17t15.5 57h-73zM539 1162q-126 0 -256 -32l235 340q77 54 166 54q81 0 137 -50t56 -130q0 -71 -45.5 -113
t-123.5 -72l-23 -9q-84 12 -146 12z" />
    <glyph glyph-name="acircumflex" unicode="&#xe2;" horiz-adv-x="1110" 
d="M1043 495q0 -73 16.5 -117t55.5 -68q1 -3 1 -19v-18q0 -128 -74 -209.5t-200 -81.5q-78 0 -140.5 36.5t-88.5 103.5q-34 0 -34 -33q0 -28 35 -63q-65 -44 -196 -44q-184 0 -295 100.5t-111 281.5q0 176 108 272t286 96q54 0 112 -8l20 -4t14 -3t5 -1q3 10 3 17
q0 44 -159 44q-152 0 -258 -61q-49 82 -49 210q0 72 18 107q185 84 417 84q252 0 383 -110t131 -316v-196zM524 446q-42 0 -42 -38q0 -36 49 -36q35 0 50.5 17t15.5 57h-73zM503 1162q-153 -7 -301 -50l109 344q39 22 100 34t114 12q141 0 217 -39l127 -374q-130 70 -314 74
q-22 79 -25 94q-21 0 -29 -6.5t-8 -23.5q0 -19 10 -65z" />
    <glyph glyph-name="atilde" unicode="&#xe3;" horiz-adv-x="1110" 
d="M766 1086q277 -87 277 -395v-196q0 -73 16.5 -117t55.5 -68q1 -3 1 -19v-18q0 -128 -74 -209.5t-200 -81.5q-78 0 -140.5 36.5t-88.5 103.5q-34 0 -34 -33q0 -28 35 -63q-65 -44 -196 -44q-184 0 -295 100.5t-111 281.5q0 176 108 272t286 96q54 0 112 -8l20 -4t14 -3
t5 -1q3 10 3 17q0 44 -159 44q-152 0 -258 -61q-49 82 -49 210q0 72 18 107q138 62 317 79q117 -46 229 -46q71 0 108 20zM524 446q-42 0 -42 -38q0 -36 49 -36q35 0 50.5 17t15.5 57h-73zM658 1112q-111 0 -188 34l-45 14q-80 -10 -167 -30q-11 118 -11 196q0 91 47 144
t138 53q58 0 130 -18q12 -4 17 -5q29 -12 54 -19h200q10 -67 10 -159q0 -95 -46 -152.5t-139 -57.5z" />
    <glyph glyph-name="adieresis" unicode="&#xe4;" horiz-adv-x="1110" 
d="M1043 495q0 -73 16.5 -117t55.5 -68q1 -3 1 -19v-18q0 -128 -74 -209.5t-200 -81.5q-78 0 -140.5 36.5t-88.5 103.5q-34 0 -34 -33q0 -28 35 -63q-65 -44 -196 -44q-184 0 -295 100.5t-111 281.5q0 176 108 272t286 96q54 0 112 -8l20 -4t14 -3t5 -1q3 10 3 17
q0 44 -159 44q-152 0 -258 -61q-49 82 -49 210q0 72 18 107q185 84 417 84q252 0 383 -110t131 -316v-196zM524 446q-42 0 -42 -38q0 -36 49 -36q35 0 50.5 17t15.5 57h-73zM361 1518q100 0 159 -86q59 86 157 86q76 0 133 -54.5t57 -130.5q0 -151 -144 -191q-80 20 -142 20
q-35 23 -59 57q-21 -31 -59 -57q-80 -6 -146 -21q-67 17 -105.5 68t-38.5 123q0 76 55.5 131t132.5 55z" />
    <glyph glyph-name="aring" unicode="&#xe5;" horiz-adv-x="1110" 
d="M94 926q0 72 18 107q73 33 181 58q27 -40 64 -66t67 -26q25 0 28 31q-75 32 -115.5 94t-40.5 143q0 108 74.5 182.5t182.5 74.5q106 0 181.5 -74t75.5 -180t-61 -180q294 -84 294 -399v-196q0 -73 16.5 -117t55.5 -68q1 -3 1 -19v-18q0 -128 -74 -209.5t-200 -81.5
q-78 0 -140.5 36.5t-88.5 103.5q-34 0 -34 -33q0 -28 35 -63q-65 -44 -196 -44q-184 0 -295 100.5t-111 281.5q0 176 108 272t286 96q54 0 112 -8l20 -4t14 -3t5 -1q3 10 3 17q0 44 -159 44q-152 0 -258 -61q-49 82 -49 210zM524 446q-42 0 -42 -38q0 -36 49 -36
q35 0 50.5 17t15.5 57h-73z" />
    <glyph glyph-name="ae" unicode="&#xe6;" horiz-adv-x="1780" 
d="M899 87q32 35 32 63q0 12 -8.5 21t-23.5 9q-28 -54 -79 -94t-113 -62t-124 -32t-125 -10q-125 0 -223.5 39.5t-160.5 127.5t-62 215q0 176 108 272t286 96q54 0 112 -8l20 -4t14 -3t5 -1q3 10 3 17q0 44 -159 44q-152 0 -258 -61q-49 82 -49 210q0 72 18 107
q185 84 417 84q205 0 342 -74q-49 -39 -49 -70q0 -21 22 -25q62 83 170 128.5t220 45.5q236 0 382 -131q144 -132 144 -324q0 -73 -22.5 -131t-61 -96.5t-92.5 -64.5t-114 -37t-129 -11q-142 0 -240 59q-8 -6 -8 -22q0 -30 79 -55q80 -27 180 -27q83 0 168.5 21.5
t146.5 64.5q26 -22 39.5 -78t13.5 -102q0 -47 -9 -83q-69 -62 -176.5 -99t-238.5 -37q-137 0 -241 35q-108 35 -156 83zM1256 646q50 0 50 38q0 36 -53 36t-61 -57q29 -17 64 -17zM525 446q-42 0 -42 -38q0 -36 49 -36q35 0 50.5 17t15.5 57h-73z" />
    <glyph glyph-name="ccedilla" unicode="&#xe7;" horiz-adv-x="1074" 
d="M987 479q14 -25 15 -26q35 -59 35 -161q0 -84 -50 -155t-129 -109q-62 75 -122 75q-28 0 -33 -30q155 -60 155 -225q0 -119 -86.5 -180t-211.5 -61q-52 0 -98.5 10.5t-88 32.5t-66 63t-24.5 96q0 95 75 139q32 -15 73 -15q57 0 57 33q0 16 -12 25q-220 35 -338 188
t-118 380q0 271 175 428q157 140 390 140q72 0 140.5 -13.5t131 -44t109 -74t74 -107.5t27.5 -142q0 -123 -75.5 -199t-198.5 -76q-94 0 -163 51t-82 142q-44 0 -44 -32q0 -72 72 -134q83 -72 205 -72q121 0 206 53z" />
    <glyph glyph-name="egrave" unicode="&#xe8;" horiz-adv-x="1132" 
d="M621 -31q-274 0 -437.5 153.5t-163.5 425.5q0 270 169 427q156 147 395 147q238 0 384 -131q144 -132 144 -324q0 -73 -22.5 -131t-61 -96.5t-92.5 -64.5t-114 -37t-129 -11q-142 0 -240 59q-8 -6 -8 -22q0 -30 79 -55q80 -27 180 -27q83 0 168.5 21.5t146.5 64.5
q26 -22 39.5 -78t13.5 -102q0 -47 -9 -83q-91 -77 -198 -106.5t-244 -29.5zM608 646q50 0 50 38q0 36 -53 36t-61 -57q29 -17 64 -17zM448 1524q70 0 122 -32t100 -101q43 -63 123 -172q77 -103 96 -126q-121 79 -309 79q-61 0 -133 -13l-190 63v105q0 91 49.5 144t141.5 53
z" />
    <glyph glyph-name="eacute" unicode="&#xe9;" horiz-adv-x="1132" 
d="M621 -31q-274 0 -437.5 153.5t-163.5 425.5q0 270 169 427q156 147 395 147q238 0 384 -131q144 -132 144 -324q0 -73 -22.5 -131t-61 -96.5t-92.5 -64.5t-114 -37t-129 -11q-142 0 -240 59q-8 -6 -8 -22q0 -30 79 -55q80 -27 180 -27q83 0 168.5 21.5t146.5 64.5
q26 -22 39.5 -78t13.5 -102q0 -47 -9 -83q-91 -77 -198 -106.5t-244 -29.5zM608 646q50 0 50 38q0 36 -53 36t-61 -57q29 -17 64 -17zM585 1173q-145 0 -257 -53l242 350q77 54 166 54q80 0 136.5 -49.5t56.5 -129.5q0 -70 -40 -110.5t-113 -67.5l-31 -12q-77 18 -160 18z
" />
    <glyph glyph-name="ecircumflex" unicode="&#xea;" horiz-adv-x="1132" 
d="M621 -31q-274 0 -437.5 153.5t-163.5 425.5q0 270 169 427q156 147 395 147q238 0 384 -131q144 -132 144 -324q0 -73 -22.5 -131t-61 -96.5t-92.5 -64.5t-114 -37t-129 -11q-142 0 -240 59q-8 -6 -8 -22q0 -30 79 -55q80 -27 180 -27q83 0 168.5 21.5t146.5 64.5
q26 -22 39.5 -78t13.5 -102q0 -47 -9 -83q-91 -77 -198 -106.5t-244 -29.5zM608 646q50 0 50 38q0 36 -53 36t-61 -57q29 -17 64 -17zM546 1172q-79 -2 -168 -32t-153 -77l129 393q39 22 100 34t114 12q140 0 217 -39l134 -381q-58 43 -147.5 66t-173.5 25q-11 32 -25 84
q-30 0 -35.5 -15.5t8.5 -69.5z" />
    <glyph glyph-name="edieresis" unicode="&#xeb;" horiz-adv-x="1132" 
d="M621 -31q-274 0 -437.5 153.5t-163.5 425.5q0 270 169 427q156 147 395 147q238 0 384 -131q144 -132 144 -324q0 -73 -22.5 -131t-61 -96.5t-92.5 -64.5t-114 -37t-129 -11q-142 0 -240 59q-8 -6 -8 -22q0 -30 79 -55q80 -27 180 -27q83 0 168.5 21.5t146.5 64.5
q26 -22 39.5 -78t13.5 -102q0 -47 -9 -83q-91 -77 -198 -106.5t-244 -29.5zM608 646q50 0 50 38q0 36 -53 36t-61 -57q29 -17 64 -17zM415 1518q100 0 159 -86q59 86 157 86q76 0 133 -54.5t57 -129.5q0 -73 -38.5 -124.5t-101.5 -64.5q-72 22 -158 27q-29 18 -47 47
q-20 -30 -47 -48q-81 -6 -151 -30q-67 12 -109 64t-42 126q0 77 55.5 132t132.5 55z" />
    <glyph glyph-name="igrave" unicode="&#xec;" horiz-adv-x="612" 
d="M294 1107q13 0 16 -1l-313 115v105q0 91 49.5 144t141.5 53q70 0 122 -32t104 -106l160 -228q-6 -28 -31 -60.5t-51 -46.5q54 -44 54 -125v-421q0 -149 72 -194q1 -3 1 -19v-18q0 -135 -71.5 -213t-205.5 -78q-146 0 -225.5 90.5t-79.5 239.5v738q103 57 240 57h17z" />
    <glyph glyph-name="iacute" unicode="&#xed;" horiz-adv-x="612" 
d="M37 1050q13 10 40 19q-30 33 -40 73l226 328q77 54 166 54q80 0 136.5 -49.5t56.5 -129.5q0 -70 -40 -110.5t-113 -67.5l-165 -60q121 -4 181.5 -51t60.5 -131v-421q0 -149 72 -194q1 -3 1 -19v-18q0 -135 -71.5 -213t-205.5 -78q-146 0 -225.5 90.5t-79.5 239.5v738z
" />
    <glyph glyph-name="icircumflex" unicode="&#xee;" horiz-adv-x="612" 
d="M37 1050q103 57 240 57q51 0 94.5 -8t85 -26.5t65.5 -56t24 -91.5v-421q0 -149 72 -194q1 -3 1 -19v-18q0 -135 -71.5 -213t-205.5 -78q-146 0 -225.5 90.5t-79.5 239.5v738zM-7 1082q-36 20 -45 32l111 341q85 46 207 46q127 0 196 -44l121 -355q-33 -19 -49 -23
q-72 66 -225 72q0 1 -2 7t-5.5 19t-7.5 26q-14 44 -16 53q-21 0 -29 -7.5t-8 -24.5q0 -18 16 -72q-164 -8 -264 -70z" />
    <glyph glyph-name="idieresis" unicode="&#xef;" horiz-adv-x="612" 
d="M37 1050q103 57 240 57q51 0 94.5 -8t85 -26.5t65.5 -56t24 -91.5v-421q0 -149 72 -194q1 -3 1 -19v-18q0 -135 -71.5 -213t-205.5 -78q-146 0 -225.5 90.5t-79.5 239.5v738zM119 1517q100 0 159 -86q59 86 157 86q79 0 134.5 -55.5t55.5 -134.5q0 -82 -53 -135t-135 -53
q-103 0 -157 79q-52 -81 -159 -81q-82 0 -136 53.5t-54 135.5q0 80 54 135.5t134 55.5z" />
    <glyph glyph-name="eth" unicode="&#xf0;" horiz-adv-x="1153" 
d="M562 396q7 -7 22 -7q17 0 24 11q7 10 7 38v42q0 87 -8 118t-30 31q-14 0 -24 -10q9 -90 9 -149v-74zM372 986q-63 0 -140.5 -37.5t-126.5 -86.5q-60 67 -70 131l106 96l-73 81q29 76 108 166t148 105q95 -31 170 -66.5t153 -95.5q22 4 22 22q0 17 -53 58l86 62
q109 -46 183 -137t96 -207l-80 -62q232 -208 232 -521q0 -246 -153 -385.5t-401 -139.5q-158 0 -283.5 58.5t-200.5 176t-75 276.5q0 189 104.5 315.5t290.5 158.5q0 21 -10 26.5t-33 5.5z" />
    <glyph glyph-name="ntilde" unicode="&#xf1;" horiz-adv-x="1155" 
d="M582 83q-98 -101 -275 -101q-102 0 -181.5 57t-79.5 155v498q-59 83 -59 205q0 121 59 210h184q71 0 121 -53q-44 -41 -44 -68q0 -31 35 -31q61 111 199 153q95 -30 174 -30q78 0 120 28q258 -77 258 -396v-49q-1 -13 -1 -57q-2 -50 -2 -128q0 -121 72 -166q1 -3 1 -19
v-18q0 -132 -76.5 -211.5t-207.5 -79.5q-143 0 -219 85.5t-76 231.5q0 76 16 200q8 83 8 102q0 73 -39 73q-19 0 -33 -8l13 -163q-18 -101 -18 -214t51 -206zM716 1122q-111 0 -188 34l-45 14h-171q-7 52 -7 146q0 96 45.5 151.5t139.5 55.5q58 0 130 -18q12 -4 17 -5
q29 -12 54 -19h200q10 -67 10 -157q0 -93 -47 -147.5t-138 -54.5z" />
    <glyph glyph-name="ograve" unicode="&#xf2;" horiz-adv-x="1160" 
d="M558 382q7 -7 22 -7q17 0 24 11q7 10 7 38v143q0 94 -8 128q-7 31 -30 31q-14 0 -24 -10q9 -99 9 -159v-175zM588 -31q-263 0 -415.5 155t-152.5 419q0 262 150 422.5t410 160.5q171 0 299 -76t194.5 -208.5t66.5 -302.5q0 -260 -146.5 -415t-405.5 -155zM464 1523
q74 0 123 -34t103 -104l175 -233q-5 -21 -15 -39q-123 58 -272 58q-60 0 -126 -11l-179 61v105q0 91 49.5 144t141.5 53z" />
    <glyph glyph-name="oacute" unicode="&#xf3;" horiz-adv-x="1160" 
d="M558 382q7 -7 22 -7q17 0 24 11q7 10 7 38v143q0 94 -8 128q-7 31 -30 31q-14 0 -24 -10q9 -99 9 -159v-175zM588 -31q-263 0 -415.5 155t-152.5 419q0 262 150 422.5t410 160.5q171 0 299 -76t194.5 -208.5t66.5 -302.5q0 -260 -146.5 -415t-405.5 -155zM535 1470
q77 54 166 54q80 0 136.5 -49.5t56.5 -129.5q0 -70 -40 -110.5t-113 -67.5l-28 -10q-70 14 -129 14q-145 0 -268 -53q-2 10 -7 24z" />
    <glyph glyph-name="ocircumflex" unicode="&#xf4;" horiz-adv-x="1160" 
d="M558 382q7 -7 22 -7q17 0 24 11q7 10 7 38v143q0 94 -8 128q-7 31 -30 31q-14 0 -24 -10q9 -99 9 -159v-175zM588 -31q-263 0 -415.5 155t-152.5 419q0 262 150 422.5t410 160.5q171 0 299 -76t194.5 -208.5t66.5 -302.5q0 -260 -146.5 -415t-405.5 -155zM539 1169
q-185 -10 -320 -103l127 389q39 22 100 34t114 12q140 0 217 -39l133 -381q-137 86 -320 90q-5 18 -11 38t-9.5 31t-4.5 16q-29 0 -35.5 -19t9.5 -68z" />
    <glyph glyph-name="otilde" unicode="&#xf5;" horiz-adv-x="1160" 
d="M558 382q7 -7 22 -7q17 0 24 11q7 10 7 38v143q0 94 -8 128q-7 31 -30 31q-14 0 -24 -10q9 -99 9 -159v-175zM20 551q0 228 124.5 384t346.5 185q108 -43 209 -43q53 0 90 14q170 -62 260 -211t90 -338q0 -262 -146 -417.5t-406 -155.5q-266 0 -417 157t-151 425z
M303 1115q-14 117 -14 201q0 96 45.5 151.5t139.5 55.5q58 0 130 -18q12 -4 17 -5q29 -12 54 -19h200q10 -67 10 -157q0 -91 -46 -146.5t-136 -55.5q-95 0 -178 30q-13 5 -39 14q-70 -8 -183 -51z" />
    <glyph glyph-name="odieresis" unicode="&#xf6;" horiz-adv-x="1160" 
d="M558 382q7 -7 22 -7q17 0 24 11q7 10 7 38v143q0 94 -8 128q-7 31 -30 31q-14 0 -24 -10q9 -99 9 -159v-175zM588 -31q-263 0 -415.5 155t-152.5 419q0 262 150 422.5t410 160.5q171 0 299 -76t194.5 -208.5t66.5 -302.5q0 -260 -146.5 -415t-405.5 -155zM416 1517
q100 0 159 -86q59 86 157 86q76 0 133 -54.5t57 -131.5q0 -75 -40 -125t-108 -63q-68 22 -148 26q-29 20 -49 49q-19 -30 -49 -49q-87 -6 -152 -28q-67 13 -107.5 64t-40.5 125q0 77 55.5 132t132.5 55z" />
    <glyph glyph-name="divide" unicode="&#xf7;" horiz-adv-x="1071" 
d="M317 270q0 20 3 41h453q4 -15 4 -41q0 -96 -65.5 -162t-161.5 -66t-164.5 66.5t-68.5 161.5zM550 704q-96 0 -164.5 66.5t-68.5 162.5t67 163.5t163 67.5q97 0 163.5 -67t66.5 -164q0 -96 -65.5 -162.5t-161.5 -66.5zM977 850q45 -65 64.5 -122t19.5 -127t-20 -126.5
t-64 -118.5h-884q-83 115 -83 244q0 128 83 250h193q32 -92 102 -140.5t168 -48.5q93 0 159.5 49.5t93.5 139.5h168z" />
    <glyph glyph-name="oslash" unicode="&#xf8;" horiz-adv-x="1156" 
d="M534 384q20 0 30 24l91 261q-13 12 -28 12q-14 0 -24 -10q-12 -10 -24 -50l-63 -189q-5 -18 -5 -24q0 -24 23 -24zM567 -18q-10 0 -13 1l-28 -60q-27 -3 -53 -3q-89 0 -173 34.5t-136 98.5l22 68q-168 155 -168 424q0 262 150.5 421.5t410.5 159.5h22q4 0 22 -2l20 47
q21 3 44 3q93 0 183.5 -35.5t142.5 -103.5l-26 -76q151 -163 151 -419q0 -258 -150.5 -408t-408.5 -150h-12z" />
    <glyph glyph-name="ugrave" unicode="&#xf9;" horiz-adv-x="1149" 
d="M568 436q13 0 26 10q-10 31 -10 103v494q106 64 255 64q82 0 146 -22t99 -60v-521q0 -149 72 -194q1 -3 1 -19v-18q0 -135 -69 -213t-201 -78q-79 0 -141 35.5t-92 101.5q-34 0 -34 -33q0 -23 23 -46q-43 -35 -92.5 -46.5t-116.5 -11.5q-88 0 -171 36q-81 34 -133 100
t-72 142t-20 167v251q-51 88 -51 196q0 131 59 219h220q126 0 195.5 -59.5t69.5 -176.5v-324q0 -97 37 -97zM208 1315q0 91 49.5 144t141.5 53q74 0 123 -34t103 -104l169 -226q-128 -10 -222 -61l-364 123v105z" />
    <glyph glyph-name="uacute" unicode="&#xfa;" horiz-adv-x="1149" 
d="M568 436q13 0 26 10q-10 31 -10 103v494q106 64 255 64q82 0 146 -22t99 -60v-521q0 -149 72 -194q1 -3 1 -19v-18q0 -135 -69 -213t-201 -78q-79 0 -141 35.5t-92 101.5q-34 0 -34 -33q0 -23 23 -46q-43 -35 -92.5 -46.5t-116.5 -11.5q-88 0 -171 36q-81 34 -133 100
t-72 142t-20 167v251q-51 88 -51 196q0 131 59 219h220q126 0 195.5 -59.5t69.5 -176.5v-324q0 -97 37 -97zM854 1345q0 -70 -40 -110.5t-113 -67.5l-228 -83q-73 54 -207 54l229 332q77 54 166 54q80 0 136.5 -49.5t56.5 -129.5z" />
    <glyph glyph-name="ucircumflex" unicode="&#xfb;" horiz-adv-x="1149" 
d="M541 1060q-55 75 -172 75h-153l104 320q39 22 100 34t114 12q140 0 217 -39l106 -310q-165 0 -273 -54q-30 100 -43 151q-2 6 -2 7q-21 0 -29 -7.5t-8 -27.5q0 -5 39 -161zM568 438q15 0 26 8q-10 31 -10 103v494q106 64 255 64q82 0 146 -22t99 -60v-521q0 -149 72 -194
q1 -3 1 -19v-18q0 -135 -69 -213t-201 -78q-79 0 -141 35.5t-92 101.5q-34 0 -34 -33q0 -23 23 -46q-43 -35 -92.5 -46.5t-116.5 -11.5q-88 0 -171 36q-81 34 -133 100t-72 142t-20 167v251q-51 88 -51 196q0 131 59 219h302q81 0 132 -40t51 -108v-412q0 -95 37 -95z" />
    <glyph glyph-name="udieresis" unicode="&#xfc;" horiz-adv-x="1149" 
d="M382 1517q100 0 159 -86q59 86 157 86q79 0 134.5 -55.5t55.5 -134.5q0 -82 -53 -135t-135 -53q-103 0 -157 79q-53 -81 -159 -81q-82 0 -136 53.5t-54 135.5q0 79 54.5 135t133.5 56zM568 436q13 0 26 10q-10 31 -10 103v494q106 64 255 64q82 0 146 -22t99 -60v-521
q0 -149 72 -194q1 -3 1 -19v-18q0 -135 -69 -213t-201 -78q-79 0 -141 35.5t-92 101.5q-34 0 -34 -33q0 -23 23 -46q-43 -35 -92.5 -46.5t-116.5 -11.5q-88 0 -171 36q-81 34 -133 100t-72 142t-20 167v251q-51 88 -51 196q0 131 59 219h220q126 0 195.5 -59.5t69.5 -176.5
v-324q0 -97 37 -97z" />
    <glyph glyph-name="yacute" unicode="&#xfd;" horiz-adv-x="1094" 
d="M520 482q0 -18 1 -23q12 -5 22 -5q29 0 29 44q0 142 17 306q18 167 35 244q82 59 216 59q136 0 209 -52t73 -127q0 -34 -37 -256q-40 -226 -105 -482q-26 -96 -57 -173.5t-79.5 -150t-108.5 -121t-145 -77.5t-187 -29q-160 0 -249 80q-81 72 -81 178q0 107 63 201
q18 4 46 4q45 0 109 -10q164 -31 169 -31q36 -4 38 -4q34 0 34 40l-236 45q-63 26 -112 89t-77.5 146.5t-44 154t-24.5 146.5q-66 86 -66 206t60 209h257q118 0 178 -59t75 -176q-22 -170 -22 -353v-23zM494 1470q76 54 166 54q80 0 136.5 -49.5t56.5 -129.5
q0 -70 -40 -110.5t-113 -67.5l-219 -80q-61 50 -205 50h-12z" />
    <glyph glyph-name="thorn" unicode="&#xfe;" horiz-adv-x="1127" 
d="M558 406q7 -7 22 -7q17 0 24 11q7 10 7 38v102q0 94 -8 128q-7 31 -30 31q-14 0 -24 -10q9 -99 9 -159v-134zM366 35q-7 -4 -7 -17q0 -30 45.5 -43t161.5 -19v-266q-102 -46 -226 -46q-62 0 -113 11t-95.5 35.5t-69.5 70.5t-25 111v1484q45 32 116 50.5t150 18.5
q67 0 142 -17.5t119 -51.5v-217q-121 -4 -207 -46q-26 -13 -36 -22.5t-10 -23.5q0 -17 13 -24q125 71 275 71q215 0 361 -152q147 -154 147 -391q0 -254 -132.5 -402t-383.5 -148q-145 0 -225 34z" />
    <glyph glyph-name="ydieresis" unicode="&#xff;" horiz-adv-x="1094" 
d="M384 1517q100 0 159 -86q59 86 157 86q79 0 134.5 -55.5t55.5 -134.5q0 -82 -53 -135t-135 -53q-103 0 -157 79q-53 -81 -159 -81q-82 0 -136 53.5t-54 135.5q0 79 54.5 135t133.5 56zM520 482q0 -18 1 -23q12 -5 22 -5q29 0 29 44q0 142 17 306q18 167 35 244
q82 59 216 59q136 0 209 -52t73 -127q0 -34 -37 -256q-40 -226 -105 -482q-26 -96 -57 -173.5t-79.5 -150t-108.5 -121t-145 -77.5t-187 -29q-160 0 -249 80q-81 72 -81 178q0 107 63 201q18 4 46 4q45 0 109 -10q164 -31 169 -31q36 -4 38 -4q34 0 34 40l-236 45
q-63 26 -112 89t-77.5 146.5t-44 154t-24.5 146.5q-66 86 -66 206t60 209h257q118 0 178 -59t75 -176q-22 -170 -22 -353v-23z" />
    <glyph glyph-name="Amacron" unicode="&#x100;" horiz-adv-x="1349" 
d="M653 657q10 -8 25 -8t29 7q-25 148 -35 180q-11 29 -33 29q-11 0 -24 -6zM455 357q-10 -13 -10 -26q0 -19 23 -33.5t57.5 -22.5t61 -12t45.5 -5q14 -145 28 -164q-19 -36 -105 -74q-83 -38 -194 -38q-142 0 -245 62q-102 62 -102 158q0 24 5 46l213 952q81 51 192 80
t230 29q71 0 140 -12t137.5 -38t118.5 -77.5t67 -121.5l228 -943q-103 -135 -339 -135q-44 0 -87 7.5t-86.5 24t-73.5 49t-38 77.5l-22 122q63 2 116 23q56 23 56 46q0 16 -13 26q-37 -26 -91 -40.5t-104 -14.5q-135 0 -208 55zM933 1626q61 -94 61 -181q0 -88 -34 -144
q-121 63 -301 63q-178 0 -331 -62q-32 59 -32 146t61 178h576z" />
    <glyph glyph-name="amacron" unicode="&#x101;" horiz-adv-x="1110" 
d="M1043 495q0 -73 16.5 -117t55.5 -68q1 -3 1 -19v-18q0 -128 -74 -209.5t-200 -81.5q-78 0 -140.5 36.5t-88.5 103.5q-34 0 -34 -33q0 -28 35 -63q-65 -44 -196 -44q-184 0 -295 100.5t-111 281.5q0 176 108 272t286 96q54 0 112 -8l20 -4t14 -3t5 -1q3 10 3 17
q0 44 -159 44q-152 0 -258 -61q-49 82 -49 210q0 72 18 107q185 84 417 84q252 0 383 -110t131 -316v-196zM524 446q-42 0 -42 -38q0 -36 49 -36q35 0 50.5 17t15.5 57h-73zM825 1445q39 -61 53 -124.5t5.5 -117.5t-35.5 -105q-122 63 -321 63q-146 0 -311 -47
q-28 62 -28 152q0 88 61 179h576z" />
    <glyph glyph-name="Abreve" unicode="&#x102;" horiz-adv-x="1349" 
d="M653 657q10 -8 25 -8t29 7q-25 148 -35 180q-11 29 -33 29q-11 0 -24 -6zM455 357q-10 -13 -10 -26q0 -19 23 -33.5t57.5 -22.5t61 -12t45.5 -5q14 -145 28 -164q-19 -36 -105 -74q-83 -38 -194 -38q-142 0 -245 62q-102 62 -102 158q0 24 5 46l213 952q81 51 192 80
t230 29q71 0 140 -12t137.5 -38t118.5 -77.5t67 -121.5l228 -943q-103 -135 -339 -135q-44 0 -87 7.5t-86.5 24t-73.5 49t-38 77.5l-22 122q63 2 116 23q56 23 56 46q0 16 -13 26q-37 -26 -91 -40.5t-104 -14.5q-135 0 -208 55zM353 1302q-67 63 -67 153q0 89 53 139
q52 49 103 49q28 -48 81 -77.5t124 -29.5q143 0 200 107q53 0 108 -49q56 -50 56 -134q0 -38 -19 -80t-49 -76q-133 51 -294 51q-160 0 -296 -53z" />
    <glyph glyph-name="abreve" unicode="&#x103;" horiz-adv-x="1110" 
d="M1043 495q0 -73 16.5 -117t55.5 -68q1 -3 1 -19v-18q0 -128 -74 -209.5t-200 -81.5q-78 0 -140.5 36.5t-88.5 103.5q-34 0 -34 -33q0 -28 35 -63q-65 -44 -196 -44q-184 0 -295 100.5t-111 281.5q0 176 108 272t286 96q54 0 112 -8l20 -4t14 -3t5 -1q3 10 3 17
q0 44 -159 44q-152 0 -258 -61q-49 82 -49 210q0 72 18 107q185 84 417 84q252 0 383 -110t131 -316v-196zM524 446q-42 0 -42 -38q0 -36 49 -36q35 0 50.5 17t15.5 57h-73zM362 1460q29 -49 86.5 -78t116.5 -29q67 0 121 28.5t81 78.5q53 0 108 -49q56 -50 56 -134
q0 -101 -91 -174q-119 58 -309 58q-136 0 -264 -32q-61 64 -61 149q0 83 53 133q52 49 103 49z" />
    <glyph glyph-name="Aogonek" unicode="&#x104;" horiz-adv-x="1349" 
d="M663 302q-135 0 -208 55q-10 -13 -10 -26q0 -19 23 -33.5t57.5 -22.5t61 -12t45.5 -5q14 -145 28 -164q-19 -36 -105 -74q-83 -38 -194 -38q-142 0 -245 62q-102 62 -102 158q0 24 5 46l213 952q81 51 192 80t230 29q71 0 140 -12t137.5 -38t118.5 -77.5t67 -121.5
l228 -943q-31 -48 -99 -84q-34 -19 -48 -36t-14 -41q0 -25 15.5 -39t40.5 -14q27 0 54 15q75 -44 75 -140q0 -70 -41 -117t-98.5 -65.5t-125.5 -18.5q-120 0 -205 63t-85 178q0 60 22 100t68 74q-161 32 -183 148l-22 122q59 1 112 24q50 20 50 45q0 16 -13 26
q-79 -55 -185 -55zM653 657q10 -8 25 -8t29 7q-25 148 -35 180q-11 29 -33 29q-11 0 -24 -6z" />
    <glyph glyph-name="aogonek" unicode="&#x105;" horiz-adv-x="1112" 
d="M526 445q-42 0 -42 -38q0 -36 49 -36q35 0 50.5 17t15.5 57h-73zM581 88q0 -25 33 -62q-65 -44 -196 -44q-184 0 -295 100.5t-111 281.5q0 176 108 272t286 96q54 0 112 -8l20 -4t14 -3t5 -1q3 10 3 17q0 44 -159 44q-152 0 -258 -61q-49 82 -49 210q0 72 18 107
q186 86 419 86q251 0 382.5 -111.5t131.5 -317.5v-196q0 -73 16.5 -117t55.5 -68q1 -3 1 -19v-18q0 -73 -25.5 -125.5t-77.5 -106.5q-44 -51 -44 -87q0 -23 15.5 -35.5t39.5 -12.5q28 0 55 15q75 -44 75 -139q0 -53 -25.5 -94t-68 -63.5t-89.5 -33.5t-97 -11
q-120 0 -205.5 63t-85.5 178q0 130 118 198q-65 34 -88 103q-34 0 -34 -33z" />
    <glyph glyph-name="Cacute" unicode="&#x106;" horiz-adv-x="1258" 
d="M670 398q10 0 18 5v91q72 50 197 77t232 27q54 -56 89 -162t37 -194q-21 -41 -69 -87t-113 -84q-167 -98 -381 -98q-313 0 -490.5 183.5t-177.5 497.5q0 320 200 503q87 81 203.5 123t247.5 42q252 0 413 -122t161 -301q0 -132 -81 -198t-227 -66q-77 0 -157 39
q-79 37 -94 72q0 82 3 129q-1 1 -7 1h-7q-16 0 -24 -9t-14 -35q-7 -25 -7 -147q0 -287 48 -287zM666 1367q-152 0 -285 -51l227 336q76 54 166 54q80 0 136.5 -49.5t56.5 -129.5q0 -66 -37 -106.5t-113 -70.5q-76 17 -151 17z" />
    <glyph glyph-name="cacute" unicode="&#x107;" horiz-adv-x="1074" 
d="M589 -31q-264 0 -416.5 162.5t-152.5 428.5q0 270 175 427q157 140 390 140q72 0 140.5 -13.5t131 -44t109 -74t74 -107.5t27.5 -142q0 -123 -75.5 -199t-198.5 -76q-94 0 -163 51t-82 142q-44 0 -44 -32q0 -72 72 -134q82 -72 207 -72q122 0 204 53q50 -77 50 -187
q0 -127 -110 -219q-127 -104 -338 -104zM733 1159q-66 13 -148 13q-150 0 -285 -63l249 361q76 54 166 54q80 0 136.5 -49.5t56.5 -129.5q0 -69 -39.5 -110.5t-135.5 -75.5z" />
    <glyph glyph-name="Ccaron" unicode="&#x10c;" horiz-adv-x="1258" 
d="M670 398q10 0 18 5v91q72 50 197 77t232 27q54 -56 89 -162t37 -194q-21 -41 -69 -87t-113 -84q-167 -98 -381 -98q-313 0 -490.5 183.5t-177.5 497.5q0 320 200 503q87 81 203.5 123t247.5 42q252 0 413 -122t161 -301q0 -132 -81 -198t-227 -66q-77 0 -157 39
q-79 37 -94 72q0 82 3 129q-1 1 -7 1h-7q-16 0 -24 -9t-14 -35q-7 -25 -7 -147q0 -287 48 -287zM856 1346q-95 21 -212 21q-119 0 -224 -34q-45 77 -66 119q-20 38 -51 93q-32 59 -16.5 97.5t79.5 38.5h197l62 -115q45 0 45 36q0 16 -31 79h72q59 0 76 1h108q33 0 54 -19.5
t21 -51.5q0 -47 -114 -265z" />
    <glyph glyph-name="ccaron" unicode="&#x10d;" horiz-adv-x="1074" 
d="M589 -31q-264 0 -416.5 162.5t-152.5 428.5q0 270 175 427q157 140 390 140q72 0 140.5 -13.5t131 -44t109 -74t74 -107.5t27.5 -142q0 -123 -75.5 -199t-198.5 -76q-94 0 -163 51t-82 142q-44 0 -44 -32q0 -72 72 -134q82 -72 207 -72q122 0 204 53q50 -77 50 -187
q0 -127 -110 -219q-127 -104 -338 -104zM354 1131q-62 107 -128 231q-32 59 -16.5 97.5t79.5 38.5h197l62 -115q45 0 45 36q0 16 -31 79h72q59 0 76 1h108q33 0 54 -20t21 -55q0 -37 -79 -192q-32 -62 -42 -84q-86 24 -182 24q-121 0 -236 -41z" />
    <glyph glyph-name="Dcaron" unicode="&#x10e;" horiz-adv-x="1264" 
d="M637 690q0 100 -9 137.5t-33 37.5q-16 0 -27 -10q2 -18 6 -48q4 -27 4 -128v-65q0 -68 -3 -99q-5 -51 -5 -53q0 -4 -1 -12t-1 -12q11 -10 27 -10q24 0 33 37.5t9 137.5v87zM264 -1q-112 0 -172 59.5t-60 177.5v900q0 76 153 129q150 52 340 52q338 0 527.5 -169
t189.5 -504q0 -162 -54.5 -287t-153 -202.5t-229 -116.5t-288.5 -39h-253zM363 1351q-36 61 -59 106q-69 115 -69 159q0 29 22 47t63 18h197l62 -115q45 0 45 36q0 16 -31 79h72q59 0 76 1h108q32 0 53.5 -19.5t21.5 -48.5q0 -30 -22 -78q-26 -58 -56 -116l-45 -90
q-142 32 -253 32t-185 -11z" />
    <glyph glyph-name="dcaron" unicode="&#x10f;" horiz-adv-x="1550" 
d="M592 709q-10 10 -24 10q-23 0 -30 -31q-8 -34 -8 -128v-102q0 -49 30 -49q16 0 23 7v134q0 98 9 159zM520 1300q55 65 119.5 95t160.5 30q99 0 168 -46.5t93 -132.5q29 54 85.5 83.5t129.5 29.5q124 0 193 -84t69 -211q0 -160 -93 -251q-84 -84 -203 -84q-79 0 -117 44
v134q40 -17 93 -17q109 0 109 41q0 9 -8 23q-37 -19 -93 -19q-100 0 -154 73v-504q0 -149 72 -194q1 -3 1 -19v-18q0 -128 -74 -209.5t-200 -81.5q-77 0 -139.5 35t-89.5 102q-34 0 -34 -33q0 -37 43 -69q-59 -35 -153 -35q-127 0 -237 59q-67 36 -117 91.5t-78.5 123
t-42 139t-13.5 149.5q0 256 144 402q143 146 366 146q132 0 230 -50q11 11 11 23q0 35 -80 53.5t-134 18.5q0 101 -27 163z" />
    <glyph glyph-name="Dcroat" unicode="&#x110;" horiz-adv-x="1395" 
d="M709 387q29 0 57 49q44 83 44 200t-44 211q-20 42 -51 42q-16 0 -30 -20q50 -60 65 -164t-25 -223q-26 -58 -45 -77q10 -18 29 -18zM164 1136q0 48 74 89q79 43 192.5 63t225.5 20q342 0 529.5 -170.5t187.5 -509.5q0 -159 -56 -281.5t-155.5 -197.5t-229 -112.5
t-284.5 -37.5h-253q-112 0 -171.5 59.5t-59.5 177.5v165h-63q-33 33 -56 95t-23 135q0 158 72 246h176q0 23 -9 34t-32 11h-65v214z" />
    <glyph glyph-name="dcroat" unicode="&#x111;" horiz-adv-x="1163" 
d="M582 669q-10 10 -24 10q-23 0 -30 -31q-8 -34 -8 -128v-62q0 -49 30 -49q16 0 23 7v94q0 98 9 159zM10 530q0 151 59 273t184 184q105 50 204 50h12q7 0 9 -1q2 8 3.5 17t-11 16.5t-38.5 7.5q-78 0 -151 -29q0 106 61 194h184q-1 14 -1 65v59q43 27 116.5 43t132.5 16
q51 0 95.5 -8t87.5 -26.5t68.5 -56.5t26.5 -92h48q120 -188 0 -376h-125q-7 -21 2 -33t47 -12h38v-317q0 -149 72 -194q1 -3 1 -19v-18q0 -128 -74 -209.5t-200 -81.5q-77 0 -139.5 35t-89.5 102q-34 0 -34 -33q0 -37 43 -69q-56 -35 -143 -35q-115 0 -208.5 42.5t-154 117
t-93 174t-32.5 214.5z" />
    <glyph glyph-name="Emacron" unicode="&#x112;" horiz-adv-x="1112" 
d="M1059 1290q57 -94 57 -206q0 -100 -39 -151.5t-111 -51.5h-403q-37 0 -37 -29v-8q0 -6 2 -8h478q43 -76 43 -169q0 -118 -44 -186h-217q-149 0 -206 -11q-52 -11 -67 -20q-13 -9 -13 -23t14 -22q99 31 272 31h281q61 -85 61 -207q0 -153 -68 -230h-749q-125 0 -203 63
t-78 185v951q0 48 109.5 70t340.5 22h577zM216 1438q0 97 61 188h576q61 -94 61 -188q0 -52 -18 -103h-414q-137 0 -245 -9q-21 50 -21 112z" />
    <glyph glyph-name="emacron" unicode="&#x113;" horiz-adv-x="1132" 
d="M621 -31q-274 0 -437.5 153.5t-163.5 425.5q0 270 169 427q156 147 395 147q238 0 384 -131q144 -132 144 -324q0 -73 -22.5 -131t-61 -96.5t-92.5 -64.5t-114 -37t-129 -11q-142 0 -240 59q-8 -6 -8 -22q0 -30 79 -55q80 -27 180 -27q83 0 168.5 21.5t146.5 64.5
q26 -22 39.5 -78t13.5 -102q0 -47 -9 -83q-91 -77 -198 -106.5t-244 -29.5zM608 646q50 0 50 38q0 36 -53 36t-61 -57q29 -17 64 -17zM852 1444q110 -173 24 -335q-124 64 -299 64q-176 0 -315 -85q-49 75 -47 171.5t61 184.5h576z" />
    <glyph glyph-name="Ebreve" unicode="&#x114;" horiz-adv-x="1112" 
d="M1059 1290q57 -94 57 -206q0 -100 -39 -151.5t-111 -51.5h-403q-37 0 -37 -29v-8q0 -6 2 -8h478q43 -76 43 -169q0 -118 -44 -186h-217q-149 0 -206 -11q-52 -11 -67 -20q-13 -9 -13 -23t14 -22q99 31 272 31h281q61 -85 61 -207q0 -153 -68 -230h-749q-125 0 -203 63
t-78 185v951q0 48 109.5 70t340.5 22h577zM476 1335q-110 0 -218 -9q-47 53 -47 136q0 81 53 131q52 49 103 49q28 -48 81 -77.5t124 -29.5q143 0 200 107q53 0 108 -49q56 -50 56 -134q0 -68 -41 -124h-419z" />
    <glyph glyph-name="ebreve" unicode="&#x115;" horiz-adv-x="1132" 
d="M621 -31q-274 0 -437.5 153.5t-163.5 425.5q0 270 169 427q156 147 395 147q238 0 384 -131q144 -132 144 -324q0 -73 -22.5 -131t-61 -96.5t-92.5 -64.5t-114 -37t-129 -11q-142 0 -240 59q-8 -6 -8 -22q0 -30 79 -55q80 -27 180 -27q83 0 168.5 21.5t146.5 64.5
q26 -22 39.5 -78t13.5 -102q0 -47 -9 -83q-91 -77 -198 -106.5t-244 -29.5zM608 646q50 0 50 38q0 36 -53 36t-61 -57q29 -17 64 -17zM272 1415q48 45 99 45q29 -49 86.5 -78t116.5 -29q67 0 121 28.5t81 78.5q52 0 103 -45q61 -54 61 -142t-77 -159q-121 59 -277 59
q-159 0 -288 -64q-83 71 -83 162t57 144z" />
    <glyph glyph-name="Edotaccent" unicode="&#x116;" horiz-adv-x="1112" 
d="M1059 1290q57 -94 57 -206q0 -100 -39 -151.5t-111 -51.5h-403q-37 0 -37 -29v-8q0 -6 2 -8h478q43 -76 43 -169q0 -118 -44 -186h-217q-149 0 -206 -11q-52 -11 -67 -20q-13 -9 -13 -23t14 -22q99 31 272 31h281q61 -85 61 -207q0 -153 -68 -230h-749q-125 0 -203 63
t-78 185v951q0 79 335 90q17 -30 64 -57q61 -36 139 -36q62 0 119 24t87 71h283zM350 1460q0 93 64 158.5t157 65.5t158 -65.5t65 -158.5q0 -95 -63.5 -157.5t-158.5 -62.5t-158.5 63t-63.5 157z" />
    <glyph glyph-name="edotaccent" unicode="&#x117;" horiz-adv-x="1132" 
d="M608 646q50 0 50 38q0 36 -53 36t-61 -57q29 -17 64 -17zM591 1012q123 0 195 81q149 -51 237.5 -162t88.5 -264q0 -73 -22.5 -131t-61 -96.5t-92.5 -64.5t-114 -37t-129 -11q-142 0 -240 59q-8 -6 -8 -22q0 -30 79 -55q80 -27 180 -27q83 0 168.5 21.5t146.5 64.5
q26 -22 39.5 -78t13.5 -102q0 -47 -9 -83q-91 -77 -198 -106.5t-244 -29.5q-273 0 -437 152.5t-164 423.5q0 198 94 344.5t277 203.5q30 -35 82.5 -58t117.5 -23zM367 1278q0 93 64 158.5t157 65.5t158 -65.5t65 -158.5q0 -95 -63.5 -157.5t-158.5 -62.5t-158.5 63
t-63.5 157z" />
    <glyph glyph-name="Eogonek" unicode="&#x118;" horiz-adv-x="1112" 
d="M1020 -1q-42 0 -62 -16.5t-18.5 -35.5t14.5 -32q14 -12 40 -12q28 0 56 15q75 -43 75 -140q0 -53 -23.5 -93.5t-63 -63t-85 -33.5t-95.5 -11q-121 0 -204.5 61.5t-83.5 178.5q0 119 89 182h-346q-125 0 -203 63t-78 185v951q0 48 109.5 70t340.5 22h577q57 -94 57 -206
q0 -100 -39 -151.5t-111 -51.5h-403q-37 0 -37 -29v-8q0 -6 2 -8h478q43 -76 43 -169q0 -118 -44 -186h-217q-149 0 -206 -11q-52 -11 -67 -20q-13 -9 -13 -23t14 -22q99 31 272 31h281q61 -85 61 -207q0 -153 -68 -230h-42z" />
    <glyph glyph-name="eogonek" unicode="&#x119;" horiz-adv-x="1132" 
d="M1063 105q-62 -53 -148 -90q-60 -24 -60 -67q0 -20 15 -32.5t38 -12.5q24 0 53 15q75 -43 75 -140q0 -53 -23.5 -93.5t-63 -63t-85 -33.5t-95.5 -11q-58 0 -108.5 14.5t-91.5 43t-64.5 76t-23.5 107.5q0 135 117 198q-1 34 -29 34q-20 0 -47.5 -20t-46.5 -48
q-217 38 -336 189t-119 374q0 273 169 430q156 147 395 147q238 0 384 -131q144 -132 144 -324q0 -73 -22.5 -131t-61 -96.5t-92.5 -64.5t-114 -37t-129 -11q-142 0 -240 59q-8 -6 -8 -22q0 -30 79 -55q80 -27 180 -27q83 0 168.5 21.5t146.5 64.5q26 -22 39.5 -78
t13.5 -102q0 -47 -9 -83zM608 646q50 0 50 38q0 36 -53 36t-61 -57q29 -17 64 -17z" />
    <glyph glyph-name="Ecaron" unicode="&#x11a;" horiz-adv-x="1112" 
d="M1059 1290q57 -94 57 -206q0 -100 -39 -151.5t-111 -51.5h-403q-37 0 -37 -29v-8q0 -6 2 -8h478q43 -76 43 -169q0 -118 -44 -186h-217q-149 0 -206 -11q-52 -11 -67 -20q-13 -9 -13 -23t14 -22q99 31 272 31h281q61 -85 61 -207q0 -153 -68 -230h-749q-125 0 -203 63
t-78 185v951q0 48 109.5 70t340.5 22h577zM481 1335q-96 0 -132 -4q-23 37 -26 45q-1 3 -4.5 9t-9.5 17t-11 20q-12 21 -66 124q-33 58 -16.5 96.5t79.5 38.5h197l62 -115q45 0 45 36q0 16 -31 79h72q59 0 76 1h108q33 0 54 -20t21 -55q0 -38 -85 -205q-19 -41 -34 -67h-299
z" />
    <glyph glyph-name="ecaron" unicode="&#x11b;" horiz-adv-x="1132" 
d="M621 -31q-274 0 -437.5 153.5t-163.5 425.5q0 270 169 427q156 147 395 147q238 0 384 -131q144 -132 144 -324q0 -73 -22.5 -131t-61 -96.5t-92.5 -64.5t-114 -37t-129 -11q-142 0 -240 59q-8 -6 -8 -22q0 -30 79 -55q80 -27 180 -27q83 0 168.5 21.5t146.5 64.5
q26 -22 39.5 -78t13.5 -102q0 -47 -9 -83q-91 -77 -198 -106.5t-244 -29.5zM608 646q50 0 50 38q0 36 -53 36t-61 -57q29 -17 64 -17zM378 1137q-56 96 -124 225q-32 59 -16.5 97.5t79.5 38.5h197l62 -115q45 0 45 36q0 16 -31 79h72q59 0 76 1h108q33 0 54 -19.5t21 -51.5
q0 -47 -109 -255q-12 -23 -17 -34q-91 33 -208 33q-115 0 -209 -35z" />
    <glyph glyph-name="Gbreve" unicode="&#x11e;" horiz-adv-x="1344" 
d="M1285 833q57 -83 57 -201q0 -120 -49 -193h-41v-300q-196 -171 -520 -171q-156 0 -286 44.5t-224.5 128.5t-147 213t-52.5 291q0 322 188 499.5t512 177.5q139 0 281.5 -41.5t235.5 -122.5q0 -63 -14 -148t-37 -132h-527q-37 -38 -63 -103t-26 -142q0 -96 47 -167
t138 -71q32 0 32 22v23h-11q-68 0 -110.5 52.5t-42.5 146.5q0 121 67 194h593zM286 1460q0 84 53 134q52 49 103 49q28 -48 81 -77.5t124 -29.5q143 0 200 107q53 0 108 -49q56 -50 56 -128t-50 -128q-116 29 -244 29q-189 0 -351 -68q-38 26 -59 71.5t-21 89.5z" />
    <glyph glyph-name="gbreve" unicode="&#x11f;" horiz-adv-x="1129" 
d="M597 717q0 36 -27 36q-25 0 -25 -30v-103q9 -7 22 -7q18 0 24 12t6 44v48zM1056 1161q60 -52 60 -152q0 -53 -10.5 -86.5t-34.5 -74.5q26 -67 26 -164q0 -78 -25.5 -141.5t-68.5 -106t-103 -71t-126 -41t-140 -12.5q-64 0 -109 9q-3 -9 -3 -17q0 -37 112 -37
q158 0 266 46q104 -28 160.5 -110.5t56.5 -192.5q0 -86 -35 -155t-91 -112t-131 -72t-150.5 -40.5t-153.5 -11.5q-249 0 -383 88q-125 80 -125 208q0 44 21 91t55 66q56 -47 156.5 -70.5t191.5 -23.5q101 0 133 8q29 8 29 28q0 10 -6 20q-52 -11 -125 -11q-57 0 -110 5
t-115 21.5t-107 43t-75 74t-30 110.5q0 54 21.5 98t61.5 65q-59 36 -95.5 106.5t-36.5 166.5q0 80 25 147t69 114t104 80.5t128.5 50.5t144.5 21q0 3 0.5 6t1 5t0.5 3q0 30 -51 30q-79 0 -177 -40q-59 65 -59 149q0 82 53 132q52 49 103 49q29 -49 86.5 -78t116.5 -29
q67 0 121 28.5t81 78.5q53 0 108 -49q56 -50 56 -126q0 -78 -37 -124h165z" />
    <glyph glyph-name="uni0122" unicode="&#x122;" horiz-adv-x="1344" 
d="M1285 833q57 -83 57 -201q0 -120 -49 -193h-41v-300q-87 -77 -210 -120q-14 40 -50 87.5t-69 47.5q-25 0 -40 -21q62 -38 94.5 -105t32.5 -154q0 -160 -93 -251q-84 -84 -203 -84q-69 0 -107 34t-38 84q0 48 13 67q12 -9 48 -16.5t74 -7.5q41 0 68 11t27 30q0 9 -8 23
q-37 -19 -93 -19q-86 0 -139 55.5t-53 141.5q0 32 5 55q-239 57 -364 227t-125 421q0 326 194 502q193 175 511 175q136 0 278 -42t234 -122q0 -63 -14 -148t-37 -132h-527q-37 -38 -63 -103t-26 -142q0 -96 47 -167t138 -71q32 0 32 22v23h-11q-68 0 -110.5 52.5
t-42.5 146.5q0 121 67 194h593z" />
    <glyph glyph-name="uni0123" unicode="&#x123;" horiz-adv-x="1129" 
d="M597 717q0 36 -27 36q-25 0 -25 -30v-103q9 -7 22 -7q18 0 24 12t6 44v48zM515 1325q0 -9 8 -23q37 19 100 19q71 0 121 -44.5t61 -115.5h251q60 -52 60 -145q0 -92 -45 -168q26 -67 26 -164q0 -78 -25.5 -141.5t-68.5 -106t-103 -71t-126 -41t-140 -12.5q-64 0 -109 9
q-3 -9 -3 -17q0 -37 112 -37q158 0 266 46q104 -28 160.5 -110.5t56.5 -192.5q0 -86 -35 -155t-91 -112t-131 -72t-150.5 -40.5t-153.5 -11.5q-249 0 -383 88q-125 80 -125 208q0 44 21 91t55 66q56 -47 156.5 -70.5t191.5 -23.5q101 0 133 8q29 8 29 28q0 10 -6 20
q-52 -11 -125 -11q-57 0 -110 5t-115 21.5t-107 43t-75 74t-30 110.5q0 54 21.5 98t61.5 65q-59 36 -95.5 106.5t-36.5 166.5q0 128 65 223t183 144q6 -18 14.5 -37.5t21.5 -43.5t30 -39.5t33 -15.5q19 0 28 18q-88 82 -88 236q0 153 93 246q86 83 203 83q68 0 106.5 -34.5
t38.5 -83.5q0 -48 -13 -67q-56 24 -108 24q-109 0 -109 -41z" />
    <glyph glyph-name="Itilde" unicode="&#x128;" horiz-adv-x="648" 
d="M616 76q-108 -94 -310 -94q-66 0 -125.5 18.5t-104 65.5t-44.5 115v1033q67 59 177 82q85 -31 106 -37q49 -14 122 -16q56 0 93 17q86 -56 86 -151v-1033zM437 1274q91 0 138 54.5t47 147.5q0 90 -10 157h-200q-25 7 -54 19q-57 23 -140 23q-192 0 -192 -207v-40
q0 -53 5 -96h165q6 -2 23.5 -9t41.5 -15.5t54 -17.5q49 -14 122 -16z" />
    <glyph glyph-name="itilde" unicode="&#x129;" horiz-adv-x="612" 
d="M37 1050q79 44 180 54q-9 3 -23.5 9t-20.5 8h-165q-5 43 -5 96v40q0 207 192 207q83 0 140 -23q29 -12 54 -19h200q10 -67 10 -157q0 -75 -32 -128t-101 -69q38 -20 59 -59t21 -84v-421q0 -149 72 -194q1 -3 1 -19v-18q0 -135 -71.5 -213t-205.5 -78q-146 0 -225.5 90.5
t-79.5 239.5v738z" />
    <glyph glyph-name="Imacron" unicode="&#x12a;" horiz-adv-x="648" 
d="M616 76q-108 -94 -310 -94q-66 0 -125.5 18.5t-104 65.5t-44.5 115v1033q108 94 309 94q49 0 95.5 -11t88 -33.5t66.5 -62.5t25 -92v-1033zM606 1626q61 -95 61 -185.5t-59 -188.5q-38 45 -111.5 73t-164.5 28q-186 0 -311 -90q-53 82 -52 178t61 185h576z" />
    <glyph glyph-name="imacron" unicode="&#x12b;" horiz-adv-x="612" 
d="M37 1050q103 57 240 57q51 0 94.5 -8t85 -26.5t65.5 -56t24 -91.5v-421q0 -149 72 -194q1 -3 1 -19v-18q0 -135 -71.5 -213t-205.5 -78q-146 0 -225.5 90.5t-79.5 239.5v738zM-12 1077q-55 76 -55 176t61 191h566q61 -94 60.5 -189.5t-65.5 -197.5q-71 95 -278 95
q-159 0 -289 -75z" />
    <glyph glyph-name="Iogonek" unicode="&#x12e;" horiz-adv-x="648" 
d="M616 76q-55 -47 -145 -74q-21 -19 -22 -46t15 -40q14 -13 40 -13q28 0 55 15q75 -43 75 -140q0 -70 -41 -117t-98.5 -65.5t-125.5 -18.5q-120 0 -205 63t-85 178q0 124 105 183q-152 48 -152 180v1033q108 94 309 94q49 0 95.5 -11t88 -33.5t66.5 -62.5t25 -92v-1033z
" />
    <glyph glyph-name="iogonek" unicode="&#x12f;" horiz-adv-x="612" 
d="M181 21q-144 83 -144 291v650q14 10 44 23.5t39 17.5q-53 27 -83 84.5t-30 119.5q0 124 81.5 205t205.5 81q123 0 203 -81.5t80 -204.5q0 -96 -60 -171.5t-153 -95.5q0 -38 29 -38q52 0 104 40q39 -30 49 -42v-396q0 -149 72 -194q1 -3 1 -19v-18q0 -105 -46 -180
t-142 -99q-10 -13 -9 -39t15 -39t40 -13q28 0 55 15q75 -43 75 -140q0 -70 -41 -117t-98.5 -65.5t-125.5 -18.5q-120 0 -205 63t-85 178q0 136 129 203z" />
    <glyph glyph-name="Idotaccent" unicode="&#x130;" horiz-adv-x="648" 
d="M32 1214q38 35 95 57q29 -32 80.5 -54t108.5 -22q126 0 193 76q107 -53 107 -162v-1033q-108 -94 -310 -94q-66 0 -125.5 18.5t-104 65.5t-44.5 115v1033zM94 1460q0 93 64 158.5t157 65.5t158 -65.5t65 -158.5q0 -95 -63.5 -157.5t-158.5 -62.5t-158.5 63t-63.5 157z
" />
    <glyph glyph-name="dotlessi" unicode="&#x131;" horiz-adv-x="612" 
d="M37 1050q103 57 240 57q51 0 94.5 -8t85 -26.5t65.5 -56t24 -91.5v-421q0 -149 72 -194q1 -3 1 -19v-18q0 -135 -71.5 -213t-205.5 -78q-146 0 -225.5 90.5t-79.5 239.5v738z" />
    <glyph glyph-name="uni0136" unicode="&#x136;" horiz-adv-x="1188" 
d="M460 158q0 -14 9 -24q59 35 138 35q124 0 193 -84t69 -211q0 -160 -93 -251q-84 -84 -203 -84q-69 0 -107 34t-38 84q0 48 13 67q12 -9 48 -16.5t74 -7.5q41 0 68 11t27 30q0 9 -8 23q-37 -19 -93 -19q-86 0 -139 55.5t-53 141.5l5 42q-46 -2 -52 -2q-50 0 -98 10.5
t-91.5 32t-70 62.5t-26.5 95v1032q103 94 313 94q41 0 79 -6.5t73.5 -22.5t61.5 -39t41.5 -59t15.5 -81v-45q-76 -160 -81 -185q-1 -5 -1 -8q0 -29 33 -29l197 432q69 45 189 45q126 0 212.5 -72t86.5 -196q0 -113 -77 -216t-187 -174q-55 31 -99 31t-44 -43q57 -11 91 -29
t81 -60l266 -245q-29 -324 -324 -324q-29 0 -53 7q-35 104 -99.5 161.5t-170.5 66.5l-101 251h-5q-33 0 -33 -28q0 -22 84 -224q-121 -16 -121 -58z" />
    <glyph glyph-name="uni0137" unicode="&#x137;" horiz-adv-x="1134" 
d="M916 -15q-42 115 -116 173.5t-194 58.5q-6 0 -36 -2q-27 73 -36 161l-44 -21q1 -76 20 -152q-50 -17 -50 -45q0 -14 9 -24q59 35 138 35q124 0 193 -84t69 -211q0 -160 -93 -251q-84 -84 -203 -84q-69 0 -107 34t-38 84q0 48 13 67q12 -9 48 -16.5t74 -7.5q41 0 68 11
t27 30q0 9 -8 23q-37 -19 -93 -19q-86 0 -139 55.5t-53 141.5q0 32 4 47q-32 -7 -71 -7q-102 0 -181.5 57t-79.5 155v1167q111 64 252 64q51 0 97 -10t87.5 -31.5t66 -61.5t24.5 -94v-106q0 -131 -47 -260q-4 -5 -31.5 -37t-36.5 -45q-15 -20 -14 -35t24 -26q83 78 126 166
t78 221q34 6 87 15q39 6 55 6q153 0 239.5 -70.5t86.5 -193.5q0 -121 -72 -204.5t-193 -125.5q92 -54 232 -77q54 -97 54 -203q0 -111 -63 -183t-173 -85z" />
    <glyph glyph-name="Lacute" unicode="&#x139;" horiz-adv-x="1068" 
d="M264 -1q-112 0 -172 59.5t-60 177.5v978q53 45 129.5 69.5t158.5 24.5q80 0 145.5 -25.5t108 -83.5t42.5 -139v-547q-44 -3 -104 -28t-60 -58q0 -17 19 -29q100 83 294 83h237q66 -115 66 -237q0 -61 -21 -133t-56 -112h-727zM292 1652q76 54 166 54q80 0 136.5 -49.5
t56.5 -129.5q0 -70 -40 -110.5t-113 -67.5l-41 -15q-56 19 -145 19q-131 0 -238 -55q-2 5 -3 10t-5 16z" />
    <glyph glyph-name="lacute" unicode="&#x13a;" horiz-adv-x="612" 
d="M546 504q0 -149 72 -194q1 -3 1 -19v-18q0 -142 -72 -216.5t-206 -74.5q-152 0 -228 91.5t-76 248.5v1039q104 64 241 64q121 0 194.5 -51.5t73.5 -166.5v-703zM284 1469q-117 0 -228 -50q-4 11 -6 21l226 328q76 54 166 54q80 0 136.5 -49.5t56.5 -129.5q0 -69 -42 -110
t-116 -70l-43 -17q-66 23 -150 23z" />
    <glyph glyph-name="uni013B" unicode="&#x13b;" horiz-adv-x="1068" 
d="M1068 244q0 -61 -21 -133t-56 -112h-196q-14 51 -39 87t-45 36q-21 0 -32 -18q89 -83 89 -237q0 -153 -93 -244q-84 -84 -203 -84q-69 0 -107 34t-38 84q0 48 13 67q12 -9 48 -16.5t74 -7.5q41 0 68 11t27 30q0 9 -8 23q-37 -19 -93 -19q-86 0 -139 55.5t-53 141.5
q0 32 6 57h-6q-112 0 -172 59.5t-60 177.5v978q53 45 129.5 69.5t158.5 24.5q80 0 145.5 -25.5t108 -83.5t42.5 -139v-547q-44 -3 -104 -28t-60 -58q0 -17 19 -29q100 83 294 83h237q66 -115 66 -237z" />
    <glyph glyph-name="uni013C" unicode="&#x13c;" horiz-adv-x="612" 
d="M546 504q0 -149 72 -194q1 -3 1 -19v-18q0 -171 -105 -245q34 -61 34 -154q0 -160 -93 -251q-84 -84 -203 -84q-69 0 -107 34t-38 84q0 48 13 67q12 -9 48 -16.5t74 -7.5q41 0 68 11t27 30q0 9 -8 23q-37 -19 -93 -19q-86 0 -139 55.5t-53 141.5q0 143 121 201
q-4 19 -11.5 26t-26.5 7q-20 0 -54 -34q-36 80 -36 180v1039q104 64 241 64q121 0 194.5 -51.5t73.5 -166.5v-703z" />
    <glyph glyph-name="Lcaron" unicode="&#x13d;" horiz-adv-x="1068" 
d="M264 -1q-112 0 -172 59.5t-60 177.5v978q53 45 129.5 69.5t159.5 24.5q84 0 153 -31.5t109 -92.5q17 85 82 130t155 45q124 0 193 -84t69 -211q0 -160 -93 -251q-84 -84 -203 -84q-79 0 -117 44v134q40 -17 93 -17q109 0 109 41q0 9 -8 23q-37 -19 -93 -19
q-100 0 -154 73v-495q-44 -3 -104 -28t-60 -58q0 -17 19 -29q100 83 294 83h237q66 -115 66 -237q0 -61 -21 -133t-56 -112h-727z" />
    <glyph glyph-name="lcaron" unicode="&#x13e;" horiz-adv-x="1023" 
d="M274 1425q234 0 267 -165q73 99 202 99q128 0 198 -82.5t70 -212.5q0 -160 -93 -251q-84 -84 -203 -84q-79 0 -117 44v134q40 -17 93 -17q109 0 109 41q0 9 -8 23q-37 -19 -93 -19q-97 0 -153 71v-502q0 -149 72 -194q1 -3 1 -19v-18q0 -142 -72 -216.5t-206 -74.5
q-152 0 -228 91.5t-76 248.5v1039q104 64 237 64z" />
    <glyph glyph-name="Lslash" unicode="&#x141;" horiz-adv-x="1200" 
d="M396 -1q-112 0 -172 59.5t-60 177.5v155q-77 55 -114.5 156t-37.5 209q0 16 2 50l273 108q0 35 -35 35q-18 0 -50 -13q-11 -6 -39 -16v294q53 44 130 69t159 25q53 0 98 -8t89.5 -26.5t72.5 -56.5t34 -92q11 4 34 13q73 -56 112.5 -153t39.5 -212q0 -16 -2 -50l-303 -120
q0 -34 35 -34q18 0 85 22v-124q59 14 149 14h238q66 -115 66 -237q0 -61 -21 -133t-56 -112h-727z" />
    <glyph glyph-name="lslash" unicode="&#x142;" horiz-adv-x="908" 
d="M754 1181q73 -56 112.5 -153t39.5 -212q0 -16 -2 -50l-303 -121q0 -31 32 -31q21 0 67 17v-126q0 -149 72 -194q1 -3 1 -19v-18q0 -142 -72 -216.5t-206 -74.5q-152 0 -228 91.5t-76 248.5v128q-75 56 -114.5 159t-39.5 208q0 16 2 50l264 104q-2 35 -31 35
q-24 0 -80 -25v379q104 64 241 64q121 0 194.5 -51.5t73.5 -166.5v-46z" />
    <glyph glyph-name="Nacute" unicode="&#x143;" horiz-adv-x="1246" 
d="M331 -18q-120 0 -198.5 24.5t-100.5 62.5v1128q0 32 30.5 56t76 35t84 15.5t68.5 4.5q145 0 233 -60q51 -64 223 -353q12 0 20.5 7.5t8.5 21.5q0 15 -25 56l-108 186v55q51 42 123.5 65t151.5 23q46 0 86.5 -6t80 -21.5t67.5 -39.5t45 -62.5t17 -88.5v-947
q0 -43 -27 -76.5t-69.5 -51t-85.5 -26t-83 -8.5q-71 0 -112.5 5t-97.5 24q-102 131 -216 324q-14 23 -44 73q-29 -5 -29 -31q0 -16 29 -65l104 -166v-106q-91 -58 -252 -58zM936 1527q0 -123 -168 -184l-196 -71l-21 22q-87 46 -182 56l208 302q76 54 166 54
q80 0 136.5 -49.5t56.5 -129.5z" />
    <glyph glyph-name="nacute" unicode="&#x144;" horiz-adv-x="1155" 
d="M582 83q-98 -101 -275 -101q-102 0 -181.5 57t-79.5 155v484q-59 83 -59 205q0 121 59 210h224l259 377q77 54 166 54q80 0 136.5 -49.5t56.5 -129.5q0 -66 -39.5 -116t-104.5 -69q-30 2 -31 2h-32q-102 0 -193 -34t-151 -103q-29 -34 -29 -56q0 -28 34 -28
q47 81 132 128.5t196 47.5q205 0 314 -108t109 -309v-47q-3 -51 -3 -179q0 -119 72 -164q1 -3 1 -19v-18q0 -132 -76.5 -211.5t-207.5 -79.5q-143 0 -219 85.5t-76 231.5q0 76 16 200q8 83 8 102q0 73 -39 73q-19 0 -33 -8l13 -163q-18 -101 -18 -214t51 -206z" />
    <glyph glyph-name="uni0145" unicode="&#x145;" horiz-adv-x="1246" 
d="M643 1221q51 42 123.5 65t151.5 23q46 0 86.5 -6t80 -21.5t67.5 -39.5t45 -62.5t17 -88.5v-947q0 -45 -29 -79t-74.5 -50.5t-89.5 -24.5t-86 -8h-22q18 -52 18 -108q0 -160 -93 -251q-84 -84 -203 -84q-69 0 -107 34t-38 84q0 48 13 67q12 -9 48 -16.5t74 -7.5
q41 0 68 11t27 30q0 9 -8 23q-37 -19 -93 -19q-88 0 -140 56.5t-52 145.5q0 90 55.5 149t148.5 70q-60 88 -152 242q-29 -5 -29 -31q0 -16 29 -65l74 -118q-143 -51 -174 -211q-5 -1 -23 -1h-25q-120 0 -198.5 24.5t-100.5 62.5v1128q0 32 30.5 56t76 35t84 15.5t68.5 4.5
q145 0 233 -60q51 -64 223 -353q12 0 20.5 7.5t8.5 21.5q0 15 -25 56l-108 186v55z" />
    <glyph glyph-name="uni0146" unicode="&#x146;" horiz-adv-x="1155" 
d="M549 163q18 4 53 6q-18 56 -18 128q0 83 16 202q1 19 5 43q3 19 3 59q0 73 -42 73q-16 0 -30 -8l13 -163q-38 -213 0 -340zM1090 495q0 -73 16.5 -117t55.5 -68q1 -3 1 -19v-18q0 -121 -67 -201.5t-186 -88.5q-48 133 -99 133q-14 0 -25 -17q83 -83 83 -234t-93 -242
q-84 -84 -203 -84q-69 0 -107 34t-38 84q0 48 13 67q12 -9 48 -16.5t74 -7.5q41 0 68 11t27 30q0 9 -8 23q-37 -19 -93 -19q-86 0 -139 55.5t-53 141.5q0 23 3 44q-24 -4 -61 -4q-102 0 -181.5 57t-79.5 155v484q-59 83 -59 205q0 121 59 210h178q71 0 121 -53
q-44 -41 -44 -68q0 -31 35 -31q48 84 142.5 130t197.5 46q199 0 308 -108.5t109 -308.5z" />
    <glyph glyph-name="Ncaron" unicode="&#x147;" horiz-adv-x="1246" 
d="M331 -18q-120 0 -198.5 24.5t-100.5 62.5v1128q0 32 30.5 56t76 35t84 15.5t68.5 4.5q145 0 233 -60q51 -64 223 -353q12 0 20.5 7.5t8.5 21.5q0 15 -25 56l-181 305q-93 53 -171 63q-5 10 -33 59q-97 163 -97 209q0 29 22 47t63 18h197l62 -115q45 0 45 36q0 23 -31 79
h72q59 0 76 1h108q33 0 54 -20t21 -56q0 -38 -112 -256q-86 -5 -86 -43q0 -9 6 -21q72 23 152 23q46 0 86.5 -6t80 -21.5t67.5 -39.5t45 -62.5t17 -88.5v-947q0 -43 -27 -76.5t-69.5 -51t-85.5 -26t-83 -8.5q-71 0 -112.5 5t-97.5 24q-102 131 -216 324q-14 23 -44 73
q-29 -5 -29 -31q0 -21 29 -65q35 -55 104 -166v-106q-91 -58 -252 -58z" />
    <glyph glyph-name="ncaron" unicode="&#x148;" horiz-adv-x="1155" 
d="M582 83q-98 -101 -275 -101q-102 0 -181.5 57t-79.5 155v484q-59 83 -59 205q0 121 59 210h207q61 0 96 -9q-69 117 -123 221q-7 13 -15 27.5t-11.5 21t-4.5 8.5q-32 59 -16.5 97.5t79.5 38.5h197l62 -115q45 0 45 36q0 16 -31 79h72q59 0 76 1h108q32 0 53.5 -19.5
t21.5 -46.5q0 -29 -10 -50q-29 -76 -102 -224q-15 3 -47 3q-16 0 -35.5 -2t-45 -6.5t-42.5 -15.5t-17 -26q0 -10 6 -20q64 25 137 25q86 0 166 -33q78 -31 129 -92t71.5 -133t20.5 -159v-47q-3 -51 -3 -179q0 -119 72 -164q1 -3 1 -19v-18q0 -132 -76.5 -211.5t-207.5 -79.5
q-143 0 -219 85.5t-76 231.5q0 76 16 200q8 83 8 102q0 73 -39 73q-19 0 -33 -8l13 -163q-18 -101 -18 -214t51 -206z" />
    <glyph glyph-name="Omacron" unicode="&#x14c;" horiz-adv-x="1347" 
d="M719 690q0 100 -9 137.5t-33 37.5q-16 0 -27 -10q2 -18 6 -48q4 -27 4 -128v-65q0 -68 -3 -99q-5 -51 -5 -53q0 -4 -1 -12t-1 -12q11 -10 27 -10q24 0 33 37.5t9 137.5v87zM679 -32q-181 0 -328.5 75t-237.5 224q-91 151 -91 378q0 306 174 491.5t477 185.5t477.5 -186
t174.5 -491q0 -314 -167.5 -495.5t-478.5 -181.5zM318 1438q0 97 61 188h576q61 -94 61 -188q0 -74 -31 -130q-153 59 -320 59q-168 0 -313 -65q-34 62 -34 136z" />
    <glyph glyph-name="omacron" unicode="&#x14d;" horiz-adv-x="1160" 
d="M558 382q7 -7 22 -7q17 0 24 11q7 10 7 38v143q0 94 -8 128q-7 31 -30 31q-14 0 -24 -10q9 -99 9 -159v-175zM588 -31q-263 0 -415.5 155t-152.5 419q0 262 150 422.5t410 160.5q171 0 299 -76t194.5 -208.5t66.5 -302.5q0 -260 -146.5 -415t-405.5 -155zM857 1444
q111 -174 22 -340q-125 69 -291 69q-198 0 -325 -78q-45 72 -42.5 167t60.5 182h576z" />
    <glyph glyph-name="Ohungarumlaut" unicode="&#x150;" horiz-adv-x="1347" 
d="M719 690q0 100 -9 137.5t-33 37.5q-16 0 -27 -10q2 -18 6 -48q4 -27 4 -128v-65q0 -68 -3 -99q-5 -51 -5 -53q0 -4 -1 -12t-1 -12q11 -10 27 -10q24 0 33 37.5t9 137.5v87zM22 642q0 201 78.5 360t245.5 245q-27 27 -41 52l178 407h93q93 0 145 -49t52 -137
q0 -87 -59 -155q-3 1 -18 1h-15q-29 0 -40.5 -8.5t-11.5 -28.5v-8q3 1 12 1h13q72 0 154 -15q12 18 3.5 30.5t-44.5 21.5q56 73 56 177q0 56 -28 93l38 77h103q94 0 145.5 -48.5t51.5 -137.5q0 -78 -52.5 -141t-131.5 -107q126 -51 212.5 -149.5t125 -218.5t38.5 -259
q0 -314 -167.5 -495.5t-478.5 -181.5q-181 0 -328.5 75t-237.5 224q-91 151 -91 375z" />
    <glyph glyph-name="ohungarumlaut" unicode="&#x151;" horiz-adv-x="1160" 
d="M558 382q7 -7 22 -7q17 0 24 11q7 10 7 38v143q0 94 -8 128q-7 31 -30 31q-14 0 -24 -10q9 -99 9 -159v-175zM854 1061q140 -76 213 -214t73 -305q0 -262 -146 -417.5t-406 -155.5q-266 0 -417 157t-151 425q0 167 64.5 294t185.5 200q-32 29 -46 52l178 407h93
q93 0 145 -49t52 -135q0 -85 -59 -153q-3 1 -18 1h-15q-29 0 -40.5 -8.5t-11.5 -28.5v-6q13 0 17 1h16q70 0 146 -17q21 39 -34 52q49 74 49 152q0 77 -28 114l38 77h103q94 0 145.5 -48.5t51.5 -137.5q0 -143 -198 -257z" />
    <glyph glyph-name="OE" unicode="&#x152;" horiz-adv-x="2079" 
d="M719 690q0 100 -9 137.5t-33 37.5q-16 0 -27 -10q2 -18 6 -48q4 -27 4 -128v-65q0 -68 -3 -99q-5 -51 -5 -53q0 -4 -1 -12t-1 -12q11 -10 27 -10q24 0 33 37.5t9 137.5v87zM665 1322q306 0 476 -188q54 18 -5 83q-29 30 -69 62q110 11 262 11h692q57 -94 57 -206
q0 -126 -62 -203h-476q-37 0 -37 -29v-8q0 -6 2 -8h448q43 -76 43 -169q0 -118 -44 -186h-187q-150 0 -205 -11q-53 -12 -68 -20q-13 -9 -13 -23t14 -22q99 31 272 31h124q102 0 155 -62t53 -180q0 -116 -68 -195h-725q-208 0 -251 162q-7 0 -14 -2.5t-13.5 -9.5t-8 -18
t4 -30.5t20.5 -44.5q-146 -88 -369 -88q-170 0 -308 67q-118 56 -196.5 151t-112.5 208.5t-34 247.5q0 228 90 380q86 148 231 224t322 76z" />
    <glyph glyph-name="oe" unicode="&#x153;" horiz-adv-x="1755" 
d="M550 382q7 -7 22 -7q17 0 24 11q7 10 7 38v143q0 94 -8 128q-7 31 -30 31q-14 0 -24 -10q9 -99 9 -159v-175zM1144 663q34 -3 78 -3q41 0 63 5q0 28 -15.5 46t-48.5 18q-34 0 -55.5 -20t-21.5 -46zM1076 385q-3 -5 -3 -16q0 -24 49.5 -35t169.5 -11q202 0 361 57
q16 -20 27 -76.5t11 -92.5q0 -45 -7 -72q-48 -60 -172 -108q-123 -49 -272 -49q-187 0 -305 68q44 44 44 75q0 21 -27 32q-53 -95 -157.5 -141.5t-223.5 -46.5q-258 0 -409 157t-151 416q0 270 153 427q151 157 397 157q190 0 309 -73q-37 -40 -43 -51q-9 -14 -9 -31
q0 -19 22 -23q64 86 161.5 133t206.5 47q237 0 382 -140.5t145 -376.5q0 -43 -15.5 -102t-42.5 -74q-65 -35 -181.5 -51t-219.5 -16q-124 0 -200 17z" />
    <glyph glyph-name="Racute" unicode="&#x154;" horiz-adv-x="1240" 
d="M591 711q3 -3 17 -3q27 0 36 17t9 47v36q0 36 -8.5 51.5t-27.5 15.5q-20 0 -27 -4q1 -3 1 -17v-143zM1280 306q-18 -157 -99.5 -240.5t-221.5 -83.5q-123 0 -208.5 67t-128.5 188l-36 98q-49 2 -106 11q-8 -8 -8 -22q0 -28 81 -32l57 -144v-85q-115 -81 -295 -81
q-131 0 -207 53.5t-76 153.5v950q0 44 81 86q93 46 222.5 69t251.5 23q300 0 469 -123q178 -129 178 -363q0 -128 -72 -225t-194 -137q0 -32 35 -32q41 0 104 46zM587 1652q77 54 166 54q80 0 136.5 -49.5t56.5 -129.5q0 -67 -39.5 -109t-116.5 -70q-96 14 -190 14
q-105 0 -225 -18z" />
    <glyph glyph-name="racute" unicode="&#x155;" horiz-adv-x="930" 
d="M317 -13q-47 0 -90.5 8t-85.5 26.5t-67.5 55t-25.5 86.5v515q-59 83 -59 205q0 121 59 210h153q-13 19 -18 42l231 335q76 54 166 54q81 0 137 -50t56 -130q0 -70 -48 -120.5t-119 -72.5q-120 -18 -185 -81q-50 -44 -1 -68q98 105 251 105q154 0 238 -63q30 -80 30 -195
q0 -117 -46 -210q-34 -18 -94.5 -30.5t-120.5 -12.5q-103 0 -180 24q-10 -8 -8 -23t20 -22q23 -9 65 -17v-502q-109 -69 -258 -69z" />
    <glyph glyph-name="uni0156" unicode="&#x156;" horiz-adv-x="1240" 
d="M591 711q3 -3 17 -3q27 0 36 17t9 47v36q0 36 -8.5 51.5t-27.5 15.5q-20 0 -27 -4q1 -3 1 -17v-143zM959 -18q-75 0 -120 15q23 -57 23 -133q0 -160 -93 -246q-82 -79 -203 -79q-69 0 -107 34t-38 84q0 48 13 67q12 -9 48 -16.5t74 -7.5q41 0 68 11t27 30q0 9 -8 23
q-37 -19 -93 -19q-82 0 -134 50t-58 134q44 1 62.5 9.5t18.5 29.5q0 7 -5 24q-49 -10 -119 -10q-131 0 -207 53.5t-76 153.5v950q0 44 81 86q93 46 222.5 69t251.5 23q300 0 469 -123q178 -129 178 -363q0 -128 -72 -225t-194 -137q0 -32 35 -32q41 0 104 46l173 -177
q-18 -157 -99.5 -240.5t-221.5 -83.5zM602 170q9 -15 32 -15q14 0 20 14q-19 36 -30 68l-36 98q-53 2 -108 11q-8 -8 -8 -22q0 -28 81 -32z" />
    <glyph glyph-name="uni0157" unicode="&#x157;" horiz-adv-x="930" 
d="M496 620q-10 -8 -8 -23t20 -22q23 -9 65 -17v-502q-20 -14 -42 -23q36 -73 36 -159q0 -160 -93 -251q-84 -84 -203 -84q-69 0 -107 34t-38 84q0 48 13 67q12 -9 48 -16.5t74 -7.5q41 0 68 11t27 30q0 9 -8 23q-37 -19 -93 -19q-86 0 -139 55.5t-53 141.5q0 142 120 200
q-7 31 -35 31q-25 0 -51.5 -23t-38.5 -48q-12 27 -12 61v515q-59 83 -59 205q0 121 59 210h153q118 0 169 -76q-20 -22 -41.5 -65t-21.5 -67q0 -37 37 -37q31 127 117 193t216 66q148 0 232 -63q30 -80 30 -195q0 -117 -46 -210q-34 -18 -94.5 -30.5t-120.5 -12.5
q-103 0 -180 24z" />
    <glyph glyph-name="Rcaron" unicode="&#x158;" horiz-adv-x="1240" 
d="M591 711q3 -3 17 -3q27 0 36 17t9 47v36q0 36 -8.5 51.5t-27.5 15.5q-20 0 -27 -4q1 -3 1 -17v-143zM1280 306q-18 -157 -99.5 -240.5t-221.5 -83.5q-123 0 -208.5 67t-128.5 188l-36 98q-49 2 -106 11q-8 -8 -8 -22q0 -28 81 -32l57 -144v-85q-115 -81 -295 -81
q-131 0 -207 53.5t-76 153.5v950q0 44 81 86q93 46 222.5 69t251.5 23q300 0 469 -123q178 -129 178 -363q0 -128 -72 -225t-194 -137q0 -32 35 -32q41 0 104 46zM851 1407q0 -1 -34 -65q-103 20 -219 20q-115 0 -222 -17q-28 45 -66 117.5t-44 82.5q-32 59 -16.5 97.5
t79.5 38.5h197l62 -115q45 0 45 36q0 16 -31 79h72q59 0 76 1h108q33 0 54 -20t21 -55q0 -37 -82 -200z" />
    <glyph glyph-name="rcaron" unicode="&#x159;" horiz-adv-x="930" 
d="M315 -13q-47 0 -90.5 8t-85.5 26.5t-67.5 55t-25.5 86.5v515q-59 83 -59 205q0 121 59 210h153q118 0 169 -76q-20 -22 -41.5 -65t-21.5 -67q0 -37 37 -37q31 127 117 193t216 66q148 0 232 -63q30 -80 30 -195q0 -117 -46 -210q-34 -18 -94.5 -30.5t-120.5 -12.5
q-103 0 -180 24q-10 -8 -8 -23t20 -22q23 -9 65 -17v-502q-109 -69 -258 -69zM651 1151q-75 0 -141.5 -24.5t-106.5 -70.5q-62 76 -175 80q-109 194 -125 228q-21 40 -21 69q0 30 22 47.5t63 17.5h207l62 -115q45 0 45 36q0 16 -31 79h71q57 0 72 1h103q32 0 53.5 -19.5
t21.5 -48.5q0 -28 -23 -82q-16 -35 -53 -109q-9 -19 -24 -49z" />
    <glyph glyph-name="Sacute" unicode="&#x15a;" horiz-adv-x="1175" 
d="M570 364q30 6 33 34t-17 63t-52 64q-89 80 -241 80q-77 0 -140 -25q-72 36 -111.5 113t-39.5 162q0 96 35 175t93 131.5t136.5 88t162 51.5t172.5 16q326 0 504 -137q34 -102 18.5 -204.5t-69.5 -154.5q-42 31 -133 54t-152 23q-70 0 -96 -8.5t-26 -28.5q0 -9 3 -17
q34 9 90 9q211 0 337 -107t126 -315q0 -195 -157 -322q-170 -137 -457 -137q-151 0 -268 22.5t-232 83.5q-75 110 -75 222q0 113 76.5 186.5t190.5 73.5t185 -46.5t104 -149.5zM330 1321q30 33 150 205q28 39 31 42q54 73 106 105.5t120 32.5q92 0 141.5 -53t49.5 -144v-105
l-174 -54q-72 12 -146 12q-155 0 -278 -41z" />
    <glyph glyph-name="sacute" unicode="&#x15b;" horiz-adv-x="1043" 
d="M567 784q-26 -8 -26 -31v-5q0 -5 1 -6q7 1 29 1h24q72 0 136.5 -12.5t121.5 -41t98.5 -70t65.5 -102.5t24 -136q0 -89 -28 -160t-76 -117.5t-115 -77t-141 -44t-158 -13.5q-55 0 -107.5 5t-112 17t-108 35t-89 55t-63.5 82.5t-23 112.5q0 54 23 101t55 67q65 -55 174 -84
t207 -29q47 0 47 26q0 13 -3 20q-5 -1 -17 -1h-11q-71 0 -137 10.5t-130 36.5t-111 65t-76 101t-29 139q0 173 129 280q142 118 393 118q244 0 412 -95q19 -39 19 -121q0 -123 -67 -187q-52 29 -124 47t-133 18t-74 -4zM534 1166q-171 0 -323 -63q22 23 92 116
q77 101 123 166q53 74 105.5 106.5t120.5 32.5q92 0 141.5 -53t49.5 -144v-105l-191 -62q-84 6 -89 6h-29z" />
    <glyph glyph-name="Scedilla" unicode="&#x15e;" horiz-adv-x="1175" 
d="M893 -152q0 -119 -86.5 -180t-211.5 -61q-52 0 -98.5 10.5t-88 32.5t-66 63t-24.5 96q0 95 75 139q31 -15 73 -15q56 0 56 33q0 6 -1 7q-249 7 -432 105q-75 110 -75 222q0 113 76.5 186.5t190.5 73.5t185 -46.5t104 -149.5q30 6 33 34t-17 63t-52 64q-89 80 -241 80
q-77 0 -140 -25q-72 36 -111.5 113t-39.5 162q0 96 35 175t93 131.5t136.5 88t162 51.5t172.5 16q326 0 504 -137q34 -102 18.5 -204.5t-69.5 -154.5q-42 31 -133 54t-152 23q-70 0 -96 -8.5t-26 -28.5q0 -9 3 -17q34 9 90 9q211 0 337 -107t126 -315q0 -142 -84.5 -248
t-223.5 -159q-29 35 -63 57t-59 22q-33 0 -35 -30q155 -60 155 -225z" />
    <glyph glyph-name="scedilla" unicode="&#x15f;" horiz-adv-x="1043" 
d="M1041 381q0 -270 -247 -364q-18 22 -52.5 44.5t-58.5 22.5q-30 0 -35 -26q80 -32 118 -80t38 -130q0 -119 -86.5 -180t-211.5 -61q-53 0 -100 10.5t-88 33.5t-65 64.5t-24 97.5q0 46 17.5 80t46.5 47q40 -23 90 -23q51 0 51 33q0 15 -7 22q-407 38 -407 314q0 49 23 93.5
t55 64.5q65 -55 174 -84t207 -29q47 0 47 26q0 13 -3 20q-5 -1 -17 -1h-11q-71 0 -137 10.5t-130 36.5t-111 65t-76 101t-29 139q0 173 129 280q142 118 393 118q244 0 412 -95q19 -39 19 -121q0 -123 -67 -187q-52 29 -124 47t-133 18t-74 -4q-26 -8 -26 -31v-5q0 -5 1 -6
q7 1 29 1h24q72 0 136.5 -12.5t121.5 -41t98.5 -70t65.5 -102.5t24 -136z" />
    <glyph glyph-name="Scaron" unicode="&#x160;" horiz-adv-x="1175" 
d="M570 364q30 6 33 34t-17 63t-52 64q-89 80 -241 80q-77 0 -140 -25q-72 36 -111.5 113t-39.5 162q0 96 35 175t93 131.5t136.5 88t162 51.5t172.5 16q326 0 504 -137q34 -102 18.5 -204.5t-69.5 -154.5q-42 31 -133 54t-152 23q-70 0 -96 -8.5t-26 -28.5q0 -9 3 -17
q34 9 90 9q211 0 337 -107t126 -315q0 -195 -157 -322q-170 -137 -457 -137q-151 0 -268 22.5t-232 83.5q-75 110 -75 222q0 113 76.5 186.5t190.5 73.5t185 -46.5t104 -149.5zM362 1332q-43 74 -118 213q-32 59 -16.5 97.5t79.5 38.5h197l62 -115q45 0 45 36q0 16 -31 79
h72q59 0 76 1h108q32 0 53.5 -19.5t21.5 -48.5q0 -31 -22 -79q-31 -71 -92 -191q-90 18 -208 18q-119 0 -227 -30z" />
    <glyph glyph-name="scaron" unicode="&#x161;" horiz-adv-x="1043" 
d="M567 784q-26 -8 -26 -31v-5q0 -5 1 -6q7 1 29 1h24q72 0 136.5 -12.5t121.5 -41t98.5 -70t65.5 -102.5t24 -136q0 -89 -28 -160t-76 -117.5t-115 -77t-141 -44t-158 -13.5q-55 0 -107.5 5t-112 17t-108 35t-89 55t-63.5 82.5t-23 112.5q0 54 23 101t55 67q65 -55 174 -84
t207 -29q47 0 47 26q0 13 -3 20q-5 -1 -17 -1h-11q-71 0 -137 10.5t-130 36.5t-111 65t-76 101t-29 139q0 173 129 280q142 118 393 118q244 0 412 -95q19 -39 19 -121q0 -123 -67 -187q-52 29 -124 47t-133 18t-74 -4zM296 1139q-37 60 -66 121q-6 12 -22.5 42t-22.5 42
t-15 32t-12.5 33t-3.5 24q0 30 22 47.5t63 17.5h197l62 -115q45 0 45 36q0 16 -31 79h72q59 0 76 1h108q32 0 53.5 -19.5t21.5 -47.5q0 -32 -44 -131t-73 -149q-88 19 -208 19q-117 0 -222 -32z" />
    <glyph glyph-name="uni0162" unicode="&#x162;" horiz-adv-x="1207" 
d="M346 77q-34 43 -34 104v644h-233q-72 103 -72 225q0 80 25.5 142t66.5 98h1034q30 -46 48.5 -110t18.5 -126q0 -115 -50.5 -172t-141.5 -57h-293q-3 -7 -3 -15q0 -18 21 -24q21 -7 94 -7h69v-703q-26 -22 -71 -46q39 -76 39 -156q0 -160 -93 -251q-84 -84 -203 -84
q-69 0 -107 34t-38 84q0 48 13 67q12 -9 48 -16.5t74 -7.5q41 0 68 11t27 30q0 9 -8 23q-37 -19 -93 -19q-86 0 -139 55.5t-53 141.5q0 134 120 193q-6 20 -13 26t-24 6q-18 0 -51 -27q-34 -26 -46 -63z" />
    <glyph glyph-name="uni0163" unicode="&#x163;" horiz-adv-x="887" 
d="M25 974q48 31 157 110q27 63 73 216q4 13 14 39q80 20 176 20q102 0 199 -21v-245h173q58 -88 58 -207q0 -55 -15.5 -112t-42.5 -96h-143v-151q0 -128 107 -128h43q21 -77 21 -132q0 -147 -99 -220q-13 27 -42 60t-52 33q-22 0 -28 -21q106 -81 106 -243t-93 -253
q-84 -84 -203 -84q-69 0 -107 34t-38 84q0 48 13 67q12 -9 48 -16.5t74 -7.5q41 0 68 11t27 30q0 9 -8 23q-37 -19 -93 -19q-86 0 -139 55.5t-53 141.5q0 68 31 121q-109 94 -109 280v289h62q50 0 50 33q0 2 -2 12h-224q-22 69 -22 157t13 140z" />
    <glyph glyph-name="Tcaron" unicode="&#x164;" horiz-adv-x="1207" 
d="M896 76q-108 -94 -310 -94q-66 0 -125.5 18.5t-104 65.5t-44.5 115v644h-233q-72 103 -72 225q0 80 25.5 142t66.5 98h1034q30 -46 48.5 -110t18.5 -126q0 -115 -50.5 -172t-141.5 -57h-293q-3 -7 -3 -15q0 -18 21 -24q21 -7 94 -7h69v-703zM395 1334q-32 54 -116 211
q-32 59 -16.5 97.5t79.5 38.5h197l62 -115q45 0 45 36q0 16 -31 79h72q59 0 76 1h108q32 0 53.5 -19.5t21.5 -47.5q0 -35 -41.5 -124.5t-78.5 -156.5h-431z" />
    <glyph glyph-name="tcaron" unicode="&#x165;" horiz-adv-x="1295" 
d="M25 974q48 31 157 110q27 63 73 216q4 13 14 39q80 20 176 20q102 0 199 -21v-245h84q12 -100 75 -151.5t167 -51.5q102 0 102 41q0 9 -8 23q-37 -19 -93 -19q-85 0 -138.5 56t-53.5 141q0 106 67 166.5t175 60.5q124 0 193 -84t69 -211q0 -160 -93 -251
q-84 -84 -203 -84q-83 0 -124 42q-21 -61 -42 -93h-147v-151q0 -128 107 -128h43q21 -77 21 -132q0 -138 -86.5 -211.5t-250.5 -73.5q-171 0 -265.5 95t-94.5 266v289h62q50 0 50 33q0 2 -2 12h-224q-22 69 -22 157t13 140z" />
    <glyph glyph-name="Utilde" unicode="&#x168;" horiz-adv-x="1228" 
d="M900 1308q119 0 208 -65q88 -64 88 -185v-556q0 -260 -158.5 -394.5t-424.5 -134.5q-131 0 -236.5 32t-183 96t-119.5 166t-42 235v713q118 94 273 94q133 0 207.5 -70t74.5 -206v-583q11 -8 25 -8t22 8q6 8 6 28v556q0 64 -6 101t-24 73q119 100 290 100zM660 1308
q-73 2 -122 16q-30 9 -54 17.5t-41.5 15.5t-23.5 9h-165q-5 43 -5 96v40q0 207 192 207q83 0 140 -23q29 -12 54 -19h200q10 -67 10 -157q0 -93 -47 -147.5t-138 -54.5z" />
    <glyph glyph-name="utilde" unicode="&#x169;" horiz-adv-x="1149" 
d="M568 436q13 0 26 10q-10 31 -10 103v494q106 64 255 64q82 0 146 -22t99 -60v-521q0 -149 72 -194q1 -3 1 -19v-18q0 -135 -69 -213t-201 -78q-79 0 -141 35.5t-92 101.5q-34 0 -34 -33q0 -23 23 -46q-43 -35 -92.5 -46.5t-116.5 -11.5q-88 0 -171 36q-81 34 -133 100
t-72 142t-20 167v251q-51 88 -51 196q0 131 59 219h220q126 0 195.5 -59.5t69.5 -176.5v-324q0 -97 37 -97zM629 1117q-73 2 -122 16q-30 9 -54 17.5t-41.5 15.5t-23.5 9h-165q-5 43 -5 96v40q0 207 192 207q83 0 140 -23q29 -12 54 -19h200q10 -67 10 -157
q0 -93 -47 -147.5t-138 -54.5z" />
    <glyph glyph-name="Umacron" unicode="&#x16a;" horiz-adv-x="1228" 
d="M900 1308q119 0 208 -65q88 -64 88 -185v-556q0 -260 -158.5 -394.5t-424.5 -134.5q-131 0 -236.5 32t-183 96t-119.5 166t-42 235v713q118 94 273 94q133 0 207.5 -70t74.5 -206v-583q11 -8 25 -8t22 8q6 8 6 28v556q0 64 -6 101t-24 73q119 100 290 100zM900 1355
q-97 0 -182.5 -29.5t-138.5 -74.5q-82 105 -275 105q-2 0 -32 -2q-11 39 -11 84q0 97 61 188h576q61 -94 61 -188q0 -42 -13 -84q-3 1 -13 1h-33z" />
    <glyph glyph-name="umacron" unicode="&#x16b;" horiz-adv-x="1178" 
d="M568 436q13 0 26 10q-10 31 -10 103v494q106 64 255 64q82 0 146 -22t99 -60v-521q0 -149 72 -194q1 -3 1 -19v-18q0 -135 -69 -213t-201 -78q-79 0 -141 35.5t-92 101.5q-34 0 -34 -33q0 -23 23 -46q-43 -35 -92.5 -46.5t-116.5 -11.5q-88 0 -171 36q-81 34 -133 100
t-72 142t-20 167v251q-51 88 -51 196q0 131 59 219h220q126 0 195.5 -59.5t69.5 -176.5v-324q0 -97 37 -97zM205 1257q0 97 61 188h576q61 -94 61 -188q0 -57 -13 -105h-51q-103 0 -188.5 -27.5t-139.5 -68.5q-86 82 -246 82h-42q-18 52 -18 119z" />
    <glyph glyph-name="Uring" unicode="&#x16e;" horiz-adv-x="1228" 
d="M878 1444q0 -78 -43 -142q37 6 81 6q119 -5 199.5 -70t80.5 -180v-556q0 -260 -158.5 -394.5t-424.5 -134.5q-131 0 -236.5 32t-183 96t-119.5 166t-42 235v713q118 94 273 94q3 0 43 -2q30 -60 88 -103t135 -58q16 -45 16 -113v-583q11 -8 25 -8t22 8q6 8 6 28v556
q0 68 -13 107q100 0 100 38q0 13 -13 25q-48 -17 -93 -17q-108 0 -182.5 74.5t-74.5 182.5t74.5 182.5t182.5 74.5t182.5 -74.5t74.5 -182.5z" />
    <glyph glyph-name="uring" unicode="&#x16f;" horiz-adv-x="1149" 
d="M568 438q15 0 26 8q-10 31 -10 103v411q71 5 71 37q0 12 -13 24q-48 -17 -93 -17q-108 0 -182.5 74.5t-74.5 182.5t74.5 182.5t182.5 74.5t182.5 -74.5t74.5 -182.5q0 -40 -15 -87t-40 -71q28 4 102 4q66 0 129.5 -20t101.5 -62v-521q0 -149 72 -194q1 -3 1 -19v-18
q0 -135 -69 -213t-201 -78q-79 0 -141 35.5t-92 101.5q-34 0 -34 -33q0 -23 23 -46q-43 -35 -92.5 -46.5t-116.5 -11.5q-88 0 -171 36q-81 34 -133 100t-72 142t-20 167v251q-51 87 -51 196q0 131 59 219h250q33 -57 92.5 -91t129.5 -43q13 -42 13 -88v-338q0 -95 37 -95z
" />
    <glyph glyph-name="Uhungarumlaut" unicode="&#x170;" horiz-adv-x="1228" 
d="M759 1524q0 68 -28 105l38 77h94q96 0 151 -50.5t55 -139.5q0 -120 -125 -209q110 -11 181 -76.5t71 -172.5v-556q0 -260 -158.5 -394.5t-424.5 -134.5q-131 0 -236.5 32t-183 96t-119.5 166t-42 235v713q92 74 219 91q56 134 168 400h93q94 0 145.5 -48.5t51.5 -137.5
q0 -136 -156 -237q-40 36 -75 36q-32 0 -35 -30q156 -59 156 -256v-583q11 -8 25 -8t22 8q6 8 6 28v556q0 136 -53 203l-5 5l-2 3q167 116 167 279z" />
    <glyph glyph-name="uhungarumlaut" unicode="&#x171;" horiz-adv-x="1149" 
d="M568 438q15 0 26 8q-10 31 -10 103v336q0 43 -16.5 87t-46.5 69q78 54 115.5 126t37.5 149q0 73 -28 110l38 77h103q94 0 145.5 -48.5t51.5 -137.5q0 -58 -34 -118.5t-83 -92.5q150 -11 217 -81v-521q0 -149 72 -194q1 -3 1 -19v-18q0 -135 -69 -213t-201 -78
q-79 0 -141 35.5t-92 101.5q-34 0 -34 -33q0 -23 23 -46q-43 -35 -92.5 -46.5t-116.5 -11.5q-88 0 -171 36q-81 34 -133 100t-72 142t-20 167v251q-51 88 -51 196q0 131 59 219h115l173 410h93q94 0 145.5 -48.5t51.5 -137.5q0 -69 -41.5 -136t-102.5 -107q-47 35 -86 35
q-31 0 -32 -28q169 -43 169 -224v-324q0 -95 37 -95z" />
    <glyph glyph-name="Uogonek" unicode="&#x172;" horiz-adv-x="1228" 
d="M411 -5q-184 43 -281.5 172t-97.5 335v713q118 94 273 94q133 0 207.5 -70t74.5 -206v-583q11 -8 25 -8t22 8q6 8 6 28v556q0 64 -6 101t-24 73q119 100 290 100q119 0 208 -65q88 -64 88 -185v-556q0 -208 -105.5 -339t-311.5 -176q-12 -14 -12 -36t15 -35
q14 -13 40 -13q28 0 55 15q75 -43 75 -140q0 -70 -41 -117t-98.5 -65.5t-125.5 -18.5q-120 0 -205 63t-85 178q0 142 142 201q-2 35 -29 35q-40 0 -99 -59z" />
    <glyph glyph-name="uogonek" unicode="&#x173;" horiz-adv-x="1148" 
d="M568 438q15 0 26 8q-10 31 -10 103v494q106 64 255 64q82 0 146 -22t99 -60v-521q0 -149 72 -194q1 -3 1 -19v-18q0 -157 -91 -233q-53 -45 -53 -87q0 -23 16 -36.5t40 -13.5q25 0 54 15q75 -43 75 -140q0 -70 -41 -117t-98.5 -65.5t-125.5 -18.5q-120 0 -205 63t-85 178
q0 132 113 194q-69 36 -102 107q-34 0 -34 -33q0 -23 23 -46q-43 -35 -92.5 -46.5t-116.5 -11.5q-88 0 -171 36q-81 34 -133 100t-72 142t-20 167v251q-51 88 -51 196q0 131 59 219h220q126 0 195.5 -59.5t69.5 -176.5v-324q0 -95 37 -95z" />
    <glyph glyph-name="Ydieresis" unicode="&#x178;" horiz-adv-x="1274" 
d="M442 304q28 0 28 31q-218 145 -336 358t-132 475q46 69 136 104t183 35q126 0 215 -49q57 -156 92 -288l-49 -216q-4 -13 -4 -28q0 -34 36 -34q13 42 56 230q0 1 27 124.5t50 218.5q93 44 210 44q139 0 226 -67.5t87 -202.5q0 -180 -91 -344.5t-242 -298.5v-330
q-74 -45 -139 -64.5t-149 -19.5q-140 0 -218 53t-78 154v176q61 -61 92 -61zM283 1508q0 79 54 135.5t134 56.5q100 0 159 -86q59 86 157 86q79 0 134.5 -56t55.5 -135q0 -105 -82 -157q-68 -10 -132 -28q-87 10 -131 77q-42 -67 -128 -79q-68 24 -140 28q-81 52 -81 158z
" />
    <glyph glyph-name="Zacute" unicode="&#x179;" horiz-adv-x="1142" 
d="M27 1058q0 77 25 138t64 94h915q40 -43 67 -119t27 -179q0 -51 -7 -84.5t-27 -85.5q-108 -152 -267 -302q-141 -5 -213.5 -24t-72.5 -48q0 -13 10 -23q57 24 141.5 37t158.5 13h225q67 -118 67 -225q0 -133 -75.5 -191.5t-215.5 -58.5h-733q-104 109 -104 338q0 54 10 95
q191 230 432 460q-4 22 -27 22q-15 0 -39 -19.5t-73 -72.5h-215q-73 115 -73 235zM943 1527q0 -70 -40 -110.5t-113 -67.5l-39 -14h-386l219 317q76 54 166 54q80 0 136.5 -49.5t56.5 -129.5z" />
    <glyph glyph-name="zacute" unicode="&#x17a;" horiz-adv-x="993" 
d="M968 837q0 -82 -27 -161q-93 -128 -223 -216q-122 -6 -184.5 -25.5t-62.5 -45.5q0 -16 11 -24q93 50 258 50h193q26 -44 42 -99.5t16 -98.5q0 -102 -50.5 -159.5t-149.5 -57.5h-713q-89 94 -89 290q0 70 26 171q95 104 258 229q26 20 74 61q-6 23 -27 23l-14 -2
q-29 -9 -121 -95h-124q-59 98 -59 208q0 67 21 122t55 86h825q65 -95 65 -256zM651 1138h-386l232 332q77 54 166 54q80 0 136.5 -49.5t56.5 -129.5q0 -127 -163 -190z" />
    <glyph glyph-name="Zdotaccent" unicode="&#x17b;" horiz-adv-x="1142" 
d="M1031 1290q40 -43 67 -119t27 -179q0 -51 -7 -84.5t-27 -85.5q-108 -152 -267 -302q-141 -5 -213.5 -24t-72.5 -48q0 -13 10 -23q57 24 141.5 37t158.5 13h225q67 -118 67 -225q0 -133 -75.5 -191.5t-215.5 -58.5h-733q-104 109 -104 338q0 54 10 95q191 230 432 460
q-4 22 -27 22q-15 0 -39 -19.5t-73 -72.5h-215q-73 115 -73 235q0 77 25 138t64 94h260q16 -30 72 -63q55 -33 134 -33q72 0 125 28t79 68h245zM360 1460q0 93 64 158.5t157 65.5t158 -65.5t65 -158.5q0 -95 -63.5 -157.5t-158.5 -62.5t-158.5 63t-63.5 157z" />
    <glyph glyph-name="zdotaccent" unicode="&#x17c;" horiz-adv-x="993" 
d="M276 1278q0 93 64 158.5t157 65.5t158 -65.5t65 -158.5q0 -95 -63.5 -157.5t-158.5 -62.5t-158.5 63t-63.5 157zM968 837q0 -82 -27 -161q-93 -128 -223 -216q-122 -6 -184.5 -25.5t-62.5 -45.5q0 -16 11 -24q93 50 258 50h193q26 -44 42 -99.5t16 -98.5
q0 -102 -50.5 -159.5t-149.5 -57.5h-713q-89 94 -89 290q0 70 26 171q95 104 258 229q26 20 74 61q-6 23 -27 23l-14 -2q-29 -9 -121 -95h-124q-59 98 -59 208q0 67 21 122t55 86h225q69 -81 201 -81t194 81h205q65 -95 65 -256z" />
    <glyph glyph-name="Zcaron" unicode="&#x17d;" horiz-adv-x="1142" 
d="M27 1058q0 77 25 138t64 94h915q40 -43 67 -119t27 -179q0 -51 -7 -84.5t-27 -85.5q-108 -152 -267 -302q-141 -5 -213.5 -24t-72.5 -48q0 -13 10 -23q57 24 141.5 37t158.5 13h225q67 -118 67 -225q0 -133 -75.5 -191.5t-215.5 -58.5h-733q-104 109 -104 338q0 54 10 95
q191 230 432 460q-4 22 -27 22q-15 0 -39 -19.5t-73 -72.5h-215q-73 115 -73 235zM385 1334q-32 54 -116 211q-32 59 -16.5 97.5t79.5 38.5h197l62 -115q45 0 45 36q0 16 -31 79h72q59 0 76 1h108q32 0 53.5 -19.5t21.5 -47.5q0 -35 -41.5 -124.5t-78.5 -156.5h-431z" />
    <glyph glyph-name="zcaron" unicode="&#x17e;" horiz-adv-x="993" 
d="M968 837q0 -82 -27 -161q-93 -128 -223 -216q-122 -6 -184.5 -25.5t-62.5 -45.5q0 -16 11 -24q93 50 258 50h193q26 -44 42 -99.5t16 -98.5q0 -102 -50.5 -159.5t-149.5 -57.5h-713q-89 94 -89 290q0 70 26 171q95 104 258 229q26 20 74 61q-6 23 -27 23l-14 -2
q-29 -9 -121 -95h-124q-59 98 -59 208q0 67 21 122t55 86h825q65 -95 65 -256zM300 1136q-60 105 -124 226q-32 59 -16.5 97.5t79.5 38.5h197l62 -115q45 0 45 36q0 16 -31 79h72q59 0 76 1h108q32 0 53.5 -19.5t21.5 -46.5q0 -28 -13 -61q-8 -20 -115 -236h-415z" />
    <glyph glyph-name="florin" unicode="&#x192;" horiz-adv-x="868" 
d="M509 1032q-20 -20 3 -37q37 -30 212 -30q82 0 153 12q6 -17 6 -71q0 -55 -15 -117.5t-44 -96.5h-152l-33 -427q-9 -110 -37.5 -194.5t-80.5 -148.5t-134.5 -98t-193.5 -34q-163 0 -257 94q-84 84 -84 198q0 116 67.5 192.5t182.5 76.5q70 0 126 -34t78 -97q2 -1 8 -1h6
q31 0 31 29q0 17 -15.5 41.5t-40.5 45.5q-68 56 -172 60l22 297h-100q-29 61 -29 143q0 157 85 272h67q45 159 162.5 243.5t294.5 84.5q127 0 215 -36t124 -82q2 -14 2 -15v-16q0 -132 -60 -249q-73 -27 -191 -27q-119 0 -206 22z" />
    <glyph glyph-name="Ohorn" unicode="&#x1a0;" horiz-adv-x="1347" 
d="M1125 1521q114 -20 173.5 -101t38.5 -193q-10 -57 -41.5 -104t-79.5 -71q109 -166 109 -407q0 -314 -167.5 -495.5t-478.5 -181.5h-6q-179 2 -325 76.5t-235 222.5q-91 151 -91 378q0 330 198 514q175 163 466 163q164 0 192 -45q33 -54 72 -81t96 -27q42 0 82 21t47 58
q1 7 -5 14.5t-16 9.5q-26 -64 -109 -64t-119 62q-33 56 -16 123t71 102q47 30 104 30q12 0 40 -4zM719 693q0 97 -9 135q-9 37 -33 37q-16 0 -27 -10q2 -18 6 -48q4 -27 4 -128v-65q0 -68 -3 -99q-5 -51 -5 -53q0 -4 -1 -12t-1 -12q11 -10 27 -10q24 2 33 38q9 38 9 137v90z
" />
    <glyph glyph-name="ohorn" unicode="&#x1a1;" horiz-adv-x="1160" 
d="M947 1358q114 -20 173.5 -101t38.5 -193q-10 -54 -40 -103t-75 -72q96 -145 96 -350q0 -260 -146.5 -415t-405.5 -155q-263 0 -415.5 155t-152.5 419q0 270 155 427q156 157 405 156q66 0 129 -17q32 -103 159 -103q42 0 82 21t47 58q1 7 -5 14.5t-16 9.5
q-26 -64 -109 -64t-119 62q-33 56 -16 123t71 102q47 30 104 30q12 0 40 -4zM558 382q7 -7 22 -7q17 0 24 11q7 10 7 38v143q0 94 -8 128q-8 31 -28 31q-16 0 -26 -10q9 -99 9 -159v-175z" />
    <glyph glyph-name="Uhorn" unicode="&#x1af;" horiz-adv-x="1228" 
d="M1041 1562q114 -20 173.5 -101t38.5 -193q-15 -85 -64 -135q7 -22 7 -75v-556q0 -132 -43 -233.5t-121.5 -166t-184 -97t-234.5 -32.5q-131 0 -236.5 32t-183 96t-119.5 166t-42 235v713q118 94 273 94q133 0 207.5 -70t74.5 -206v-583q13 -8 26 -8q15 0 21 8t6 28v556
q0 112 -30 174q11 9 26 23t23 20.5t21.5 17t22 13.5t24.5 9.5t28.5 4.5t34.5 -2q18 -2 30.5 -15.5t21 -28.5t31.5 -27.5t60 -12.5q147 0 161 77q1 7 -6.5 15.5t-17.5 10.5q-26 -64 -109 -64t-119 62q-33 56 -16 123t71 102q47 30 104 30q12 0 40 -4z" />
    <glyph glyph-name="uhorn" unicode="&#x1b0;" horiz-adv-x="1149" 
d="M975 1372q114 -20 173.5 -101t38.5 -193q-21 -113 -105 -169l1 1h1v-406q0 -149 72 -194q1 -3 1 -19v-18q0 -135 -69 -213t-201 -78q-79 0 -141 35.5t-92 101.5q-34 0 -34 -33q0 -23 23 -46q-43 -35 -92.5 -46.5t-116.5 -11.5q-88 0 -171 36q-81 34 -133 100t-72 142
t-20 167v251q-51 88 -51 196q0 131 59 219h220q126 0 195.5 -59.5t69.5 -176.5v-324q0 -97 37 -97q13 0 26 10q-10 31 -10 103v494q8 5 30 19t29.5 18t25 11.5t34.5 10.5t39 5q34 -41 47 -53.5t38 -22t69 -10.5q42 -1 82.5 20t46.5 58q2 7 -4.5 14.5t-16.5 9.5
q-26 -64 -109 -64t-119 62q-33 56 -16 123t71 102q47 30 104 30q12 0 40 -4z" />
    <glyph glyph-name="uni0218" unicode="&#x218;" horiz-adv-x="1165" 
d="M776 154q-21 0 -30 -21q62 -38 94.5 -105t32.5 -154q0 -160 -93 -251q-84 -84 -203 -84q-69 0 -107 34t-38 84q0 48 13 67q12 -9 48 -16.5t74 -7.5q41 0 68 11t27 30q0 9 -8 23q-37 -19 -93 -19q-86 0 -139 55.5t-53 141.5q0 32 4 51q-160 20 -294 85q-75 102 -75 218
q0 115 76 189.5t191 74.5q114 0 185 -46.5t104 -149.5q30 6 33 34t-17 63t-52 64q-89 80 -241 80q-77 0 -140 -25q-72 36 -111.5 113t-39.5 162q0 96 35 174t93.5 129t137 85.5t161.5 49.5t172 15q127 0 272.5 -33t231.5 -95q23 -64 23.5 -137.5t-18.5 -127.5
q-20 -58 -56 -94q-42 31 -133 54t-152 23q-70 0 -96 -8.5t-26 -28.5q0 -9 3 -17q34 9 90 9q135 0 238 -46t164 -142.5t61 -233.5q0 -131 -77.5 -236t-220.5 -161q-65 120 -119 120z" />
    <glyph glyph-name="uni0219" unicode="&#x219;" horiz-adv-x="1043" 
d="M818 45q-15 33 -36.5 55.5t-39.5 22.5t-28 -21q87 -84 87 -236t-93 -243q-84 -84 -203 -84q-69 0 -107 34t-38 84q0 48 13 67q12 -9 48 -16.5t74 -7.5q41 0 68 11t27 30q0 9 -8 23q-37 -19 -93 -19q-86 0 -139 55.5t-53 141.5q0 39 7 63q-58 14 -106 35.5t-89.5 54.5
t-65 82t-23.5 109q0 49 23 93.5t55 64.5q65 -55 174 -84t207 -29q47 0 47 26q0 13 -3 20q-5 -1 -17 -1h-11q-71 0 -137 10.5t-130 36.5t-111 65t-76 101t-29 139q0 173 129 280q142 118 393 118q244 0 412 -95q19 -39 19 -121q0 -123 -67 -187q-52 29 -124 47t-133 18
t-74 -4q-26 -8 -26 -31v-5q0 -5 1 -6q7 1 29 1h24q88 0 165.5 -20.5t141.5 -61.5t101.5 -111t37.5 -161q0 -240 -223 -344z" />
    <glyph glyph-name="uni021A" unicode="&#x21a;" horiz-adv-x="1207" 
d="M346 77q-34 43 -34 104v644h-233q-72 103 -72 225q0 80 25.5 142t66.5 98h1034q30 -46 48.5 -110t18.5 -126q0 -115 -50.5 -172t-141.5 -57h-293q-3 -7 -3 -15q0 -18 21 -24q21 -7 94 -7h69v-703q-26 -22 -71 -46q39 -76 39 -156q0 -160 -93 -251q-84 -84 -203 -84
q-69 0 -107 34t-38 84q0 48 13 67q12 -9 48 -16.5t74 -7.5q41 0 68 11t27 30q0 9 -8 23q-37 -19 -93 -19q-86 0 -139 55.5t-53 141.5q0 134 120 193q-6 20 -13 26t-24 6q-18 0 -51 -27q-34 -26 -46 -63z" />
    <glyph glyph-name="uni021B" unicode="&#x21b;" horiz-adv-x="887" 
d="M25 974q48 31 157 110q27 63 73 216q4 13 14 39q80 20 176 20q102 0 199 -21v-245h173q58 -88 58 -207q0 -55 -15.5 -112t-42.5 -96h-143v-151q0 -128 107 -128h43q21 -77 21 -132q0 -147 -99 -220q-13 27 -42 60t-52 33q-22 0 -28 -21q106 -81 106 -243t-93 -253
q-84 -84 -203 -84q-69 0 -107 34t-38 84q0 48 13 67q12 -9 48 -16.5t74 -7.5q41 0 68 11t27 30q0 9 -8 23q-37 -19 -93 -19q-86 0 -139 55.5t-53 141.5q0 68 31 121q-109 94 -109 280v289h62q50 0 50 33q0 2 -2 12h-224q-22 69 -22 157t13 140z" />
    <glyph glyph-name="circumflex" unicode="&#x2c6;" horiz-adv-x="728" 
d="M336 1203q-45 -17 -104 -17q-62 0 -122 22t-90 66l118 363q39 22 100 34t114 12q140 0 217 -39l139 -397q-27 -27 -78 -44t-104 -17q-55 0 -94 10q-2 6 -9 29q-2 6 -6.5 20t-12.5 40t-16 50q-30 93 -31 103q-21 0 -29 -7.5t-8 -24.5q0 -20 16 -71l24 -80z" />
    <glyph glyph-name="caron" unicode="&#x2c7;" horiz-adv-x="729" 
d="M573 1118q-89 -30 -195 -30q-114 0 -202 32q-37 63 -90 161q-50 91 -60 114q-6 14 -6 30.5t6 33.5t26.5 28t52.5 11h197l62 -115q45 0 45 36q0 16 -31 79h72q59 0 76 1h108q32 0 53.5 -19.5t21.5 -46.5q0 -25 -14 -64q-15 -37 -54 -120q-45 -94 -68 -131z" />
    <glyph glyph-name="uni02C9" unicode="&#x2c9;" horiz-adv-x="738" 
d="M81 1250q-61 91 -61 188t61 188h576q120 -188 0 -376h-576z" />
    <glyph glyph-name="breve" unicode="&#x2d8;" horiz-adv-x="765" 
d="M20 1459q0 84 53 134q52 49 103 49q29 -49 86.5 -78t116.5 -29q67 0 121 28.5t81 78.5q53 0 108 -49q56 -50 56 -134q0 -102 -88 -172q-101 -80 -275 -80q-175 0 -273 80q-89 71 -89 172z" />
    <glyph glyph-name="dotaccent" unicode="&#x2d9;" horiz-adv-x="484" 
d="M20 1460q0 93 64 158.5t157 65.5t158 -65.5t65 -158.5q0 -95 -63.5 -157.5t-158.5 -62.5t-158.5 63t-63.5 157z" />
    <glyph glyph-name="ring" unicode="&#x2da;" horiz-adv-x="554" 
d="M277 1187q-108 0 -182.5 74.5t-74.5 182.5t74.5 182.5t182.5 74.5t182.5 -74.5t74.5 -182.5t-74.5 -182.5t-182.5 -74.5z" />
    <glyph glyph-name="ogonek" unicode="&#x2db;" horiz-adv-x="595" 
d="M175 57q0 62 41 102t111 40q71 0 113 -40.5t42 -109.5v-50q-30 0 -51 -6.5t-29.5 -16.5t-10.5 -22t1.5 -22t11.5 -17q14 -12 40 -12q28 0 56 15q75 -43 75 -140q0 -53 -23.5 -93.5t-63 -63t-85 -33.5t-95.5 -11q-58 0 -108.5 14.5t-91.5 43t-64.5 76t-23.5 107.5
q0 155 155 215v24z" />
    <glyph glyph-name="tilde" unicode="&#x2dc;" horiz-adv-x="636" 
d="M431 1303q-73 2 -122 16q-30 9 -54 17.5t-41.5 15.5t-23.5 9h-165q-5 43 -5 96v40q0 207 192 207q83 0 140 -23q29 -12 54 -19h200q10 -67 10 -157q0 -93 -47 -147.5t-138 -54.5z" />
    <glyph glyph-name="hungarumlaut" unicode="&#x2dd;" horiz-adv-x="891" 
d="M871 1519q0 -50 -26 -97.5t-70 -85t-87 -64t-92 -49.5l-129 -62q-27 2 -60.5 20t-48.5 39l25 18q178 127 178 286q0 68 -28 105l38 77h103q94 0 145.5 -48.5t51.5 -138.5zM511 1520q0 -128 -162 -246l-189 -138q-101 24 -140 90l201 480h93q94 0 145.5 -48.5t51.5 -137.5
z" />
    <glyph glyph-name="uni031B" unicode="&#x31b;" 
 />
    <glyph glyph-name="pi" unicode="&#x3c0;" horiz-adv-x="1228" 
d="M634 647q36 0 48 8.5t12 36.5h-120v-513q0 -87 34 -128q-115 -61 -254 -61q-128 0 -200 48.5t-72 141.5v512h-54q-58 82 -58 204t58 210h1172q58 -82 58 -204q0 -123 -58 -211h-54v-624q-115 -77 -242 -77q-52 0 -96.5 8.5t-85.5 28.5t-64.5 59t-23.5 94v467z" />
    <glyph glyph-name="uni0900" unicode="&#x900;" 
d="M-445 1528q0 61 43 101.5t104 40.5t101 -41.5t40 -102.5t-41.5 -102.5t-102.5 -41.5q-60 0 -102 43t-42 103zM-497 1497q-69 1 -117.5 57.5t-48.5 126.5q0 101 89 172q98 80 273 80q174 0 275 -80q88 -70 88 -172q0 -83 -56 -133q-58 -50 -109 -50v7q0 94 -52.5 152
t-145.5 58q-91 0 -143.5 -58t-52.5 -150v-10z" />
    <glyph glyph-name="uni0901" unicode="&#x901;" 
d="M-298 1645q-61 0 -104 41t-43 102t41.5 103t102.5 42t102.5 -41t41.5 -102t-40 -103t-101 -42zM-497 1808q0 -92 52.5 -150t143.5 -58q92 0 145 58.5t53 151.5v7q54 0 109 -49q56 -50 56 -134q0 -102 -88 -172q-101 -80 -275 -80q-175 0 -273 80q-89 71 -89 172
q0 70 48.5 126.5t117.5 57.5v-10z" />
    <glyph glyph-name="uni0902" unicode="&#x902;" 
d="M-269 1819q94 0 159 -65.5t65 -159.5q0 -96 -62 -157t-158 -61t-159 61.5t-63 157.5q0 93 62.5 158.5t155.5 65.5z" />
    <glyph glyph-name="uni0903" unicode="&#x903;" horiz-adv-x="525" 
d="M260 1043q-56 0 -108 -20.5t-84 -55.5h-89q-61 85 -61 180q0 50 14 91.5t47 92.5h563q34 -51 48 -91t14 -93q0 -94 -62 -180h-83q-64 76 -199 76zM419 586q-57 36 -100 36q-44 0 -44 -38q100 -4 161.5 -69t61.5 -165q0 -102 -67.5 -166.5t-169.5 -64.5q-99 0 -167 67
t-68 166q0 65 32 119.5t87 84.5q-56 29 -87.5 84t-31.5 125q0 99 68 166t167 67q105 0 171 -65.5t66 -170.5q0 -110 -79 -176z" />
    <glyph glyph-name="uni0904" unicode="&#x904;" horiz-adv-x="1545" 
d="M968 1376q-64 0 -118 13t-100 40.5t-72.5 77t-26.5 115.5q0 134 110 224l92 -11q7 -34 38 -51q45 -25 194 -37q47 -4 85 -9.5t83 -16.5t79.5 -25.5t68 -38t55 -53.5t35 -72t13.5 -93q0 -63 -21 -108h84q33 -50 47 -89.5t14 -94.5q0 -95 -61 -180h-50v-582q0 -122 57 -190
q-18 -95 -88.5 -149t-169.5 -54q-102 0 -175 45t-99 130q61 98 61 215q0 81 -29 137q-26 47 -55 47q-19 0 -25 -17q56 -65 56 -164q0 -174 -137 -281q-137 -108 -369 -108q-205 0 -359 118q-165 125 -165 314q0 120 77.5 186t199.5 68q2 -126 76 -202.5t200 -76.5
q61 0 61 34q0 8 -3 17q-23 -6 -51 -6q-108 0 -170 61.5t-62 164.5q0 99 63 161t162 62q33 0 47 -3q3 6 3 13q0 35 -66 35q-74 0 -141 -45.5t-101 -113.5q-122 11 -194 106q-63 84 -63 182q78 140 203 215.5t284 75.5q227 0 357 -112t130 -297q0 -54 -10 -81q12 -7 19 -7
q25 0 34.5 33t9.5 66q0 162 -96 271q6 55 60 96h139q15 3 15 16q0 33 -92 33z" />
    <glyph glyph-name="uni0905" unicode="&#x905;" horiz-adv-x="1543" 
d="M1103 382q0 81 -29 137q-26 47 -55 47q-19 0 -25 -17q56 -65 56 -164q0 -174 -137 -281q-137 -108 -369 -108q-205 0 -359 118q-165 125 -165 314q0 120 77.5 186t199.5 68q2 -126 76 -202.5t200 -76.5q61 0 61 34q0 8 -3 17q-23 -6 -51 -6q-108 0 -170 61.5t-62 164.5
q0 99 63 161t162 62q33 0 47 -3q3 6 3 13q0 35 -66 35q-74 0 -141 -45.5t-101 -113.5q-122 11 -194 106q-63 84 -63 182q78 140 203 215.5t284 75.5q227 0 357 -112t130 -297q0 -54 -10 -81q12 -7 19 -7q25 0 34.5 33t9.5 66q0 162 -96 271q6 55 60 96h518q33 -50 47 -89.5
t14 -94.5q0 -95 -61 -180h-50v-582q0 -122 57 -190q-18 -95 -88.5 -149t-169.5 -54q-102 0 -175 45t-99 130q61 98 61 215z" />
    <glyph glyph-name="uni0906" unicode="&#x906;" horiz-adv-x="2074" 
d="M2048 385q0 -122 57 -190q-18 -95 -88.5 -149t-175.5 -54q-78 0 -142 30t-99 86q24 48 30 108q-35 35 -47 74.5t-12 97.5v579h-54v-582q0 -122 57 -190q-18 -95 -88.5 -149t-169.5 -54q-102 0 -175 45t-99 130q61 98 61 215q0 81 -29 137q-26 47 -55 47q-19 0 -25 -17
q56 -65 56 -164q0 -174 -137 -281q-137 -108 -369 -108q-205 0 -359 118q-165 125 -165 314q0 120 77.5 186t199.5 68q2 -126 76 -202.5t200 -76.5q61 0 61 34q0 8 -3 17q-23 -6 -51 -6q-108 0 -170 61.5t-62 164.5q0 99 63 161t162 62q33 0 47 -3q3 6 3 13q0 35 -66 35
q-74 0 -141 -45.5t-101 -113.5q-122 11 -194 106q-63 84 -63 182q78 140 203 215.5t284 75.5q227 0 357 -112t130 -297q0 -54 -10 -81q12 -7 19 -7q25 0 34.5 33t9.5 66q0 162 -96 271q6 55 60 96h1049q33 -50 47 -89.5t14 -94.5q0 -95 -61 -180h-50v-582z" />
    <glyph glyph-name="uni0907" unicode="&#x907;" horiz-adv-x="1105" 
d="M553 752q0 -1 0.5 -2.5t1 -4.5t0.5 -6q54 23 123 23q172 0 289.5 -95.5t117.5 -263.5q0 -76 -26.5 -138.5t-70 -105t-104 -73.5t-124 -47t-135.5 -23q0 -36 79 -36q39 0 107.5 18t95.5 39q15 -54 15 -104q0 -102 -62 -161t-171 -59q-216 0 -335 307q-156 19 -262 70
q-51 96 -51 183q0 114 78.5 182.5t194.5 68.5q111 0 193.5 -65t94.5 -173q33 2 33 40q0 36 -20 79q-39 78 -119 121t-171 43q-66 0 -122 -14q-37 -12 -74 -31q-88 91 -88 226q0 85 49.5 149t123 94.5t156.5 30.5h171q1 1 1 9q0 36 -54 36h-118q-178 0 -284 -102h-111
q-61 85 -61 180q0 50 14 91.5t47 92.5h1145q34 -51 48 -91t14 -93q0 -94 -62 -180h-114v-103q0 -39 -17.5 -71.5t-44.5 -44.5q-104 59 -247 59q-144 0 -144 -55z" />
    <glyph glyph-name="uni0908" unicode="&#x908;" horiz-adv-x="1105" 
d="M553 752q0 -1 0.5 -2.5t1 -4.5t0.5 -6q54 23 123 23q172 0 289.5 -95.5t117.5 -263.5q0 -76 -26.5 -138.5t-70 -105t-104 -73.5t-124 -47t-135.5 -23q0 -36 79 -36q39 0 107.5 18t95.5 39q15 -54 15 -104q0 -102 -62 -161t-171 -59q-216 0 -335 307q-156 19 -262 70
q-51 96 -51 183q0 114 78.5 182.5t194.5 68.5q111 0 193.5 -65t94.5 -173q33 2 33 40q0 36 -20 79q-39 78 -119 121t-171 43q-66 0 -122 -14q-37 -12 -74 -31q-88 91 -88 226q0 85 49.5 149t123 94.5t156.5 30.5h171q1 1 1 9q0 36 -54 36h-118q-178 0 -284 -102h-111
q-61 85 -61 180q0 50 14 91.5t47 92.5h586q-126 93 -126 246q0 146 96 228.5t245 82.5q123 0 208.5 -74t85.5 -196q0 -66 -21 -121l-126 -36q-45 -12 -64 -28.5t-19 -44.5q0 -42 45 -57h235q34 -51 48 -91t14 -93q0 -94 -62 -180h-114v-103q0 -39 -17.5 -71.5t-44.5 -44.5
q-104 59 -247 59q-144 0 -144 -55z" />
    <glyph glyph-name="uni0909" unicode="&#x909;" horiz-adv-x="1115" 
d="M453 924q60 -11 125 -11q67 0 67 31q0 16 -4 23h-656q-61 85 -61 180q0 50 14 91.5t47 92.5h1153q124 -191 0 -364h-83v-119q0 -68 -22.5 -126t-59.5 -89q53 -33 87.5 -95.5t34.5 -143.5q0 -178 -137 -283q-138 -105 -380 -105q-243 0 -400 126q-158 125 -158 317
q0 122 75.5 187.5t199.5 65.5q0 -111 73 -185q72 -75 200 -75q31 0 63.5 9.5t32.5 32.5q0 12 -7 22q-39 -19 -82 -19q-99 0 -163 61t-64 159q0 137 105 217z" />
    <glyph glyph-name="uni090A" unicode="&#x90a;" horiz-adv-x="1797" 
d="M453 924q60 -11 125 -11q67 0 67 31q0 16 -4 23h-656q-61 85 -61 180q0 50 14 91.5t47 92.5h1821q34 -51 48 -91t14 -93q0 -94 -62 -180h-647q0 57 -17 95.5t-41 38.5q-17 0 -26 -16q31 -37 31 -118q0 -97 -74 -160q27 -27 30 -31q121 113 291 113q171 0 292 -109
q132 -120 132 -322q0 -180 -110 -290q-111 -111 -272 -111q-127 0 -210 65t-83 189q0 66 26 119t69 80q28 -25 66 -25q25 0 43 10.5t18 33.5q0 49 -73 49t-133 -66q-69 -78 -69 -200q0 -65 20 -109q-46 -75 -181 -136q-134 -61 -302 -61q-244 0 -404 127q-162 127 -162 316
q0 122 75.5 187.5t199.5 65.5q0 -111 73 -185q72 -75 200 -75q31 0 63.5 9.5t32.5 32.5q0 12 -7 22q-39 -19 -82 -19q-99 0 -163 61t-64 159q0 137 105 217z" />
    <glyph glyph-name="uni090B" unicode="&#x90b;" horiz-adv-x="1758" 
d="M715 870q22 3 21.5 27t-26.5 57q-56 69 -151.5 104t-193.5 35q-97 0 -176 -35.5t-125 -90.5h-113q-62 86 -62 180q0 53 14 93t48 91h1815q34 -51 48 -91t14 -93q0 -94 -62 -180h-123q-83 94 -260 94q-116 0 -203.5 -68.5t-87.5 -180.5q0 -107 44 -107q13 0 20 4
q-11 39 -11 86q0 101 67 162t169 61q137 0 205 -64q69 -64 69 -163q0 -70 -37 -107q-47 31 -84 31q-36 0 -39 -29q104 -23 173 -111t69 -194q0 -141 -86 -228t-227 -87q-129 0 -203 67t-74 196q0 11 2 67q20 -5 45 -5q61 0 106 24q45 23 45 51q0 13 -14 21q-51 -51 -157 -51
q-37 0 -75 13q-13 -145 6 -223q11 -45 32 -79q-28 -72 -95.5 -113.5t-158.5 -41.5q-96 0 -170 49.5t-97 139.5q106 139 120 159q36 56 -9 71l-148 -183q-65 -80 -129 -116t-154 -36q-107 0 -170 74.5t-63 183.5q0 46 4 69l435 205q6 36 -11 51q-14 11 -33 11q-21 0 -34 -13
t-13 -36l-260 -122q-61 26 -96.5 90.5t-35.5 133.5q0 142 101 233.5t245 91.5q229 0 350 -178z" />
    <glyph glyph-name="uni090C" unicode="&#x90c;" horiz-adv-x="1507" 
d="M-25 967q-61 85 -61 180q0 50 14 91.5t47 92.5h1549q33 -50 47 -89.5t14 -94.5q0 -95 -61 -180h-226v-48q87 -45 135 -146t48 -207q0 -144 -83 -256q-52 21 -110 33q-16 -41 -69 -91q-52 -48 -125 -65q0 -28 30 -28q52 0 109 42.5t84 92.5q81 -22 126.5 -77.5
t45.5 -137.5q0 -60 -23 -110t-61 -82.5t-89 -55t-104 -32t-109 -9.5q-70 0 -132 15.5t-115 47t-84 87.5t-31 129q0 79 37.5 137t108.5 113q90 65 125 106q21 25 21 54t-27 29q-30 -71 -98.5 -110.5t-154.5 -39.5q-84 0 -154.5 43.5t-98.5 120.5q-29 0 -29 -33q0 -59 74 -113
q74 -56 155 -63q23 -51 23 -98q0 -107 -68.5 -165t-177.5 -58q-90 0 -173.5 39t-146.5 111q-137 154 -137 378q0 179 110 307q121 142 322 142q88 0 166 -48.5t125 -136.5q26 59 80 104.5t115 51.5q0 33 -37 33q-40 0 -85 -32.5t-73 -71.5q-47 66 -128.5 105.5t-178.5 39.5
q-98 0 -209 -47h-252z" />
    <glyph glyph-name="uni090D" unicode="&#x90d;" horiz-adv-x="1039" 
d="M689 330q120 0 219 51q62 -85 62 -178q0 -119 -78.5 -176.5t-202.5 -57.5q-162 0 -290.5 58.5t-208.5 161.5t-122 237.5t-42 292.5v248h-52q-61 85 -61 180q0 50 14 91.5t47 92.5h1088q34 -51 48 -91t14 -93q0 -94 -62 -180h-64q21 -74 21 -152q0 -72 -9 -133.5
t-32.5 -119t-60 -98t-94.5 -65t-134 -24.5q-118 0 -198 83q-13 -12 -13 -28q0 -42 64 -70q63 -30 147 -30zM495 784q27 0 47 31t20 78q0 50 -10 74h-57v-183zM169 1634q0 84 53 134q52 49 103 49q29 -49 86.5 -78t116.5 -29q67 0 121 28.5t81 78.5q53 0 108 -49
q56 -50 56 -134q0 -102 -88 -172q-101 -80 -275 -80q-175 0 -273 80q-89 71 -89 172z" />
    <glyph glyph-name="uni090E" unicode="&#x90e;" horiz-adv-x="1039" 
d="M495 784q27 0 47 31t20 78q0 50 -10 74h-57v-183zM439 1376q-64 0 -118 13t-100 40.5t-72.5 77t-26.5 115.5q0 134 110 224l92 -11q7 -34 38 -51q45 -25 194 -37q47 -4 85 -9.5t83 -16.5t79.5 -25.5t68 -38t55 -53.5t35 -72t13.5 -93q0 -63 -21 -108h108q34 -51 48 -91
t14 -93q0 -94 -62 -180h-64q21 -74 21 -152q0 -72 -9 -133.5t-32.5 -119t-60 -98t-94.5 -65t-134 -24.5q-118 0 -198 83q-13 -12 -13 -28q0 -42 64 -70q63 -30 147 -30q120 0 219 51q62 -85 62 -178q0 -119 -78.5 -176.5t-202.5 -57.5q-162 0 -290.5 58.5t-208.5 161.5
t-122 237.5t-42 292.5v248h-52q-61 85 -61 180q0 50 14 91.5t47 92.5h685q15 3 15 16q0 33 -92 33z" />
    <glyph glyph-name="uni090F" unicode="&#x90f;" horiz-adv-x="1039" 
d="M689 330q120 0 219 51q62 -85 62 -178q0 -119 -78.5 -176.5t-202.5 -57.5q-162 0 -290.5 58.5t-208.5 161.5t-122 237.5t-42 292.5v248h-52q-61 85 -61 180q0 50 14 91.5t47 92.5h1088q34 -51 48 -91t14 -93q0 -94 -62 -180h-64q21 -74 21 -152q0 -72 -9 -133.5
t-32.5 -119t-60 -98t-94.5 -65t-134 -24.5q-118 0 -198 83q-13 -12 -13 -28q0 -42 64 -70q63 -30 147 -30zM495 784q27 0 47 31t20 78q0 50 -10 74h-57v-183z" />
    <glyph glyph-name="uni0910" unicode="&#x910;" horiz-adv-x="1039" 
d="M495 784q27 0 47 31t20 78q0 50 -10 74h-57v-183zM689 330q120 0 219 51q62 -85 62 -178q0 -119 -78.5 -176.5t-202.5 -57.5q-162 0 -290.5 58.5t-208.5 161.5t-122 237.5t-42 292.5v248h-52q-61 85 -61 180q0 50 14 91.5t47 92.5h668q22 0 28.5 15.5t-3.5 29.5
q-65 0 -127.5 7.5t-129.5 25.5t-123.5 53.5t-90.5 85.5q0 143 92 232q91 88 213 88q88 0 162 -30t124.5 -81t86 -120t52 -146t17.5 -160h119q34 -51 48 -91t14 -93q0 -94 -62 -180h-64q21 -74 21 -152q0 -72 -9 -133.5t-32.5 -119t-60 -98t-94.5 -65t-134 -24.5
q-118 0 -198 83q-13 -12 -13 -28q0 -42 64 -70q63 -30 147 -30z" />
    <glyph glyph-name="uni0911" unicode="&#x911;" horiz-adv-x="2074" 
d="M1376 1634q0 84 53 134q52 49 103 49q29 -49 86.5 -78t116.5 -29q67 0 121 28.5t81 78.5q53 0 108 -49q56 -50 56 -134q0 -102 -88 -172q-101 -80 -275 -80q-175 0 -273 80q-89 71 -89 172zM2048 385q0 -122 57 -190q-18 -95 -88.5 -149t-175.5 -54q-78 0 -142 30t-99 86
q24 48 30 108q-35 35 -47 74.5t-12 97.5v579h-54v-582q0 -122 57 -190q-18 -95 -88.5 -149t-169.5 -54q-102 0 -175 45t-99 130q61 98 61 215q0 81 -29 137q-26 47 -55 47q-19 0 -25 -17q56 -65 56 -164q0 -174 -137 -281q-137 -108 -369 -108q-205 0 -359 118
q-165 125 -165 314q0 120 77.5 186t199.5 68q2 -126 76 -202.5t200 -76.5q61 0 61 34q0 8 -3 17q-23 -6 -51 -6q-108 0 -170 61.5t-62 164.5q0 99 63 161t162 62q33 0 47 -3q3 6 3 13q0 35 -66 35q-74 0 -141 -45.5t-101 -113.5q-122 11 -194 106q-63 84 -63 182
q78 140 203 215.5t284 75.5q227 0 357 -112t130 -297q0 -54 -10 -81q12 -7 19 -7q25 0 34.5 33t9.5 66q0 162 -96 271q6 55 60 96h1049q33 -50 47 -89.5t14 -94.5q0 -95 -61 -180h-50v-582z" />
    <glyph glyph-name="uni0912" unicode="&#x912;" horiz-adv-x="2074" 
d="M1486 1376q-64 0 -118 13t-100 40.5t-72.5 77t-26.5 115.5q0 134 110 224l92 -11q7 -34 38 -51q45 -25 194 -37q47 -4 85 -9.5t83 -16.5t79.5 -25.5t68 -38t55 -53.5t35 -72t13.5 -93q0 -63 -21 -108h97q33 -50 47 -89.5t14 -94.5q0 -95 -61 -180h-50v-582
q0 -122 57 -190q-18 -95 -88.5 -149t-175.5 -54q-78 0 -142 30t-99 86q24 48 30 108q-35 35 -47 74.5t-12 97.5v579h-54v-582q0 -122 57 -190q-18 -95 -88.5 -149t-169.5 -54q-102 0 -175 45t-99 130q61 98 61 215q0 81 -29 137q-26 47 -55 47q-19 0 -25 -17q56 -65 56 -164
q0 -174 -137 -281q-137 -108 -369 -108q-205 0 -359 118q-165 125 -165 314q0 120 77.5 186t199.5 68q2 -126 76 -202.5t200 -76.5q61 0 61 34q0 8 -3 17q-23 -6 -51 -6q-108 0 -170 61.5t-62 164.5q0 99 63 161t162 62q33 0 47 -3q3 6 3 13q0 35 -66 35q-74 0 -141 -45.5
t-101 -113.5q-122 11 -194 106q-63 84 -63 182q78 140 203 215.5t284 75.5q227 0 357 -112t130 -297q0 -54 -10 -81q12 -7 19 -7q25 0 34.5 33t9.5 66q0 162 -96 271q6 55 60 96h657q15 3 15 16q0 33 -92 33z" />
    <glyph glyph-name="uni0913" unicode="&#x913;" horiz-adv-x="2074" 
d="M2048 385q0 -122 57 -190q-18 -95 -88.5 -149t-175.5 -54q-78 0 -142 30t-99 86q24 48 30 108q-35 35 -47 74.5t-12 97.5v579h-54v-582q0 -122 57 -190q-18 -95 -88.5 -149t-169.5 -54q-102 0 -175 45t-99 130q61 98 61 215q0 81 -29 137q-26 47 -55 47q-19 0 -25 -17
q56 -65 56 -164q0 -174 -137 -281q-137 -108 -369 -108q-205 0 -359 118q-165 125 -165 314q0 120 77.5 186t199.5 68q2 -126 76 -202.5t200 -76.5q61 0 61 34q0 8 -3 17q-23 -6 -51 -6q-108 0 -170 61.5t-62 164.5q0 99 63 161t162 62q33 0 47 -3q3 6 3 13q0 35 -66 35
q-74 0 -141 -45.5t-101 -113.5q-122 11 -194 106q-63 84 -63 182q78 140 203 215.5t284 75.5q227 0 357 -112t130 -297q0 -54 -10 -81q12 -7 19 -7q25 0 34.5 33t9.5 66q0 162 -96 271q6 55 60 96h659q22 0 28.5 15.5t-3.5 29.5q-65 0 -127.5 7.5t-129.5 25.5t-123.5 53.5
t-90.5 85.5q0 143 92 232q91 88 213 88q88 0 162 -30t124.5 -81t86 -120t52 -146t17.5 -160h89q33 -50 47 -89.5t14 -94.5q0 -95 -61 -180h-50v-582z" />
    <glyph glyph-name="uni0914" unicode="&#x914;" horiz-adv-x="2074" 
d="M2098 1331q33 -50 47 -89.5t14 -94.5q0 -95 -61 -180h-50v-582q0 -122 57 -190q-18 -95 -88.5 -149t-175.5 -54q-78 0 -142 30t-99 86q24 48 30 108q-35 35 -47 74.5t-12 97.5v579h-54v-582q0 -122 57 -190q-18 -95 -88.5 -149t-169.5 -54q-102 0 -175 45t-99 130
q61 98 61 215q0 81 -29 137q-26 47 -55 47q-19 0 -25 -17q56 -65 56 -164q0 -174 -137 -281q-137 -108 -369 -108q-205 0 -359 118q-165 125 -165 314q0 120 77.5 186t199.5 68q2 -126 76 -202.5t200 -76.5q61 0 61 34q0 8 -3 17q-23 -6 -51 -6q-108 0 -170 61.5t-62 164.5
q0 99 63 161t162 62q33 0 47 -3q3 6 3 13q0 35 -66 35q-74 0 -141 -45.5t-101 -113.5q-122 11 -194 106q-63 84 -63 182q78 140 203 215.5t284 75.5q227 0 357 -112t130 -297q0 -54 -10 -81q12 -7 19 -7q25 0 34.5 33t9.5 66q0 162 -96 271q6 55 60 96h595q40 0 40 28
q0 7 -3 15q-121 0 -247.5 29.5t-192.5 93.5q0 126 77 209q76 82 179 82q208 0 317 -217q21 6 21 33.5t-24 65.5q-50 73 -127 116.5t-165 47.5q1 88 61 140.5t150 52.5q81 0 146.5 -32t106 -86t62 -123.5t21.5 -148.5q0 -139 -66 -306h98z" />
    <glyph glyph-name="uni0915" unicode="&#x915;" horiz-adv-x="1648" 
d="M549 539q10 0 12 1v124q-2 1 -15 1q-27 0 -44 -18.5t-17 -46.5q0 -27 17.5 -44t46.5 -17zM1118 166q-56 -174 -266 -174q-117 0 -193.5 72t-76.5 188v45q-52 0 -52 -59q0 -24 8 -56q-45 -20 -116 -20q-176 0 -289 115.5t-113 291.5q0 182 112 304t292 122q127 0 209 -61
q7 10 7 22q0 33 -61 58q-63 26 -155 26q-146 0 -258 -73h-191q-61 85 -61 180q0 50 14 91.5t47 92.5h1676q35 -53 48.5 -90.5t13.5 -93.5q0 -94 -62 -180h-164q-109 73 -252 73q-93 0 -153 -25q-62 -26 -62 -64q0 -13 8 -21q92 65 207 65q173 0 287 -129q51 -56 78.5 -131
t27.5 -151q0 -190 -100 -300q-100 -112 -240 -112q-118 0 -183 63.5t-65 177.5q0 73 30 150q19 -11 36 -11q20 0 32 14.5t12 41.5q0 25 -14.5 41t-36.5 16q-21 0 -34 -5q-37 -37 -57.5 -110.5t-20.5 -136.5q0 -170 131 -247z" />
    <glyph glyph-name="uni0916" unicode="&#x916;" horiz-adv-x="1572" 
d="M569 411q102 0 173 59q91 -118 258 -118q17 0 37 2t45.5 7t42.5 16.5t17 28.5q0 10 -4 17q-64 -26 -137 -26q-116 0 -191 73.5t-75 189.5t81 189t198 73q84 0 132 -22q4 7 4 17q0 50 -147 50q-135 0 -228 -87.5t-93 -221.5q0 -82 33 -145q-22 -26 -69.5 -42t-95.5 -16
t-63 4q-1 -1 -1 -4v-5q0 -26 28 -33q20 -6 55 -6zM446 848q42 18 42 57t-23 62h-490q-61 85 -61 180q0 50 14 91.5t47 92.5h1621q33 -50 47 -89.5t14 -94.5q0 -95 -61 -180h-50v-582q0 -120 58 -190q-18 -94 -89.5 -148.5t-175.5 -54.5q-59 0 -114.5 19t-89.5 53
q39 55 39 115q0 59 -42 63q0 -136 -89 -209.5t-228 -73.5q-171 0 -305 111q-100 85 -242 290q-105 14 -176.5 98t-71.5 191q0 115 69 194t182 79t175 -74z" />
    <glyph glyph-name="uni0917" unicode="&#x917;" horiz-adv-x="1167" 
d="M677 916q-23 43 -48 67.5t-45 24.5t-31 -15q64 -61 95.5 -149.5t31.5 -184.5q0 -173 -91 -279t-261 -106q-137 0 -222 79q-86 80 -86 192q0 81 33 151q26 -12 53 -12q48 0 74.5 30.5t26.5 87.5q0 54 -20.5 98t-51.5 67h-160q-61 85 -61 180q0 50 14 91.5t47 92.5h1216
q33 -50 47 -89.5t14 -94.5q0 -95 -61 -180h-50v-582q0 -122 57 -190q-19 -96 -91 -149.5t-181 -53.5q-123 0 -198 72.5t-75 195.5v109q80 122 80 281q0 157 -56 266z" />
    <glyph glyph-name="uni0918" unicode="&#x918;" horiz-adv-x="1102" 
d="M-93 1147q0 50 14 91.5t47 92.5h1158q33 -50 47 -89.5t14 -94.5q0 -95 -61 -180h-50v-582q0 -120 58 -190q-19 -94 -89.5 -148.5t-166.5 -54.5q-97 0 -169.5 40t-101.5 118q60 10 141.5 63.5t81.5 101.5q0 19 -20 27q-55 -79 -151.5 -123.5t-219.5 -44.5q-69 0 -133.5 17
t-119 50.5t-87 91t-32.5 130.5q0 60 31.5 115.5t84.5 75.5q72 -24 151 -24q18 0 37 1t49.5 5.5t49.5 15t19 26.5q0 11 -7 18q-71 -20 -143 -20q-111 0 -184.5 58.5t-73.5 166.5q0 58 27 109.5t78 79.5q-4 21 -25 21q-41 0 -75.5 -48t-45.5 -96h-72q-61 85 -61 180z" />
    <glyph glyph-name="uni0919" unicode="&#x919;" horiz-adv-x="1362" 
d="M1125 428q-91 0 -155 63t-64 154q0 92 63.5 155.5t155.5 63.5q93 0 155 -63.5t62 -157.5q0 -92 -62.5 -153.5t-154.5 -61.5zM633 389q0 1 -0.5 2.5t-1 4.5t-0.5 6q-23 -3 -77 -3q-105 0 -200 49.5t-135 139.5q-70 -12 -119 -43q-67 91 -67 192q0 142 95 226t239 84
q94 0 180 -23q3 8 3 14q0 54 -177 54q-200 0 -304 -125h-94q-61 85 -61 180q0 50 14 91.5t47 92.5h1399q34 -51 48 -91t14 -93q0 -94 -62 -180h-379v-88q-83 -38 -123 -127q-81 26 -165 26q-169 0 -169 -57q0 -8 5 -16q65 28 153 28q84 0 159 -26q-4 -24 -4 -59
q0 -100 62.5 -173.5t161.5 -91.5v-5q-1 -105 -43.5 -186.5t-114.5 -130t-161 -72.5t-190 -24q-232 0 -383 100q-152 99 -152 263q0 158 162 207q46 -86 147 -133.5t207 -47.5q86 0 86 35z" />
    <glyph glyph-name="uni091A" unicode="&#x91a;" horiz-adv-x="1326" 
d="M1411 1147q0 -95 -61 -180h-50v-582q0 -120 58 -190q-19 -94 -89.5 -148.5t-167.5 -54.5q-189 0 -272 121q57 25 123 74.5t66 91.5q0 21 -21 32q-65 -99 -183 -152t-245 -53q-85 0 -160.5 20t-138.5 59.5t-100 108t-37 157.5q0 80 35 139q-68 6 -108 67.5t-40 134.5
q0 84 37 130h723q43 -64 43 -149q0 -79 -39.5 -132t-115.5 -53h-80q-28 -25 -11.5 -54.5t57.5 -29.5q67 0 89 43q153 41 153 220q0 55 -18.5 110.5t-45.5 89.5h-837q-61 85 -61 180q0 50 14 91.5t47 92.5h1375q33 -50 47 -89.5t14 -94.5z" />
    <glyph glyph-name="uni091B" unicode="&#x91b;" horiz-adv-x="1292" 
d="M441 673q0 41 -100 41q-98 0 -185 -41q-37 26 -57.5 83t-20.5 123q0 65 38 125.5t97 88.5q-6 20 -39 20q-41 0 -79.5 -49.5t-52.5 -96.5h-67q-61 85 -61 180q0 50 14 91.5t47 92.5h1327q33 -50 47 -89.5t14 -94.5q0 -95 -61 -180h-169q-43 20 -113 32v27q0 53 -11 69
q-10 13 -42 13v-107q-147 0 -238.5 -95t-91.5 -242q0 -125 82 -219q34 -39 73.5 -61.5t73.5 -22.5q21 0 21 21v5q-90 31 -143.5 105.5t-53.5 169.5q0 127 77.5 210.5t203.5 83.5q76 0 134.5 -28.5t94.5 -78.5t54 -113t18 -136q0 -208 -96 -355q-90 -135 -238.5 -202.5
t-321.5 -67.5q-268 0 -420 113q-153 112 -153 292q0 131 89.5 210t222.5 79q55 0 81 -13q5 14 5 17z" />
    <glyph glyph-name="uni091C" unicode="&#x91c;" horiz-adv-x="1382" 
d="M-66 1147q0 50 14 91.5t47 92.5h1411q33 -50 47 -89.5t14 -94.5q0 -95 -61 -180h-50v-582q0 -122 57 -190q-19 -94 -89.5 -148.5t-166.5 -54.5q-97 0 -168 39t-100 116q127 115 127 265q0 28 -6 60.5t-25 63.5t-47 31q-13 0 -20 -4q45 -69 45 -151q0 -124 -94 -214
q-106 -100 -291 -100q-235 0 -399 137q-76 63 -117.5 146.5t-41.5 175.5q0 124 79.5 199t205.5 75q-4 -17 -4 -53q0 -121 70 -205t188 -84q55 0 55 41q-124 0 -192 67t-68 185q0 33 9.5 75.5t25.5 64.5h555q0 25 -14.5 35t-55.5 10h-879q-61 85 -61 180z" />
    <glyph glyph-name="uni091D" unicode="&#x91d;" horiz-adv-x="1513" 
d="M-25 967q-61 85 -61 180q0 50 14 91.5t47 92.5h1562q33 -50 47 -89.5t14 -94.5q0 -95 -61 -180h-50v-582q0 -122 57 -190q-18 -95 -88.5 -149t-175.5 -54q-83 0 -151.5 35.5t-100.5 99.5q42 41 71 100.5t29 114.5q0 39 -43 49q-3 -74 -30.5 -135t-71 -101.5t-103.5 -70.5
t-122.5 -45.5t-132.5 -22.5q0 -36 79 -36q39 0 107.5 18t95.5 39q15 -54 15 -104q0 -102 -62 -161t-171 -59q-216 0 -335 307q-156 19 -262 70q-51 96 -51 183q0 114 78.5 182.5t194.5 68.5q111 0 193.5 -65t94.5 -173q33 2 33 40q0 36 -20 79q-39 78 -119 121t-171 43
q-115 0 -196 -45q-88 91 -88 226q0 85 49.5 149t123 94.5t156.5 30.5h171q1 1 1 9q0 36 -54 36h-118q-178 0 -284 -102h-111zM698 762q174 0 314 -99q31 26 44 67.5t13 110.5v122q0 81 -53 81v-187q0 -96 -20 -128q-126 78 -290 78q-71 0 -112 -14t-41 -41q0 -1 0.5 -2.5
t1 -4.5t0.5 -6q57 23 143 23z" />
    <glyph glyph-name="uni091E" unicode="&#x91e;" horiz-adv-x="1201" 
d="M-97 1147q0 50 14 91.5t47 92.5h1261q33 -50 47 -89.5t14 -94.5q0 -95 -61 -180h-50v-582q0 -122 57 -190q-18 -93 -87.5 -148t-165.5 -55q-208 0 -272 154q66 45 121.5 122t55.5 146q0 47 -35 47q-29 -158 -145.5 -249t-279.5 -91q-74 0 -145 22.5t-129.5 64t-94 106
t-35.5 142.5q0 50 22.5 105t59.5 80q51 -48 126 -81t142 -33q115 0 115 66q0 56 -48 56q-50 0 -59 -77q-53 0 -125 27q-78 29 -132 87.5t-68 136.5q41 111 148 179.5t228 68.5q111 0 205 -50t154 -142q26 5 26 28q0 18 -25 52q-57 81 -191 131q-73 26 -172 26
q-186 0 -346 -149h-116q-61 85 -61 180z" />
    <glyph glyph-name="uni091F" unicode="&#x91f;" horiz-adv-x="1091" 
d="M1142 1147q0 -95 -61 -180h-109q17 -76 17 -117q0 -63 -22.5 -114.5t-56 -85t-86.5 -61.5t-98.5 -43.5t-108.5 -32.5q-102 -28 -120 -41q-10 -8 -10 -17q0 -37 87 -37q76 0 187 44t152 99q74 -39 116 -101.5t42 -140.5q0 -145 -146 -237q-148 -92 -354 -92
q-247 0 -398 127q-153 126 -153 332q0 165 101 278t266 154q99 25 139.5 58.5t40.5 90.5q0 36 -9 59q-14 29 -40 29q-12 0 -22 -6q18 -40 18 -74q0 -56 -37 -71h-477q-61 85 -61 180q0 50 14 91.5t47 92.5h1081q33 -50 47 -89.5t14 -94.5z" />
    <glyph glyph-name="uni0920" unicode="&#x920;" horiz-adv-x="1184" 
d="M-65 1147q0 50 14 91.5t47 92.5h1196q34 -51 48 -91t14 -93q0 -94 -62 -180h-189q6 -32 6 -70q0 -71 -37 -109q-64 33 -109 33q-34 0 -43 -33q145 -34 244.5 -146t99.5 -257q0 -93 -33 -166.5t-86.5 -120t-128.5 -77t-152.5 -42.5t-163.5 -12q-259 0 -416 120
q-164 123 -164 333q0 169 97.5 285.5t264.5 166.5q109 33 146 63q47 35 47 100t-40 65q-13 0 -20 -4q6 -34 6 -54q0 -55 -47 -75h-478q-61 86 -61 180zM613 477q-99 -25 -99 -65q0 -21 22 -32t57 -11q34 0 55.5 12.5t21.5 33.5q0 36 -57 62z" />
    <glyph glyph-name="uni0921" unicode="&#x921;" horiz-adv-x="1095" 
d="M633 389q0 1 -0.5 2.5t-1 4.5t-0.5 6q-23 -3 -77 -3q-105 0 -200 49.5t-135 139.5q-70 -12 -119 -43q-67 91 -67 192q0 142 95 226t239 84q94 0 180 -23q3 8 3 14q0 54 -177 54q-200 0 -304 -125h-97q-61 85 -61 180q0 50 14 91.5t47 92.5h1131q34 -51 48 -91t14 -93
q0 -94 -62 -180h-108v-119q0 -42 -17 -75.5t-46 -45.5q-99 51 -225 51q-169 0 -169 -57q0 -8 5 -16q68 28 151 28q168 0 274.5 -91t106.5 -259q0 -106 -42 -188.5t-114 -131.5t-161.5 -73.5t-191.5 -24.5q-232 0 -383 100q-152 99 -152 263q0 158 162 207q46 -86 147 -133.5
t207 -47.5q86 0 86 35z" />
    <glyph glyph-name="uni0922" unicode="&#x922;" horiz-adv-x="1166" 
d="M628 1087q0 48 -37 48h-14v-27q0 -35 -19.5 -51.5t-73.5 -28.5q-116 -23 -199 -61h-299q-62 86 -62 180q0 53 14 93t48 91h1188q34 -51 48 -91t14 -93q0 -94 -62 -180h-151q4 -32 4 -84q0 -99 -57 -147q-78 30 -160 30q-165 0 -266 -86q-102 -87 -102 -221
q0 -61 18.5 -100.5t50.5 -39.5q7 0 12 3q-28 53 -28 127q0 113 89 193q88 79 235 79q143 0 235 -98t92 -242q0 -110 -44 -192.5t-119.5 -130t-166.5 -70.5t-196 -23q-260 0 -430 140t-170 364q0 213 126 340t347 170q135 27 135 108zM769 332q74 0 74 47q0 15 -10 25t-28 10
t-30 -14q-22 -27 -6 -68z" />
    <glyph glyph-name="uni0923" unicode="&#x923;" horiz-adv-x="1407" 
d="M-85 1147q0 50 14 91.5t47 92.5h1455q33 -50 47 -89.5t14 -94.5q0 -95 -61 -180h-50v-582q0 -120 58 -190q-19 -96 -91 -149.5t-181 -53.5q-122 0 -197.5 72t-75.5 194v118q121 133 121 347q0 30 -2.5 66t-10.5 88.5t-27.5 86.5t-47.5 34q-13 0 -21 -5q56 -98 56 -261
q0 -216 -132 -338q-131 -121 -333 -121q-218 0 -344.5 134t-126.5 354q0 84 9 206h-59q-61 85 -61 180zM456 819q0 -71 39 -71q18 0 28 13t10 68q0 54 -15 138h-56q-6 -125 -6 -148z" />
    <glyph glyph-name="uni0924" unicode="&#x924;" horiz-adv-x="1139" 
d="M479 1042q-93 0 -165 -16.5t-150 -58.5h-188q-61 85 -61 180q0 50 14 91.5t47 92.5h1187q33 -50 47 -89.5t14 -94.5q0 -95 -61 -180h-50v-582q0 -120 58 -190q-19 -95 -90.5 -149t-173.5 -54q-81 0 -147 31.5t-101 94.5q34 47 34 118q0 70 -67 183v167q-22 16 -47 16
q-26 0 -41 -18q-28 -32 -9 -80q8 -19 18 -38l4 -8l4 -8l3 -6q8 -15 25 -45q60 -113 60 -161q0 -53 -23 -95.5t-59 -69.5t-85 -46.5t-94.5 -29t-94.5 -13.5l-58 75q-209 272 -209 508q0 208 124.5 319t334.5 111q103 0 186 -24q2 8 2 13q0 56 -188 56z" />
    <glyph glyph-name="uni0925" unicode="&#x925;" horiz-adv-x="1355" 
d="M841 954q0 -135 -67 -242t-191 -139q9 -28 41 -28q34 0 86 31q87 53 135.5 154.5t48.5 208.5q0 80 -23 160t-69 136q6 55 60 96h517q33 -50 47 -89.5t14 -94.5q0 -95 -61 -180h-50v-582q0 -122 57 -190q-19 -95 -90.5 -149t-172.5 -54t-171.5 43.5t-100.5 126.5
q73 35 112.5 70t39.5 59q0 22 -17 34q-61 -76 -160 -119.5t-222 -43.5q-261 0 -422.5 158.5t-161.5 419.5q24 -2 34 -2h42q167 0 262.5 56t95.5 152q0 64 -49 64q-16 0 -27.5 -12.5t-11.5 -30.5q0 -39 33 -52q-15 -56 -79 -90.5t-155 -40.5q-49 15 -98 84q-51 68 -51 156
q0 148 112 248t295 100q203 0 318 -139q100 -121 100 -279z" />
    <glyph glyph-name="uni0926" unicode="&#x926;" horiz-adv-x="1136" 
d="M1014 221q37 -58 110 -174q0 -113 -73.5 -183.5t-186.5 -70.5q-115 0 -191 67q-69 57 -83 140q23 0 57.5 4t74 12.5t67 25t27.5 37.5q0 11 -7 21q-104 -55 -246 -55q-109 0 -206.5 31.5t-173 90.5t-119.5 151t-44 204q0 125 44 220t122.5 152t179.5 85.5t222 28.5
q0 26 -19 34t-81 8t-147.5 -25t-135.5 -58h-230q-61 85 -61 180q0 50 14 91.5t47 92.5h1163q34 -51 48 -91t14 -93q0 -94 -62 -180h-95v-33q0 -56 -13 -100.5t-49.5 -77.5t-93.5 -33q-37 6 -78 6q-131 0 -222 -69.5t-91 -196.5q0 -87 46 -87q9 0 15 3q-8 27 -8 80
q0 106 76 165.5t186 59.5q118 0 196 -86t109 -211q-22 -76 -102 -166z" />
    <glyph glyph-name="uni0927" unicode="&#x927;" horiz-adv-x="1252" 
d="M722 1124q0 60 -16 111q6 57 59 96h511q33 -50 47 -89.5t14 -94.5q0 -95 -61 -180h-50v-582q0 -122 57 -190q-19 -95 -90.5 -149t-173.5 -54q-73 0 -135.5 27.5t-100.5 78.5q84 37 143 99q58 61 58 91t-27 44q-36 -79 -115.5 -135.5t-168.5 -80.5t-179 -24
q-64 0 -124.5 10t-119 34t-102 60t-70 92.5t-26.5 126.5q0 66 37.5 130t97.5 82q97 -47 224 -47q48 0 72 8t24 30q0 1 -2 15q-35 -8 -94 -8q-181 0 -296.5 111t-115.5 283q0 169 109 266t252 97q129 0 218 -64t89 -188q0 -113 -71 -167q-58 -45 -135 -45t-119 33
q-13 -7 -13 -23q0 -27 44.5 -41t78.5 -14q120 0 195 66t75 185z" />
    <glyph glyph-name="uni0928" unicode="&#x928;" horiz-adv-x="1187" 
d="M-71 1147q0 50 14 91.5t47 92.5h1221q33 -50 47 -89.5t14 -94.5q0 -95 -61 -180h-50v-582q0 -122 57 -190q-19 -96 -91 -149.5t-180 -53.5q-122 0 -192.5 72t-70.5 196v283q-19 22 -66 22q-16 0 -24 -4q12 -17 21.5 -52t9.5 -73q0 -116 -68.5 -181t-185.5 -65
q-146 0 -248 110q-103 107 -103 263q0 94 34 164.5t94 112t135.5 62t165.5 20.5q126 0 235 -43v88h-694q-61 85 -61 180z" />
    <glyph glyph-name="uni0929" unicode="&#x929;" horiz-adv-x="1187" 
d="M-71 1147q0 50 14 91.5t47 92.5h1221q33 -50 47 -89.5t14 -94.5q0 -95 -61 -180h-50v-582q0 -122 57 -190q-19 -96 -91 -149.5t-180 -53.5q-122 0 -192.5 72t-70.5 196v283q-19 22 -66 22q-16 0 -24 -4q12 -17 21.5 -52t9.5 -73q0 -116 -68.5 -181t-185.5 -65
q-146 0 -248 110q-103 107 -103 263q0 94 34 164.5t94 112t135.5 62t165.5 20.5q126 0 235 -43v88h-694q-61 85 -61 180zM531 137q57 0 96.5 -39.5t39.5 -96.5t-40 -95.5t-97 -38.5t-95.5 39t-38.5 96q0 56 40 95.5t95 39.5z" />
    <glyph glyph-name="uni092A" unicode="&#x92a;" horiz-adv-x="1063" 
d="M-87 1147q0 50 14 91.5t47 92.5h1113q33 -50 47 -89.5t14 -94.5q0 -95 -61 -180h-50v-582q0 -120 58 -190q-19 -96 -90.5 -149.5t-181.5 -53.5q-123 0 -198 72.5t-75 195.5v41q69 7 146 49q75 40 75 80q0 19 -14 30q-48 -56 -131.5 -88t-177.5 -32q-193 0 -307.5 115
t-114.5 309q0 113 16 203h-68q-61 85 -61 180zM495 967q-9 -35 -9 -95q0 -94 66 -104v199h-57z" />
    <glyph glyph-name="uni092B" unicode="&#x92b;" horiz-adv-x="1652" 
d="M1093 185q-20 -93 -93 -143t-171 -50q-126 0 -202.5 71.5t-76.5 196.5v41q22 3 51 11t62 21t55.5 33t22.5 41q0 15 -10 28q-52 -45 -130 -70t-153 -25q-193 0 -307.5 115t-114.5 309q0 113 16 203h-68q-61 85 -61 180q0 50 14 91.5t47 92.5h1681q34 -51 48 -91t14 -93
q0 -94 -62 -180h-164q-112 73 -252 73q-91 0 -152 -27q-61 -28 -61 -61q0 -14 6 -22q92 65 207 65q173 0 287 -129q51 -56 78.5 -131t27.5 -151q0 -190 -100 -300q-100 -112 -240 -112q-118 0 -183 63.5t-65 177.5q0 73 30 150q19 -11 36 -11q20 0 32 14.5t12 41.5
q0 24 -17 39.5t-37 15.5q-19 0 -31 -3q-37 -37 -57.5 -110.5t-20.5 -136.5q0 -147 102 -228zM495 967q-9 -35 -9 -95q0 -94 66 -104v199h-57z" />
    <glyph glyph-name="uni092C" unicode="&#x92c;" horiz-adv-x="1077" 
d="M658 458q22 0 34 17q-66 36 -171.5 140.5t-135.5 164.5q-20 -11 -20 -34q0 -36 56 -104q47 -57 119.5 -120.5t117.5 -63.5zM852 -8q-93 0 -165 38.5t-105 119.5q39 2 94 27.5t55 56.5q0 13 -10 23q-95 -71 -239 -71q-184 0 -314 103q-148 115 -148 326q0 201 129 312.5
t333 111.5q68 0 131 -16.5t102 -43.5q4 7 4 18q0 36 -74 63q-72 24 -165 24q-224 0 -361 -117h-144q-61 85 -61 180q0 50 14 91.5t47 92.5h1126q33 -50 47 -89.5t14 -94.5q0 -95 -61 -180h-50v-582q0 -122 57 -190q-19 -94 -89.5 -148.5t-166.5 -54.5z" />
    <glyph glyph-name="uni092D" unicode="&#x92d;" horiz-adv-x="1384" 
d="M393 971q-18 0 -31.5 -12.5t-13.5 -30.5q0 -39 49 -51v-97q-48 -9 -104 -33.5t-94 -56.5q-77 26 -138 110q-61 85 -61 201q0 145 111 258q110 113 288 113q216 0 324 -122t108 -353v-139q37 -8 54 -13v199q0 71 -22 155t-58 136q6 57 59 96h544q33 -50 47 -89.5t14 -94.5
q0 -95 -61 -180h-50v-582q0 -122 57 -190q-18 -96 -89 -149.5t-181 -53.5q-124 0 -199.5 72t-75.5 196v173q-17 11 -51 11v-73q0 -121 -77.5 -191.5t-200.5 -70.5q-103 0 -193 42t-147.5 124t-57.5 186q0 116 80 187t230 89v129q0 105 -60 105z" />
    <glyph glyph-name="uni092E" unicode="&#x92e;" horiz-adv-x="1250" 
d="M747 967h-55v-148q20 -4 55 -14v162zM-62 1147q0 53 14 93t48 91h1274q33 -50 47 -89.5t14 -94.5q0 -95 -61 -180h-50v-582q0 -122 57 -190q-19 -96 -91 -149.5t-180 -53.5q-122 0 -192.5 72t-70.5 196v209q-12 14 -22.5 18.5t-32.5 4.5v-82q0 -108 -72 -185
q-74 -78 -205 -78q-158 0 -276.5 111t-118.5 268q0 221 205 285v156h-225q-62 86 -62 180z" />
    <glyph glyph-name="uni092F" unicode="&#x92f;" horiz-adv-x="1206" 
d="M-71 1147q0 50 14 91.5t47 92.5h1240q33 -50 47 -89.5t14 -94.5q0 -95 -61 -180h-50v-582q0 -69 12.5 -112t42.5 -78q-19 -94 -89.5 -148.5t-166.5 -54.5q-95 0 -167 39.5t-99 109.5q67 12 126 52q60 39 60 75q0 19 -14 25q-124 -119 -329 -119q-108 0 -204.5 32.5
t-170.5 91.5t-117.5 150.5t-43.5 202.5q0 93 39 166q29 -18 72 -18q40 0 69 23t29 63q0 56 -59 82h-180q-61 85 -61 180zM659 971q-17 0 -24 -15q27 -29 45.5 -76.5t18.5 -94.5q0 -97 -63 -152t-161 -55v-7q0 -35 51 -35q82 0 150 62q76 69 76 187q0 75 -31 130
q-32 56 -62 56z" />
    <glyph glyph-name="uni0930" unicode="&#x930;" horiz-adv-x="972" 
d="M664 -29q-69 0 -129.5 28t-101.5 67.5t-80 102.5t-62 114t-49 120q-97 26 -159.5 101.5t-62.5 173.5q0 121 77 200.5t198 79.5q139 0 211 -112q39 11 16 53q-17 33 -58 59q-73 46 -162 46q-91 0 -166 -37h-146q-61 85 -61 180q0 50 14 91.5t47 92.5h1009
q124 -190 -2 -364h-94q49 -73 49 -179q0 -113 -60 -199t-153.5 -130t-204.5 -49q0 -42 63 -42q98 0 170 44q64 -117 165 -191q-13 -111 -85 -180.5t-183 -69.5z" />
    <glyph glyph-name="uni0931" unicode="&#x931;" horiz-adv-x="972" 
d="M295 958q139 0 211 -112q39 11 16 53q-17 33 -58 59q-73 46 -162 46q-91 0 -166 -37h-145q-61 85 -61 180q0 50 14 91.5t47 92.5h1008q124 -190 -2 -364h-94q49 -73 49 -179q0 -113 -60 -199t-153.5 -130t-204.5 -49q0 -42 63 -42q98 0 170 44q64 -117 165 -191
q-13 -113 -86 -181.5t-186 -68.5q-120 0 -211 81q21 40 21 82q0 79 -56 128.5t-136 49.5q-5 11 -20 49.5t-16 41.5q-97 26 -159.5 101.5t-62.5 173.5q0 121 77 200.5t198 79.5zM378 228q40 -42 40 -96.5t-40 -94.5t-96 -40q-57 0 -94 40q-41 39 -41 95t39.5 95.5t95.5 39.5
t96 -39z" />
    <glyph glyph-name="uni0932" unicode="&#x932;" horiz-adv-x="1376" 
d="M796 332q21 -48 21 -121q0 -109 -78 -167t-191 -58q-230 0 -381 159q-70 73 -108.5 169.5t-38.5 201.5q0 122 46.5 222.5t140 161.5t217.5 61q89 0 168 -50t118 -131h8q31 79 94 124.5t142 45.5q77 0 125 -20q4 7 4 16q0 15 -14.5 25.5t-37 15t-40.5 6.5t-33 2
q-168 0 -247 -129q-46 65 -122.5 102.5t-172.5 37.5q-100 0 -191 -39h-235q-61 85 -61 180q0 50 14 91.5t47 92.5h1410q33 -50 47 -89.5t14 -94.5q0 -95 -61 -180h-50v-582q0 -122 57 -190q-19 -96 -91 -149.5t-181 -53.5q-123 0 -198 72.5t-75 195.5v90q40 20 79.5 58.5
t39.5 74.5q0 33 -25 37q-25 -70 -87.5 -108.5t-140.5 -38.5t-141.5 39t-86.5 110q-29 -6 -29 -37q0 -57 72 -106q71 -51 182 -51h18q32 0 53 4z" />
    <glyph glyph-name="uni0933" unicode="&#x933;" horiz-adv-x="1588" 
d="M442 997q-83 0 -193 -30h-254q-61 85 -61 180q0 50 14 91.5t47 92.5h1593q33 -50 47 -89.5t14 -94.5q0 -95 -61 -180h-210v-72q100 -56 145 -159t45 -230q0 -230 -132 -363q-132 -135 -332 -135q-85 0 -155.5 26.5t-106.5 74.5q28 26 58 72.5t30 76.5q0 26 -29 41
q-70 -151 -175.5 -221t-254.5 -70q-188 0 -313 122q-138 133 -138 365q0 193 113 325t303 132q103 0 185.5 -42.5t133.5 -123.5h8q99 146 275 146q1 1 1 10q0 31 -53 31q-62 0 -121 -30t-103 -80q-128 134 -320 134zM1021 451q9 -19 34 -19q26 0 44.5 23.5t18.5 50.5
q0 53 -37 53zM572 533q-12 22 -38 22q-27 0 -44 -23t-17 -51q0 -26 9.5 -40t23.5 -14z" />
    <glyph glyph-name="uni0934" unicode="&#x934;" horiz-adv-x="1588" 
d="M442 997q-83 0 -193 -30h-254q-61 85 -61 180q0 50 14 91.5t47 92.5h1593q33 -50 47 -89.5t14 -94.5q0 -95 -61 -180h-210v-72q100 -56 145 -159t45 -230q0 -230 -132 -363q-132 -135 -332 -135q-84 0 -152.5 26.5t-106.5 74.5q26 23 55.5 72t29.5 77q0 26 -29 41
q-145 -291 -430 -291q-188 0 -313 122q-138 133 -138 365q0 193 113 325t303 132q103 0 185.5 -42.5t133.5 -123.5h8q99 146 275 146q1 1 1 10q0 31 -53 31q-62 0 -121 -30t-103 -80q-128 134 -320 134zM1089 560q-7 0 -8 -1l-60 -108q9 -19 34 -19q28 0 45.5 24.5
t17.5 54.5q0 49 -29 49zM572 533q-12 22 -38 22q-27 0 -44 -23t-17 -51q0 -26 9.5 -40t23.5 -14zM777 42q57 0 96.5 -40t39.5 -96t-39.5 -95t-95.5 -39q-58 0 -95 40q-40 37 -40 94q0 56 39.5 96t94.5 40z" />
    <glyph glyph-name="uni0935" unicode="&#x935;" horiz-adv-x="1066" 
d="M717 249q0 13 -10 23q-42 -31 -113 -49t-131 -18q-187 0 -315 111.5t-128 295.5q0 123 60.5 217t160.5 142.5t222 48.5q107 0 201 -39q5 8 5 15q0 21 -25 36t-63 21.5t-66 9t-50 2.5q-188 0 -330 -98h-160q-61 85 -61 180q0 50 14 91.5t47 92.5h1115q33 -50 47 -89.5
t14 -94.5q0 -95 -61 -180h-50v-582q0 -120 58 -190q-19 -94 -90 -148.5t-169 -54.5q-97 0 -172.5 44.5t-101.5 131.5q152 29 152 81zM557 556q11 0 12 1v124q-4 1 -12 1.5t-22.5 -3.5t-24.5 -15q-17 -19 -17 -46q0 -28 17.5 -45t46.5 -17z" />
    <glyph glyph-name="uni0936" unicode="&#x936;" horiz-adv-x="1474" 
d="M550 1380q223 0 355 -142q14 56 62 93h531q33 -50 47 -89.5t14 -94.5q0 -95 -61 -180h-50v-582q0 -122 57 -190q-18 -95 -88.5 -149t-175.5 -54q-152 0 -227 97q24 59 24 141q-42 21 -78 52v231q58 58 92.5 150t34.5 179q0 81 -13 103q-14 23 -37 23q-9 0 -11 -1
q8 -62 8 -116q0 -179 -130 -319q-130 -141 -325 -153q0 -39 49 -39q76 0 158 43q87 -111 199 -178q0 -106 -78 -187t-217 -81q-140 0 -244 98q-84 79 -190 272q-107 13 -171.5 82t-64.5 176q0 65 34 124t91 88q35 -39 92.5 -61t120.5 -22q96 0 174 56.5t78 149.5
q0 34 -12.5 56.5t-36.5 22.5q-43 0 -43 -42q0 -43 35 -67q-10 -59 -63 -95t-128 -36q-117 0 -189 75t-72 193q0 153 120 261q127 112 329 112z" />
    <glyph glyph-name="uni0937" unicode="&#x937;" horiz-adv-x="1063" 
d="M550 301q69 7 146 49q75 40 75 80q0 19 -14 30q-48 -56 -131.5 -88t-177.5 -32q-193 0 -307.5 115t-114.5 309q0 113 16 203h-68q-61 85 -61 180q0 50 14 91.5t47 92.5h1113q33 -50 47 -89.5t14 -94.5q0 -95 -61 -180h-50v-582q0 -120 58 -190q-19 -96 -90.5 -149.5
t-181.5 -53.5q-123 0 -198 72.5t-75 195.5v41zM665 679q22 0 34 17q-66 36 -171.5 140.5t-135.5 164.5q-20 -11 -20 -34q0 -36 56 -104q47 -57 119.5 -120.5t117.5 -63.5z" />
    <glyph glyph-name="uni0938" unicode="&#x938;" horiz-adv-x="1460" 
d="M711 438q89 -83 250 -83q12 -36 12 -84q0 -144 -69.5 -217.5t-202.5 -73.5q-86 0 -162.5 36t-133 98.5t-98 133.5t-69.5 153q-80 20 -149 98q-69 76 -69 179q0 135 86 216q77 71 175 71q99 0 157 -52q11 8 11 23q0 29 -49 51.5t-125 22.5q-79 0 -152 -43h-133
q-61 85 -61 180q0 50 14 91.5t47 92.5h1494q33 -50 47 -89.5t14 -94.5q0 -95 -61 -180h-50v-582q0 -122 57 -190q-19 -95 -90.5 -149t-173.5 -54q-74 0 -136 27.5t-99 80.5q63 141 9 306q-3 -1 -20 -1h-18q-76 0 -143.5 25.5t-100.5 67.5q-91 -52 -223 -52q2 -24 15.5 -34.5
t43.5 -10.5q78 0 156 37zM881 797q15 -9 33 -9q17 0 32 9v170h-67q14 -36 14 -87q0 -53 -12 -83z" />
    <glyph glyph-name="uni0939" unicode="&#x939;" horiz-adv-x="1125" 
d="M-11 967q-62 86 -62 180q0 53 14 93t48 91h1145q33 -50 47 -89.5t14 -94.5q0 -95 -61 -180h-105v-97q0 -107 -67 -143q-99 51 -232 51q-72 0 -116 -17.5t-44 -41.5q0 -7 3 -14q80 28 153 28q170 0 274.5 -93t104.5 -261q0 -104 -42 -178t-117 -110q-28 90 -152 137
l-152 59v49q0 23 -14 39t-36 16q-23 0 -36.5 -15.5t-13.5 -43.5q0 -42 45 -71q26 -17 172 -71q85 -31 121.5 -74t36.5 -119q0 -57 -27.5 -114.5t-79.5 -97.5q-104 5 -204.5 24.5t-205 61.5t-182.5 100.5t-128 151t-50 205.5q0 81 41.5 165t108.5 115q-48 30 -76.5 80
t-28.5 107q0 71 33.5 124.5t89.5 82t117.5 42t128.5 13.5q100 0 158 -15q3 4 3 12q0 25 -28 35q-38 13 -133 13q-248 0 -368 -135h-97z" />
    <glyph glyph-name="uni093A" unicode="&#x93a;" 
d="M-274 1142q-124 0 -230 79v446q89 68 228 68q138 0 236 -68v-446q-64 -43 -116.5 -61t-117.5 -18z" />
    <glyph glyph-name="uni093B" unicode="&#x93b;" horiz-adv-x="530" 
d="M25 1667q89 68 228 68q138 0 236 -68v-336h65q33 -50 47 -89.5t14 -94.5q0 -95 -61 -180h-50v-582q0 -122 57 -190q-18 -96 -89 -149.5t-180 -53.5q-123 0 -194 72t-71 196v707h-52q-61 85 -61 180q0 50 14 91.5t47 92.5h50v336z" />
    <glyph glyph-name="uni093C" unicode="&#x93c;" 
d="M-549 -21q57 0 96.5 -40t39.5 -96q0 -57 -39.5 -95.5t-96.5 -38.5t-94 40q-40 37 -40 94q0 56 39.5 96t94.5 40z" />
    <glyph glyph-name="uni093D" unicode="&#x93d;" horiz-adv-x="1048" 
d="M40 328q0 86 48.5 149t131.5 79q54 -46 139 -97t132 -51q29 0 34 27q-14 6 -47 17q-37 12 -113 57q-79 46 -149 124q-59 64 -90 148.5t-31 174.5q0 101 35 175t98.5 117t143.5 63t180 20h326q42 -81 42 -172q0 -212 -173 -212h-155q-10 -10 -10 -25q0 -25 24.5 -45.5
t81.5 -50.5q66 -35 75 -40q121 -69 183 -160t62 -224q0 -107 -41.5 -188t-114 -128t-160.5 -69.5t-191 -22.5q-194 0 -322 86q-139 91 -139 248z" />
    <glyph glyph-name="uni093E" unicode="&#x93e;" horiz-adv-x="530" 
d="M-25 967q-61 85 -61 180q0 50 14 91.5t47 92.5h579q33 -50 47 -89.5t14 -94.5q0 -95 -61 -180h-50v-582q0 -122 57 -190q-18 -96 -89 -149.5t-180 -53.5q-123 0 -194 72t-71 196v707h-52z" />
    <glyph glyph-name="uni093F" unicode="&#x93f;" horiz-adv-x="530" 
d="M-25 967q-61 85 -61 180q0 50 14 91.5t47 92.5h92q-11 33 -11 83q0 196 158 318q171 132 474 132q187 0 395 -69q152 -51 309 -134.5t267 -179.5q-63 -219 -244 -219q-69 0 -196 56q-48 21 -113 53q-224 108 -383 108q-100 0 -160.5 -39.5t-60.5 -108.5h52
q33 -50 47 -89.5t14 -94.5q0 -95 -61 -180h-50v-582q0 -122 57 -190q-18 -96 -89 -149.5t-180 -53.5q-123 0 -194 72t-71 196v707h-52z" />
    <glyph glyph-name="uni0940" unicode="&#x940;" horiz-adv-x="530" 
d="M42 1331q2 22 2 25q0 98 -99 98q-43 0 -67.5 -22t-24.5 -54q0 -31 13 -47h176zM-225 967q-148 46 -245 162.5t-97 267.5q0 107 41.5 191t112.5 136t161 78.5t193 26.5q105 0 202.5 -32.5t174 -91.5t122 -150.5t45.5 -200.5v-23h69q33 -50 47 -89.5t14 -94.5
q0 -95 -61 -180h-50v-582q0 -122 57 -190q-18 -96 -89 -149.5t-180 -53.5q-123 0 -194 72t-71 196v707h-252z" />
    <glyph glyph-name="uni0941" unicode="&#x941;" 
d="M-40 0q107 -92 107 -259q0 -193 -125 -309t-320 -116q-115 0 -211.5 40t-159.5 125.5t-63 202.5q0 94 55 152t149 58q23 0 45 -5q-4 -23 -4 -59q0 -119 77 -190q43 -40 91 -40q30 0 30 30q-72 21 -109 77t-37 134q0 114 77 182t192 68q56 0 119 -23l-68 -62q0 -46 47 -46
q43 0 108 40z" />
    <glyph glyph-name="uni0942" unicode="&#x942;" 
d="M-293 94q102 0 161 -49l-63 -39q0 -46 45 -46q38 0 90 28q66 -37 123 -143q28 -51 87 -196q58 -145 100 -206q-22 -77 -86 -122t-150 -45t-152 45t-98 130q62 13 120 75t58 123q0 42 -45 42q-8 -74 -61 -135q-65 -74 -170 -74q-133 0 -218.5 87.5t-85.5 220.5
q0 141 100 222.5t245 81.5z" />
    <glyph glyph-name="uni0943" unicode="&#x943;" 
d="M66 -77q0 -46 -24 -86t-65 -55q-50 10 -100 10q-76 0 -76 -39q0 -18 21.5 -29.5t57.5 -11.5q93 0 161 50q102 -40 102 -178q0 -104 -84.5 -166.5t-239.5 -62.5q-120 0 -218 43t-159 133t-61 212q0 118 61.5 205.5t159 130t215.5 42.5q102 0 175.5 -50.5t73.5 -147.5z" />
    <glyph glyph-name="uni0944" unicode="&#x944;" 
d="M-27 -161q-46 8 -86 8q-74 0 -74 -37q0 -16 17 -27t47 -11q83 0 142 42q90 -39 90 -142q0 -76 -62 -120t-174 -44q-61 0 -61 -35q0 -18 17.5 -28.5t47.5 -10.5q75 0 142 42q90 -33 90 -142q0 -53 -27 -92t-71.5 -59t-90.5 -29t-96 -9q-74 0 -138 16.5t-117 50.5
t-83.5 92.5t-30.5 135.5q0 164 155 218q-8 30 -36 30q-43 0 -84 -41q-52 64 -52 154q0 159 131 248q106 73 233 73q128 0 186 -43q59 -44 59 -113q0 -88 -74 -127z" />
    <glyph glyph-name="uni0945" unicode="&#x945;" 
d="M-663 1634q0 85 52 134t104 49q29 -49 86.5 -78t116.5 -29q67 0 121 28.5t81 78.5q53 0 108 -49q56 -50 56 -134q0 -102 -88 -172q-101 -80 -275 -80q-175 0 -273 80q-89 71 -89 172z" />
    <glyph glyph-name="uni0946" unicode="&#x946;" 
d="M-580 1376q-64 0 -118 13t-100 40.5t-72.5 77t-26.5 115.5q0 134 110 224l92 -11q7 -34 38 -51q45 -25 194 -37q69 -6 121.5 -15t111.5 -31t97 -54t63.5 -86.5t25.5 -126.5q0 -70 -27 -116v-24q0 -64 -39.5 -102.5t-107.5 -38.5q-67 0 -104.5 37.5t-37.5 96.5v44
q15 3 15 16q0 33 -92 33z" />
    <glyph glyph-name="uni0947" unicode="&#x947;" 
d="M-337 1358q0 9 -6 18q-65 0 -127.5 7.5t-129.5 25.5t-123.5 53.5t-90.5 85.5q0 139 89.5 229t228.5 90q195 0 317 -164q113 -154 113 -383v-28q0 -69 -42 -109.5t-113 -40.5q-69 0 -110.5 40.5t-41.5 101.5v47q36 0 36 27z" />
    <glyph glyph-name="uni0948" unicode="&#x948;" 
d="M-257 1571q21 7 20 34.5t-25 64.5q-46 72 -125 115.5t-166 48.5q1 88 61 140.5t150 52.5q81 0 146.5 -32t106 -86t62 -123.5t21.5 -148.5q0 -145 -67 -310v-22q0 -79 -50 -126.5t-132 -47.5q-80 0 -126.5 46.5t-46.5 117.5v36q40 0 40 28q0 7 -3 15q-121 0 -247.5 29.5
t-192.5 93.5q0 126 77 209q76 82 179 82q207 0 318 -217z" />
    <glyph glyph-name="uni0949" unicode="&#x949;" horiz-adv-x="530" 
d="M-25 967q-61 85 -61 180q0 50 14 91.5t47 92.5h579q33 -50 47 -89.5t14 -94.5q0 -95 -61 -180h-50v-582q0 -122 57 -190q-18 -96 -89 -149.5t-180 -53.5q-123 0 -194 72t-71 196v707h-52zM-149 1634q0 85 52 134t104 49q29 -49 86.5 -78t116.5 -29q67 0 121 28.5t81 78.5
q53 0 108 -49q56 -50 56 -134q0 -102 -88 -172q-101 -80 -275 -80q-175 0 -273 80q-89 71 -89 172z" />
    <glyph glyph-name="uni094A" unicode="&#x94a;" horiz-adv-x="530" 
d="M-31 1376q-64 0 -118 13t-100 40.5t-72.5 77t-26.5 115.5q0 134 110 224l92 -11q7 -34 38 -51q45 -25 194 -37q47 -4 85 -9.5t83 -16.5t79.5 -25.5t68 -38t55 -53.5t35 -72t13.5 -93q0 -63 -21 -108h70q33 -50 47 -89.5t14 -94.5q0 -95 -61 -180h-50v-582q0 -122 57 -190
q-18 -96 -89 -149.5t-180 -53.5q-123 0 -194 72t-71 196v707h-52q-61 85 -61 180q0 50 14 91.5t47 92.5h214q15 3 15 16q0 33 -92 33q-48 -1 -143 -4z" />
    <glyph glyph-name="uni094B" unicode="&#x94b;" horiz-adv-x="530" 
d="M157 1331q36 0 36 27q0 9 -6 18q-65 0 -127.5 7.5t-129.5 25.5t-123.5 53.5t-90.5 85.5q0 139 89.5 229t228.5 90q193 0 314 -160q112 -148 116 -376h90q33 -50 47 -89.5t14 -94.5q0 -95 -61 -180h-50v-582q0 -122 57 -190q-18 -96 -89 -149.5t-180 -53.5q-123 0 -194 72
t-71 196v707h-52q-61 85 -61 180q0 50 14 91.5t47 92.5h182z" />
    <glyph glyph-name="uni094C" unicode="&#x94c;" horiz-adv-x="530" 
d="M281 1571q21 7 20.5 34t-24.5 65q-50 73 -127 116.5t-165 47.5q1 88 61 140.5t150 52.5q81 0 146.5 -32t106 -86t62 -123.5t21.5 -148.5q0 -139 -66 -306h88q33 -50 47 -89.5t14 -94.5q0 -95 -61 -180h-50v-582q0 -122 57 -190q-18 -96 -89 -149.5t-180 -53.5
q-123 0 -194 72t-71 196v707h-52q-61 85 -61 180q0 50 14 91.5t47 92.5h135q40 0 40 28q0 7 -3 15q-121 0 -247.5 29.5t-192.5 93.5q0 126 77 209q76 82 179 82q207 0 318 -217z" />
    <glyph glyph-name="uni094D" unicode="&#x94d;" 
d="M-83 -525q-103 0 -202 99l-163 165q-3 22 -3 43q0 76 52 120.5t128 44.5q72 0 123.5 -31.5t100.5 -95.5l156 -204q-16 -62 -66.5 -101.5t-125.5 -39.5z" />
    <glyph glyph-name="uni094E" unicode="&#x94e;" horiz-adv-x="530" 
d="M-25 967q-61 85 -61 180q0 50 14 91.5t47 92.5h579q33 -50 47 -89.5t14 -94.5q0 -95 -61 -180h-50v-582q0 -122 57 -190q-18 -96 -89 -149.5t-180 -53.5q-123 0 -194 72t-71 196v707h-52z" />
    <glyph glyph-name="uni094F" unicode="&#x94f;" horiz-adv-x="531" 
d="M-31 1376q-64 0 -118 13t-100 40.5t-72.5 77t-26.5 115.5q0 134 110 224l92 -11q7 -59 50 -88.5t144 -46.5l113 -19q66 -13 95.5 -35.5t35.5 -73.5q30 0 30 30q0 52 -45 81.5t-104 38.5l-83 13q-90 13 -132.5 45t-42.5 98q0 68 58 123l92 -11q5 -39 37 -54q19 -9 68 -15
q20 -2 60 -7q168 -21 250.5 -100.5t82.5 -208.5q0 -74 -29 -147t-79 -127h100q33 -50 47 -89.5t14 -94.5q0 -95 -61 -180h-51v-582q0 -122 57 -190q-18 -96 -89 -149.5t-180 -53.5q-123 0 -194 72t-71 196v707h-52q-61 85 -61 180q0 50 14 91.5t47 92.5h184q15 3 15 16
q0 33 -92 33z" />
    <glyph glyph-name="uni0950" unicode="&#x950;" horiz-adv-x="1967" 
d="M1278 1279q-62 0 -105 40.5t-43 102.5t42 103.5t103 41.5t102 -41t41 -102t-39.5 -103t-100.5 -42zM1078 1431q0 -94 53.5 -145.5t143.5 -51.5q89 0 143 53t54 147v17q54 0 109 -45q66 -56 66 -140q0 -85 -71 -156q-38 7 -86 7q-173 0 -268 -107q-145 12 -236 92
q-84 74 -84 161t64 142q53 46 112 47v-21zM852 1304q-2 -30 -2 -34q0 -206 270 -287q7 -27 7 -68q0 -72 -31.5 -131.5t-92.5 -95.5q10 -19 42 -19q33 0 70 54q19 30 46 86q30 65 56.5 106.5t65 80.5t90.5 57.5t119 18.5q145 0 249.5 -68t155 -180.5t50.5 -255.5
q0 -136 -50.5 -245.5t-153.5 -176.5t-243 -67q-117 0 -199.5 70t-82.5 184q0 19 3 42q142 1 233 85t91 200q0 25 -8.5 36t-34.5 11q0 -129 -80 -208t-209 -79q-31 0 -46 4q0 -14 1 -17v-17q0 -190 -127.5 -299t-320.5 -109q-89 0 -162 17.5t-137 56.5t-114 83t-117 115
q-55 57 -87 85q-37 33 -80 55q-3 22 -3 43q0 106 63.5 171t169.5 65q76 0 141 -46q10 -109 90.5 -173.5t192.5 -64.5q59 0 59 34q0 8 -3 17q-21 -6 -49 -6q-105 0 -173 62.5t-68 166.5q0 98 68 167.5t166 69.5q33 0 46 -3q3 6 3 13q0 34 -58 34q-82 0 -151 -42t-101 -116
q-112 0 -184.5 71t-72.5 183q99 145 213.5 223t272.5 78q93 0 207 -37z" />
    <glyph glyph-name="uni0951" unicode="&#x951;" 
d="M-488 1865q82 48 211 48t213 -48v-446q-84 -48 -213 -48t-211 48v446z" />
    <glyph glyph-name="uni0952" unicode="&#x952;" 
d="M-10 -47q109 -164 0 -321h-655q-53 75 -53 158t53 163h655z" />
    <glyph glyph-name="uni0953" unicode="&#x953;" 
d="M-608 1824q54 0 93 -21.5t76 -69.5l143 -184q0 -74 -50 -128t-123 -54q-62 0 -102 21t-81 71l-143 184q0 80 53.5 130.5t133.5 50.5z" />
    <glyph glyph-name="uni0954" unicode="&#x954;" 
d="M-652 1733q37 48 76 69.5t93 21.5q80 0 133.5 -51t53.5 -130l-143 -184q-38 -49 -78.5 -70.5t-104.5 -21.5q-74 0 -123.5 54t-49.5 128z" />
    <glyph glyph-name="uni0955" unicode="&#x955;" 
d="M-650 1697q47 -83 142 -119t206 -36t206 36t142 119h35q53 -80 53 -162q0 -79 -53 -155h-766q-53 76 -53 155q0 82 53 162h35zM-54 1656q-93 -69 -248 -69t-248 69q-83 62 -83 152q0 120 131 164q26 -45 79 -73.5t121 -28.5q69 0 121.5 28t78.5 74q131 -44 131 -164
q0 -90 -83 -152z" />
    <glyph glyph-name="uni0956" unicode="&#x956;" 
d="M-592 -188q0 85 52 134t104 49q30 -50 86 -78.5t117 -28.5q67 0 121 28.5t81 78.5q52 0 108 -50t56 -133q0 -102 -88 -172q-101 -80 -275 -80q-175 0 -273 80q-89 71 -89 172z" />
    <glyph glyph-name="uni0957" unicode="&#x957;" 
d="M-511 -398q48 -33 129.5 -50t152.5 -17q165 0 278 67q39 -36 39 -104q0 -86 -81 -145q-82 -58 -237 -58q-153 0 -236 57q-82 58 -82 140q0 83 37 110zM-592 -188q0 85 52 134t104 49q30 -50 86 -78.5t117 -28.5q67 0 121 28.5t81 78.5q52 0 108 -50t56 -133
q0 -98 -93 -166q-93 -66 -270 -66q-178 0 -270 67q-92 68 -92 165z" />
    <glyph glyph-name="uni0958" unicode="&#x958;" horiz-adv-x="1648" 
d="M549 539q10 0 12 1v124q-2 1 -15 1q-27 0 -44 -18.5t-17 -46.5q0 -27 17.5 -44t46.5 -17zM269 244q57 0 96.5 -39.5t39.5 -96.5t-40 -95.5t-97 -38.5q-56 0 -95 39.5t-39 95.5q0 55 40 95t95 40zM1118 166q-28 -87 -95.5 -130.5t-162.5 -43.5q-121 0 -199.5 69.5
t-78.5 190.5v45q-52 0 -52 -59q0 -24 8 -56q-35 -15 -93 -20q-21 60 -67 92.5t-108 32.5q-63 0 -108 -36q-67 55 -104.5 139.5t-37.5 182.5q0 180 112.5 301t291.5 121q127 0 209 -61q7 10 7 22q0 33 -61 58q-63 26 -155 26q-146 0 -258 -73h-191q-61 85 -61 180
q0 50 14 91.5t47 92.5h1676q35 -53 48.5 -90.5t13.5 -93.5q0 -94 -62 -180h-164q-109 73 -252 73q-93 0 -153 -25q-62 -26 -62 -64q0 -13 8 -21q92 65 207 65q173 0 287 -129q51 -56 78.5 -131t27.5 -151q0 -190 -100 -300q-100 -112 -240 -112q-118 0 -183 63.5t-65 177.5
q0 73 30 150q19 -11 36 -11q20 0 32 14.5t12 41.5q0 25 -14.5 41t-36.5 16q-21 0 -34 -5q-37 -37 -57.5 -110.5t-20.5 -136.5q0 -170 131 -247z" />
    <glyph glyph-name="uni0959" unicode="&#x959;" horiz-adv-x="1574" 
d="M386 250q57 0 96.5 -39.5t39.5 -96.5t-40 -95.5t-97 -38.5q-56 0 -95 39.5t-39 95.5q0 55 39.5 95t95.5 40zM446 848q42 18 42 57t-23 62h-490q-61 85 -61 180q0 50 14 91.5t47 92.5h1622q34 -51 48 -91t14 -93q0 -94 -62 -180h-51v-582q0 -120 58 -190
q-19 -95 -90.5 -149t-174.5 -54q-59 0 -114.5 19t-89.5 53q39 55 39 115q0 59 -42 63q0 -135 -88 -209t-227 -74q-146 0 -262 77q17 39 17 77q0 81 -52 131.5t-133 50.5q-34 0 -65 -11q-14 19 -22 32q-4 8 -15 21q-12 15 -17 23q-105 14 -176.5 98t-71.5 191q0 115 69 194
t182 79t175 -74zM1008 352q63 0 99 15t36 41q0 10 -6 18q-53 -29 -129 -29q-115 0 -194 70t-79 183q0 110 78 191t213 81q78 0 118 -22q6 4 6 12q0 26 -35 41q-39 14 -102 14q-145 0 -238 -84.5t-93 -227.5q0 -85 33 -143q-48 -57 -178 -57q-35 0 -50 4q-1 -1 -1 -7
q0 -41 83 -41q105 0 172 57q93 -116 267 -116z" />
    <glyph glyph-name="uni095A" unicode="&#x95a;" horiz-adv-x="1167" 
d="M677 924q-21 38 -47 61t-45 23t-32 -15q61 -50 94 -140.5t33 -205.5q0 -124 -59 -223.5t-171 -132.5q-35 24 -94 24t-102 -34q-98 18 -166 89t-68 167q0 89 33 159q26 -12 53 -12q48 0 74.5 30.5t26.5 87.5q0 54 -20.5 98t-51.5 67h-160q-61 85 -61 180q0 50 14 91.5
t47 92.5h1216q33 -50 47 -89.5t14 -94.5q0 -95 -61 -180h-50v-582q0 -122 57 -190q-19 -96 -91 -149.5t-181 -53.5q-123 0 -198 72.5t-75 195.5v109q80 122 80 287q0 164 -56 268zM358 270q57 0 96.5 -39.5t39.5 -96.5t-40 -95.5t-97 -38.5q-56 0 -95 39.5t-39 95.5
q0 55 39.5 95t95.5 40z" />
    <glyph glyph-name="uni095B" unicode="&#x95b;" horiz-adv-x="1382" 
d="M202 315q-40 0 -83 -20q-99 118 -99 262q0 124 79.5 199t205.5 75q-4 -17 -4 -53q0 -121 70 -205t188 -84q55 0 55 41q-124 0 -192 67t-68 185q0 33 9.5 75.5t25.5 64.5h555q0 25 -14.5 35t-55.5 10h-899q-61 85 -61 180q0 50 14 91.5t47 92.5h1431q33 -50 47 -89.5
t14 -94.5q0 -95 -61 -180h-50v-582q0 -122 57 -190q-19 -94 -89.5 -148.5t-166.5 -54.5q-97 0 -168 39t-100 116q127 115 127 265q0 28 -6 60.5t-25 63.5t-47 31q-13 0 -20 -4q45 -69 45 -151q0 -124 -94 -214q-106 -100 -291 -100q-96 0 -190 27q0 85 -50.5 137.5
t-135.5 52.5zM201 270q57 0 96.5 -39.5t39.5 -96.5t-40 -95.5t-97 -38.5q-56 0 -95 39.5t-39 95.5q0 55 40 95t95 40z" />
    <glyph glyph-name="uni095C" unicode="&#x95c;" horiz-adv-x="1090" 
d="M628 389q0 1 -0.5 2.5t-1 4.5t-0.5 6q-22 -3 -77 -3q-105 0 -200 49.5t-135 139.5q-70 -12 -119 -43q-67 91 -67 192q0 142 95 226t239 84q94 0 180 -23q3 8 3 14q0 54 -177 54q-200 0 -304 -125h-97q-61 85 -61 180q0 50 14 91.5t47 92.5h1131q34 -51 48 -91t14 -93
q0 -94 -62 -180h-108v-119q0 -42 -17 -75.5t-46 -45.5q-99 51 -225 51q-169 0 -169 -57q0 -8 5 -16q68 28 151 28q168 0 274.5 -91t106.5 -259q0 -156 -90 -259.5t-257 -140.5q-18 54 -64 86.5t-109 32.5q-62 0 -106.5 -33.5t-60.5 -86.5q-69 14 -130 42t-113.5 69.5
t-83 102t-30.5 132.5q0 158 162 207q46 -86 147 -133.5t207 -47.5q86 0 86 35zM552 57q57 0 96.5 -40t39.5 -97t-40 -95t-97 -38q-56 0 -95 39t-39 95t39.5 96t95.5 40z" />
    <glyph glyph-name="uni095D" unicode="&#x95d;" horiz-adv-x="1166" 
d="M617 57q57 0 96.5 -40t39.5 -97t-40 -95t-97 -38q-56 0 -95 39t-39 95t39.5 96t95.5 40zM577 1108q0 -35 -19.5 -51.5t-73.5 -28.5q-116 -23 -199 -61h-299q-62 86 -62 180q0 53 14 93t48 91h1188q34 -51 48 -91t14 -93q0 -94 -62 -180h-151q4 -32 4 -84q0 -99 -57 -147
q-78 30 -160 30q-165 0 -266 -86q-102 -87 -102 -221q0 -61 18.5 -100.5t50.5 -39.5q7 0 12 3q-28 53 -28 127q0 113 89 193q88 79 235 79q143 0 235 -98t92 -242q0 -159 -93 -262.5t-261 -136.5q-22 57 -67 88.5t-107 31.5t-107.5 -31.5t-66.5 -86.5q-186 42 -305 168
t-119 309q0 218 124 346t349 172q135 27 135 108q0 48 -37 48h-14v-27zM769 332q74 0 74 47q0 15 -10 25t-28 10t-30 -14q-22 -27 -6 -68z" />
    <glyph glyph-name="uni095E" unicode="&#x95e;" horiz-adv-x="1652" 
d="M1093 185q-20 -93 -93 -143t-171 -50q-126 0 -202.5 71.5t-76.5 196.5v41q22 3 51 11t62 21t55.5 33t22.5 41q0 15 -10 28q-52 -45 -130 -70t-153 -25q-193 0 -307.5 115t-114.5 309q0 113 16 203h-68q-61 85 -61 180q0 50 14 91.5t47 92.5h1681q34 -51 48 -91t14 -93
q0 -94 -62 -180h-164q-112 73 -252 73q-91 0 -152 -27q-61 -28 -61 -61q0 -14 6 -22q92 65 207 65q173 0 287 -129q51 -56 78.5 -131t27.5 -151q0 -190 -100 -300q-100 -112 -240 -112q-118 0 -183 63.5t-65 177.5q0 73 30 150q19 -11 36 -11q20 0 32 14.5t12 41.5
q0 24 -17 39.5t-37 15.5q-19 0 -31 -3q-37 -37 -57.5 -110.5t-20.5 -136.5q0 -147 102 -228zM495 967q-9 -35 -9 -95q0 -94 66 -104v199h-57zM375 270q57 0 96.5 -39.5t39.5 -96.5t-40 -95.5t-97 -38.5q-56 0 -95 39.5t-39 95.5q0 55 40 95t95 40z" />
    </font>
</defs>
</svg>
